<svg xmlns="http://www.w3.org/2000/svg" viewBox="0 0 485.2 485.2"><circle fill="#FFF" cx="243.9" cy="181" r="136"/><path fill="#00b8b0" d="M243.9 0C143.4 0 62 81.5 62 182s151.6 303.3 182 303.3c30.3 0 182-202.8 182-303.3S344.4 0 243.9 0zm0 303.3c-66.9 0-121.3-54.4-121.3-121.3S177 60.7 243.9 60.7 365.2 115.1 365.2 182s-54.4 121.3-121.3 121.3z"/><path fill="#00b8b0" d="M177.8 176.6h39.7c2.2 0 5 0 5-9.8 0-4.6-8.9-9.8-14.9-9.8h-29.1c-5.3 0-10.1 3.7-10.6 8.9-.6 5.9 4.1 10.7 9.9 10.7z"/><path fill="#00b8b0" d="M333.7 180.5H165.9V122c0-2.2-1.8-3.9-3.9-3.9h-3.9c-2.2 0-3.9 1.8-3.9 3.9v117.1c0 2.2 1.8 3.9 3.9 3.9h3.9c2.2 0 3.9-1.8 3.9-3.9v-27.3h160v27.3c0 2.2 1.8 3.9 3.9 3.9h3.9c2.2 0 3.9-1.8 3.9-3.9v-54.7c0-2.1-1.7-3.9-3.9-3.9z"/><path fill="#00b8b0" d="M333.7 149.3h-3.9c-2.2 0-3.9 1.8-3.9 3.9v55.3c3.9-.2 7.8-.3 11.7-.3v-55c0-2.1-1.7-3.9-3.9-3.9z"/></svg>