<svg xmlns="http://www.w3.org/2000/svg" fill="#e3050f" viewBox="0 0 512.02 512.02"><path d="M468.214 512.02c-11.208 0-22.408-4.28-30.96-12.832L12.838 74.756c-17.104-17.104-17.104-44.84 0-61.928 17.104-17.104 44.816-17.104 61.928 0L499.182 437.26c17.104 17.104 17.104 44.84 0 61.928-8.56 8.552-19.768 12.832-30.968 12.832z"/><path d="M43.798 512.02c-11.208 0-22.408-4.28-30.96-12.832-17.104-17.088-17.104-44.816 0-61.928L437.254 12.836c17.104-17.104 44.816-17.104 61.928 0 17.104 17.088 17.104 44.816 0 61.928L74.758 499.188c-8.552 8.552-19.752 12.832-30.96 12.832z"/></svg>