<svg xmlns="http://www.w3.org/2000/svg" viewBox="0 0 800 800"><path d="M350 202.1c4.4 12.1-1.9 25.5-14 29.9-12.1 4.4-25.5-1.9-29.9-14L246.5 53.1c-4.4-12.1 1.9-25.5 14-29.9 12.1-4.4 25.5 1.9 29.9 14L350 202.1z" fill="#29c4bf"/><path d="M257.5 253.6c9.9 8.3 11.1 23 2.8 32.9-8.3 9.9-23 11.1-32.9 2.8l-134-112.9c-9.8-8.3-11.1-23-2.8-32.9 8.3-9.9 23-11.1 32.9-2.8l134 112.9z" opacity=".97" fill="#29c4bf"/><path d="M203.3 344.5c12.7 2.3 21.1 14.4 18.9 27.1-2.3 12.7-14.4 21.1-27.1 18.9L22.6 359.7c-12.7-2.3-21.1-14.4-18.9-27.1 2.3-12.7 14.4-21.1 27.1-18.9l172.5 30.8z" opacity=".95" fill="#29c4bf"/><path d="M201.8 450.3c12.1-4.4 25.5 1.9 29.9 14 4.4 12.1-1.9 25.5-14 29.9L52.8 553.8c-12.1 4.4-25.5-1.9-29.9-14-4.4-12.1 1.9-25.5 14-29.9l164.9-59.6zm51.5 92.5c8.3-9.8 23-11.1 32.9-2.8 9.9 8.3 11.1 23 2.8 32.9l-112.9 134c-8.3 9.9-23 11.1-32.9 2.8-9.9-8.3-11.1-23-2.8-32.9l112.9-134z" opacity=".9" fill="#29c4bf"/><path d="M344.2 597c2.3-12.7 14.4-21.2 27.1-18.9 12.7 2.3 21.1 14.4 18.9 27.1l-30.8 172.5c-2.3 12.7-14.4 21.1-27.1 18.9-12.7-2.3-21.2-14.4-18.9-27.1L344.2 597z" opacity=".8" fill="#29c4bf"/><path d="M450 598.6c-4.4-12.1 1.9-25.5 14-29.9 12.1-4.4 25.5 1.9 29.9 14l59.6 164.8c4.4 12.1-1.9 25.5-14 29.9-12.1 4.4-25.5-1.9-29.9-14L450 598.6z" opacity=".7" fill="#29c4bf"/><path d="M542.4 547c-9.9-8.3-11.1-23-2.8-32.9 8.3-9.9 23-11.1 32.9-2.8l134 112.9c9.9 8.3 11.1 23 2.8 32.9-8.3 9.9-23 11.1-32.9 2.8L542.4 547z" opacity=".5" fill="#29c4bf"/><path d="M596.7 456.1c-12.7-2.3-21.1-14.4-18.9-27.1 2.3-12.7 14.4-21.1 27.1-18.9L777.4 441c12.7 2.3 21.1 14.4 18.8 27.1-2.3 12.7-14.4 21.1-27 18.9l-172.5-30.9z" opacity=".4" fill="#29c4bf"/><path d="M598.3 350.3c-12.1 4.4-25.5-1.9-29.9-14-4.4-12.1 1.9-25.5 14-29.9l164.8-59.6c12.1-4.4 25.5 1.9 29.9 14 4.4 12.1-1.9 25.5-14 29.9l-164.8 59.6z" opacity=".3" fill="#29c4bf"/><path d="M546.7 257.9c-8.3 9.9-23 11.1-32.9 2.8-9.9-8.3-11.1-23-2.8-32.9l113-134c8.3-9.9 23-11.1 32.9-2.8 9.9 8.3 11.1 23 2.8 32.9l-113 134z" opacity=".2" fill="#29c4bf"/><path d="M455.8 203.6c-2.3 12.7-14.4 21.1-27.1 18.9-12.7-2.3-21.1-14.4-18.9-27.1l30.8-172.6c2.3-12.6 14.4-21 27.1-18.8 12.7 2.3 21.1 14.4 18.9 27.1l-30.8 172.5z" opacity=".1" fill="#29c4bf"/><path d="M238.9 151.2c-48.4-137.1-60-258-25.9-270s100.9 89.4 149.3 226.5c48.4 137.1 59.9 258 25.9 270-34.1 12-101-89.4-149.3-226.5z" fill="none"/></svg>