<svg height="50px" viewBox="0 -105 512.001 512" width="50px" xmlns="http://www.w3.org/2000/svg">
    <path d="m192.765625 301.484375c-5.1875 0-10.226563-2.691406-13.003906-7.5l-18.5-32.042969c-4.144531-7.175781-1.6875-16.351562 5.488281-20.492187s16.347656-1.683594 20.488281 5.492187l18.5 32.042969c4.144531 7.171875 1.6875 16.347656-5.488281 20.488281-2.363281 1.363282-4.941406 2.011719-7.484375 2.011719zm0 0"/>
    <path d="m265.265625 301.484375c-5.1875 0-10.226563-2.691406-13.003906-7.5l-18.5-32.042969c-4.144531-7.175781-1.6875-16.351562 5.488281-20.492187s16.347656-1.683594 20.488281 5.492187l18.5 32.042969c4.144531 7.171875 1.6875 16.347656-5.488281 20.488281-2.363281 1.363282-4.941406 2.011719-7.484375 2.011719zm0 0"/>
    <path d="m337.765625 301.484375c-5.1875 0-10.226563-2.691406-13.003906-7.5l-18.5-32.042969c-4.144531-7.175781-1.6875-16.351562 5.488281-20.492187s16.347656-1.683594 20.488281 5.492187l18.5 32.042969c4.144531 7.171875 1.6875 16.347656-5.488281 20.488281-2.363281 1.363282-4.941406 2.011719-7.484375 2.011719zm0 0"/>
    <path d="m102.96875 182.742188-4.851562 32.746093h315.765624l-4.851562-32.746093zm0 0"/>
    <path d="m468.863281 0h-425.726562c-23.785157 0-43.136719 19.351562-43.136719 43.132812v129.21875c0 23.785157 19.351562 43.136719 43.136719 43.136719h24.65625l.316406-2.144531.84375-5.6875 2.695313-18.210938 3.539062-23.902343c1.089844-7.351563 7.402344-12.800781 14.839844-12.800781h331.949218c7.433594 0 13.746094 5.445312 14.835938 12.800781l3.539062 23.902343 2.699219 18.210938.839844 5.6875.320313 2.144531h24.65625c23.78125 0 43.132812-19.351562 43.132812-43.136719v-129.21875c0-23.78125-19.351562-43.132812-43.136719-43.132812zm-57.152343 127.992188c-8.902344 0-16.148438-7.246094-16.148438-16.148438s7.246094-16.148438 16.148438-16.148438c8.902343 0 16.148437 7.246094 16.148437 16.148438s-7.246094 16.148438-16.148437 16.148438zm0-42c-8.902344 0-16.148438-7.246094-16.148438-16.148438s7.246094-16.148438 16.148438-16.148438c8.902343 0 16.148437 7.246094 16.148437 16.148438s-7.246094 16.148438-16.148437 16.148438zm0 0"/>
</svg>