<?xml version="1.0" encoding="utf-8"?>
<svg version="1.1" xmlns="http://www.w3.org/2000/svg" x="0px" y="0px"
     viewBox="0 0 473.2 268.8" style="enable-background:new 0 0 473.2 268.8;" xml:space="preserve">
	<path d="M469.5,125.6l-80-80c-4.9-4.9-12.8-4.9-17.7,0c-4.9,4.9-4.9,12.8,0,17.7l58.7,58.7c0,0-226.2,5.6-226.2,12.5
		c0,6.9,226.2,12.5,226.2,12.5l-58.7,58.7c-4.9,4.9-4.9,12.8,0,17.7c2.4,2.4,5.6,3.7,8.8,3.7s6.4-1.2,8.8-3.7l80-80
		C474.4,138.4,474.4,130.5,469.5,125.6z"/>
    <path
        d="M436.5,121.9H12.8c-6.9,0-12.5,5.6-12.5,12.5c0,6.9,5.6,12.5,12.5,12.5h423.9C436.6,138.6,434.9,130.2,436.5,121.9z"/>
</svg>
