<svg xmlns="http://www.w3.org/2000/svg" xmlns:xlink="http://www.w3.org/1999/xlink" x="0px" y="0px"
	 viewBox="0 0 485.694 485.694" style="enable-background:new 0 0 485.694 485.694;" xml:space="preserve" height="50px" width="50px">
<path d="M475.864,268.527c0.187-1.949-0.463-3.886-1.773-5.335c-1.326-1.441-3.191-2.266-5.148-2.266H92.756V88.422
	c0-31.34,25.503-56.844,56.851-56.844c23.329,0,43.374,14.155,52.117,34.655c-28.927,10.756-51.268,42.311-52.75,68.786
	c-0.046,0.717,0.217,1.418,0.709,1.942c0.494,0.524,1.188,0.818,1.898,0.818h141.304c0.709,0,1.402-0.302,1.897-0.818
	c0.492-0.524,0.754-1.226,0.709-1.942c-1.619-28.941-28.172-63.898-61.014-71.169C223.805,27.021,189.835,0,149.607,0
	c-48.756,0-88.43,39.666-88.43,88.422v172.505H16.753c-1.958,0-3.824,0.824-5.135,2.273c-1.326,1.441-1.974,3.386-1.789,5.327
	c5.027,53.035,41.648,114.451,95.816,156.399c3.393,2.621,7.093,4.696,10.686,6.946l-13.894,12.561
	c-9.698,8.772-10.454,23.745-1.695,33.451c4.672,5.181,11.117,7.81,17.578,7.81c5.675,0,11.35-2.02,15.883-6.106l32.579-29.427
	c5.568,0.732,11.165,1.38,16.838,1.38h118.453c5.674,0,11.271-0.648,16.853-1.395l32.596,29.442
	c4.52,4.095,10.208,6.106,15.867,6.106c6.461,0,12.906-2.637,17.578-7.81c8.773-9.706,8.002-24.686-1.712-33.451l-13.909-12.561
	c3.609-2.25,7.31-4.325,10.703-6.946C434.217,382.978,470.839,321.563,475.864,268.527z"/>
</svg>
