<?xml version="1.0" encoding="iso-8859-1"?>
<svg xmlns="http://www.w3.org/2000/svg" xmlns:xlink="http://www.w3.org/1999/xlink" x="0px" y="0px"
	 viewBox="0 0 512 512" style="enable-background:new 0 0 512 512;" xml:space="preserve">
<g>
	<g>
		<path d="M501.551,303.02h-52.253V48.065c0-5.771-4.679-10.449-10.449-10.449H373.03V10.449C373.03,4.678,368.351,0,362.581,0
			c-5.77,0-10.449,4.678-10.449,10.449v27.167h-65.818c-5.77,0-10.449,4.678-10.449,10.449v121.208H169.273V89.905
			c0-5.771-4.679-10.449-10.449-10.449H10.449C4.679,79.456,0,84.134,0,89.905v411.646C0,507.322,4.679,512,10.449,512h491.102
			c5.77,0,10.449-4.678,10.449-10.449V313.469C512,307.698,507.321,303.02,501.551,303.02z M148.376,179.722v311.38H20.898v-13.584
			h57.321c5.77,0,10.449-4.678,10.449-10.449s-4.679-10.449-10.449-10.449H20.898v-25.962h57.321c5.77,0,10.449-4.678,10.449-10.449
			c0-5.771-4.679-10.449-10.449-10.449H20.898v-25.962h57.321c5.77,0,10.449-4.678,10.449-10.449
			c0-5.771-4.679-10.449-10.449-10.449H20.898V336.94h57.321c5.77,0,10.449-4.678,10.449-10.449c0-5.771-4.679-10.449-10.449-10.449
			H20.898V290.08h57.321c5.77,0,10.449-4.678,10.449-10.449c0-5.771-4.679-10.449-10.449-10.449H20.898v-25.962h57.321
			c5.77,0,10.449-4.678,10.449-10.449c0-5.771-4.679-10.449-10.449-10.449H20.898v-25.961h57.321c5.77,0,10.449-4.678,10.449-10.449
			c0-5.771-4.679-10.449-10.449-10.449H20.898v-25.962h57.321c5.77,0,10.449-4.678,10.449-10.449
			c0-5.771-4.679-10.449-10.449-10.449H20.898v-28.25h127.478V179.722z M296.763,58.514H428.4V303.02h-79.404V179.722
			c0-5.771-4.679-10.449-10.449-10.449h-41.784V58.514z M277.943,422.03h-77.095v-8.337h77.095V422.03z M277.943,357.366h-77.311
			v-8.337h77.311V357.366z M277.943,313.469v14.661h-87.76c-5.77,0-10.449,4.678-10.449,10.449v29.235
			c0,5.771,4.679,10.449,10.449,10.449h87.76v14.53h-87.544c-5.77,0-10.449,4.678-10.449,10.449v29.235
			c0,5.771,4.679,10.449,10.449,10.449h87.544v48.175H169.273V190.171h158.824V303.02h-39.706
			C282.622,303.02,277.943,307.698,277.943,313.469z M368.86,491.102h-30.314h-5.257v-35.437h35.57V491.102z M467.047,491.102
			h-35.57v-35.437h35.57V491.102z M491.102,491.102h-3.157v-45.886c0-5.771-4.679-10.449-10.449-10.449h-56.468
			c-5.77,0-10.449,4.678-10.449,10.449v45.886h-20.822v-45.886c0-5.771-4.679-10.449-10.449-10.449H322.84
			c-5.77,0-10.449,4.678-10.449,10.449v45.886h-13.55V323.918h192.261V491.102z"/>
	</g>
</g>
<g>
	<g>
		<path d="M379.309,341.747h-56.468c-5.77,0-10.449,4.678-10.449,10.449v56.511c0,5.771,4.679,10.449,10.449,10.449
			c5.77,0,10.449-4.678,10.449-10.449v-46.062h35.57v11.609c0,5.771,4.679,10.449,10.449,10.449c5.77,0,10.449-4.678,10.449-10.449
			v-22.058C389.758,346.425,385.079,341.747,379.309,341.747z"/>
	</g>
</g>
<g>
	<g>
		<path d="M378.068,397.967c-5.77,0-10.449,4.678-10.449,10.449v0.292c0,5.771,4.679,10.449,10.449,10.449
			c5.77,0,10.449-4.678,10.449-10.449v-0.292C388.517,402.645,383.839,397.967,378.068,397.967z"/>
	</g>
</g>
<g>
	<g>
		<path d="M477.497,341.747h-56.468c-5.771,0-10.449,4.678-10.449,10.449v56.511c0,5.771,4.679,10.449,10.449,10.449
			c5.77,0,10.449-4.678,10.449-10.449v-46.062h35.57v11.609c0,5.771,4.679,10.449,10.449,10.449c5.77,0,10.449-4.678,10.449-10.449
			v-22.058C487.946,346.425,483.267,341.747,477.497,341.747z"/>
	</g>
</g>
<g>
	<g>
		<path d="M476.256,397.967c-5.77,0-10.449,4.678-10.449,10.449v0.292c0,5.771,4.679,10.449,10.449,10.449
			c5.77,0,10.449-4.678,10.449-10.449v-0.292C486.705,402.645,482.026,397.967,476.256,397.967z"/>
	</g>
</g>
<g>
	<g>
		<path d="M326.009,88.303c-5.77,0-10.449,4.678-10.449,10.449v16.718c0,5.771,4.679,10.449,10.449,10.449
			s10.449-4.678,10.449-10.449V98.752C336.458,92.981,331.779,88.303,326.009,88.303z"/>
	</g>
</g>
<g>
	<g>
		<path d="M362.581,88.303c-5.77,0-10.449,4.678-10.449,10.449v16.718c0,5.771,4.679,10.449,10.449,10.449
			c5.77,0,10.449-4.678,10.449-10.449V98.752C373.03,92.981,368.351,88.303,362.581,88.303z"/>
	</g>
</g>
<g>
	<g>
		<path d="M399.152,88.303c-5.77,0-10.449,4.678-10.449,10.449v16.718c0,5.771,4.679,10.449,10.449,10.449
			c5.77,0,10.449-4.678,10.449-10.449V98.752C409.601,92.981,404.922,88.303,399.152,88.303z"/>
	</g>
</g>
<g>
	<g>
		<path d="M399.152,152.555c-5.77,0-10.449,4.678-10.449,10.449v16.718c0,5.771,4.679,10.449,10.449,10.449
			c5.77,0,10.449-4.678,10.449-10.449v-16.718C409.601,157.233,404.922,152.555,399.152,152.555z"/>
	</g>
</g>
<g>
	<g>
		<path d="M399.152,218.384c-5.77,0-10.449,4.678-10.449,10.449v16.718c0,5.771,4.679,10.449,10.449,10.449
			c5.77,0,10.449-4.678,10.449-10.449v-16.718C409.601,223.062,404.922,218.384,399.152,218.384z"/>
	</g>
</g>
<g>
	<g>
		<path d="M307.19,197.508H190.183c-5.77,0-10.449,4.678-10.449,10.449v29.235c0,5.771,4.678,10.449,10.449,10.449H307.19
			c5.77,0,10.449-4.678,10.449-10.449v-29.235C317.639,202.186,312.959,197.508,307.19,197.508z M296.741,226.743h-96.109v-8.337
			h96.109V226.743z"/>
	</g>
</g>
<g>
	<g>
		<path d="M307.19,262.531H190.183c-5.77,0-10.449,4.678-10.449,10.449v29.235c0,5.771,4.678,10.449,10.449,10.449h61.985
			c5.77,0,10.449-4.678,10.449-10.449s-4.679-10.449-10.449-10.449h-51.536v-8.337h96.109v0.958c0,5.771,4.679,10.449,10.449,10.449
			s10.449-4.678,10.449-10.449V272.98C317.639,267.209,312.96,262.531,307.19,262.531z"/>
	</g>
</g>
<g>
</g>
<g>
</g>
<g>
</g>
<g>
</g>
<g>
</g>
<g>
</g>
<g>
</g>
<g>
</g>
<g>
</g>
<g>
</g>
<g>
</g>
<g>
</g>
<g>
</g>
<g>
</g>
<g>
</g>
</svg>
