<svg xmlns="http://www.w3.org/2000/svg" xmlns:xlink="http://www.w3.org/1999/xlink" x="0px" y="0px"
	 viewBox="0 0 512 512" enable-background="new 0 0 512 512" xml:space="preserve" height="50px" width="50px">
	<path fill="none" d="M156.3,86.5c5.5,0,10-4.5,10-10V30c0-5.5-4.5-10-10-10s-10,4.5-10,10v46.5C146.3,82,150.8,86.5,156.3,86.5z"/>
	<path fill="none" d="M273.9,202.5c-49.8,0-90.4,40.6-90.4,90.4c0,49.8,40.6,90.4,90.4,90.4c49.8,0,90.4-40.6,90.4-90.4
		C364.3,243.1,323.7,202.5,273.9,202.5z M317.8,277.5l-48.2,48.2c-2.3,2.3-5.4,3.6-8.6,3.6s-6.3-1.3-8.6-3.6l-22.2-22.2
		c-4.8-4.7-4.8-12.4,0-17.2c4.7-4.8,12.4-4.8,17.2,0l13.5,13.5l39.6-39.6c4.7-4.8,12.4-4.8,17.2,0
		C322.4,264.9,322.4,272.6,317.8,277.5z"/>
	<path fill="none" d="M462,64h-47.7v12.5c0,16.5-13.5,30-30,30s-30-13.5-30-30V64h-168v12.5c0,16.5-13.5,30-30,30s-30-13.5-30-30
		V63.6c-0.9,0.3-1.8,0.4-2.7,0.4H83.8c-16.5,0-30,13.5-30,30v33h360.5c5.5,0,10,4.5,10,10s-4.5,10-10,10H53.8v34.1v83.2v173.8h190
		c5.5,0,10,4.5,10,10s-4.5,10-10,10H20V474c0,9.9,8.1,18,18,18h402.5c-2.9-5.4-4.5-11.5-4.5-18v-15.9H329.7c-5.5,0-10-4.5-10-10
		s4.5-10,10-10H446c5.5,0,10,4.5,10,10V474c0,9.9,8.1,18,18,18c9.9,0,18-8.1,18-18v-61.1v0V301.4V152.9V94C492,77.5,478.5,64,462,64
		z M298.6,455.2c-1.9,1.8-4.4,2.9-7.1,2.9s-5.2-1-7.1-2.9c-1.8-1.9-2.9-4.5-2.9-7.1c0-2.7,1-5.2,2.9-7.1c1.9-1.8,4.4-2.9,7.1-2.9
		s5.2,1,7.1,2.9c1.9,1.9,3,4.5,2.9,7.1C301.5,450.7,300.5,453.3,298.6,455.2z M273.9,403.3c-60.9,0-110.4-49.5-110.4-110.4
		c0-60.9,49.5-110.4,110.4-110.4c60.9,0,110.4,49.5,110.4,110.4C384.3,353.8,334.8,403.3,273.9,403.3z M468.3,144.1
		c-1.9,1.8-4.5,2.9-7.1,2.9c-2.7,0-5.3-1-7.1-2.9c-1.8-1.9-2.9-4.4-2.9-7.1s1-5.2,2.9-7.1c1.9-1.8,4.5-2.9,7.1-2.9
		c2.7,0,5.2,1,7.1,2.9c1.9,1.9,2.9,4.4,2.9,7.1S470.2,142.2,468.3,144.1z"/>
	<path fill="none" d="M384.3,86.5c5.5,0,10-4.5,10-10V30c0-5.5-4.5-10-10-10s-10,4.5-10,10v46.5C374.3,82,378.8,86.5,384.3,86.5z"/>
	<path d="M461.2,127c-2.6,0-5.2,1.1-7.1,2.9c-1.9,1.9-2.9,4.4-2.9,7.1s1.1,5.2,2.9,7.1c1.8,1.9,4.4,2.9,7.1,2.9
		c2.6,0,5.2-1.1,7.1-2.9c1.9-1.9,2.9-4.4,2.9-7.1s-1-5.2-2.9-7.1C466.4,128,463.9,127,461.2,127z"/>
	<path d="M291.5,438.1c-2.7,0-5.2,1.1-7.1,2.9c-1.9,1.9-2.9,4.4-2.9,7.1c0,2.6,1.1,5.2,2.9,7.1c1.9,1.9,4.4,2.9,7.1,2.9
		s5.2-1.1,7.1-2.9c1.9-1.9,2.9-4.5,2.9-7.1c0.1-2.6-1-5.2-2.9-7.1C296.7,439.1,294.2,438.1,291.5,438.1z"/>
	<path d="M462,44h-47.7V30c0-16.5-13.5-30-30-30s-30,13.5-30,30v14h-168V30c0-16.5-13.5-30-30-30s-30,13.5-30,30v14.4
		c-0.8-0.2-1.7-0.4-2.7-0.4H83.8c-27.6,0-50,22.4-50,50v87.2v83.1v1.7c-0.1-0.1-0.1-0.1-0.2-0.2v172.3H10c-5.5,0-10,4.5-10,10V474
		c0,21,17,38,38,38h436c21,0,38-17,38-38v-61.5v-97.7v-162V94C512,66.4,489.6,44,462,44z M374.3,30c0-5.5,4.5-10,10-10s10,4.5,10,10
		v46.5c0,5.5-4.5,10-10,10s-10-4.5-10-10V30z M146.3,30c0-5.5,4.5-10,10-10s10,4.5,10,10v46.5c0,5.5-4.5,10-10,10s-10-4.5-10-10V30z
		 M492,152.9v148.5v111.5v0V474c0,9.9-8.1,18-18,18c-9.9,0-18-8.1-18-18v-25.9c0-5.5-4.5-10-10-10H329.7c-5.5,0-10,4.5-10,10
		s4.5,10,10,10H436V474c0,6.5,1.6,12.6,4.5,18H38c-9.9,0-18-8.1-18-18v-15.9h223.8c5.5,0,10-4.5,10-10s-4.5-10-10-10h-190V264.3
		v-83.2V147h360.5c5.5,0,10-4.5,10-10s-4.5-10-10-10H53.8V94c0-16.5,13.5-30,30-30h39.8c0.9,0,1.8-0.1,2.7-0.4v12.9
		c0,16.5,13.5,30,30,30s30-13.5,30-30V64h168v12.5c0,16.5,13.5,30,30,30s30-13.5,30-30V64H462c16.5,0,30,13.5,30,30V152.9z"/>
	<path d="M300.5,260.2l-39.6,39.6l-13.5-13.5c-4.8-4.8-12.5-4.8-17.2,0c-4.8,4.8-4.8,12.5,0,17.2l22.2,22.2c2.3,2.3,5.4,3.6,8.6,3.6
		s6.3-1.3,8.6-3.6l48.2-48.2c4.6-4.9,4.6-12.6-0.1-17.3C312.9,255.4,305.2,255.4,300.5,260.2z"/>
	<path d="M273.9,182.5c-60.9,0-110.4,49.5-110.4,110.4c0,60.9,49.5,110.4,110.4,110.4c60.9,0,110.4-49.5,110.4-110.4
		C384.3,232,334.8,182.5,273.9,182.5z M273.9,383.3c-49.8,0-90.4-40.6-90.4-90.4c0-49.8,40.6-90.4,90.4-90.4
		c49.8,0,90.4,40.6,90.4,90.4C364.3,342.7,323.7,383.3,273.9,383.3z"/>
</svg>
