<svg xmlns="http://www.w3.org/2000/svg" xmlns:xlink="http://www.w3.org/1999/xlink" x="0px" y="0px"
	 viewBox="0 0 512 512" style="enable-background:new 0 0 512 512;" xml:space="preserve">
	<path d="M462,44h-47.7V30c0-16.5-13.5-30-30-30s-30,13.5-30,30v14h-168V30c0-16.5-13.5-30-30-30s-30,13.5-30,30v14.4
		c-0.8-0.2-1.7-0.4-2.7-0.4H83.8c-27.6,0-50,22.4-50,50v38.1c5.7-5.1,11.9-9.3,19.5-11.1c0.2,0,0.3-0.1,0.5-0.1V94
		c0-16.5,13.5-30,30-30h39.8c0.9,0,1.8-0.1,2.7-0.4v12.9c0,16.5,13.5,30,30,30s30-13.5,30-30V64h168v12.5c0,16.5,13.5,30,30,30
		s30-13.5,30-30V64H462c16.5,0,30,13.5,30,30v58.9c6.7,0.8,13.4,0.5,20-0.1V94C512,66.4,489.6,44,462,44z M166.3,76.5
		c0,5.5-4.5,10-10,10s-10-4.5-10-10V30c0-5.5,4.5-10,10-10s10,4.5,10,10V76.5z M394.3,76.5c0,5.5-4.5,10-10,10s-10-4.5-10-10V30
		c0-5.5,4.5-10,10-10s10,4.5,10,10V76.5z"/>
	<path d="M512,152.8c-6.6,0.6-13.3,0.9-20,0.1v260c6.6-0.2,13.3-0.3,20-0.4V152.8z"/>
	<path d="M33.6,444.5c6.6-0.2,13.3-0.3,20-0.4V279.6c-7.7-1-14.1-8.2-20-13.8V444.5z"/>
	<path d="M492,412.9V474c0,9.9-8.1,18-18,18s-18-8.1-18-18v-25.9c0-5.5-4.5-10-10-10H329.7c-5.5,0-10,4.5-10,10s4.5,10,10,10H436
		V474c0,6.5,1.6,12.6,4.5,18H38c-9.9,0-18-8.1-18-18v-15.9h223.8c5.5,0,10-4.5,10-10s-4.5-10-10-10H10c-5.5,0-10,4.5-10,10V474
		c0,21,17,38,38,38h436c21,0,38-17,38-38v-61.5C505.3,412.6,498.6,412.7,492,412.9z"/>
	<path d="M146.1,147h268.2c5.5,0,10-4.5,10-10s-4.5-10-10-10H120C129.9,131.6,138.8,138.2,146.1,147z"/>

			<path d="M468.3,129.9c-1.9-1.9-4.4-2.9-7.1-2.9c-2.6,0-5.2,1.1-7.1,2.9c-1.9,1.9-2.9,4.4-2.9,7.1s1.1,5.2,2.9,7.1
				s4.4,2.9,7.1,2.9c2.6,0,5.2-1.1,7.1-2.9c1.9-1.9,2.9-4.4,2.9-7.1S470.2,131.8,468.3,129.9z"/>

			<path d="M298.6,441c-1.9-1.9-4.4-2.9-7.1-2.9s-5.2,1.1-7.1,2.9c-1.9,1.9-2.9,4.4-2.9,7.1c0,2.6,1.1,5.2,2.9,7.1
				c1.9,1.9,4.4,2.9,7.1,2.9s5.2-1.1,7.1-2.9c1.9-1.9,2.9-4.5,2.9-7.1C301.6,445.5,300.5,442.9,298.6,441z"/>

	<path d="M53.8,181.1c-6.6,0.6-13.3,0.9-20,0.1v260c6.6-0.2,13.3-0.3,20-0.4V181.1z"/>
	<path d="M512,94c0-27.6-22.4-50-50-50h-47.7V30c0-16.5-13.5-30-30-30s-30,13.5-30,30v14h-168V30c0-16.5-13.5-30-30-30
		s-30,13.5-30,30v14.4c-0.8-0.2-1.7-0.4-2.7-0.4H83.8c-27.6,0-50,22.4-50,50v170.3c0,5.5,4.5,10,10,10s10-4.5,10-10V147h360.5
		c5.5,0,10-4.5,10-10s-4.5-10-10-10H53.8V94c0-16.5,13.5-30,30-30h39.8c0.9,0,1.8-0.1,2.7-0.4v12.9c0,16.5,13.5,30,30,30
		s30-13.5,30-30V64h168v12.5c0,16.5,13.5,30,30,30s30-13.5,30-30V64H462c16.5,0,30,13.5,30,30v207.4c7.4,3.2,14.1,7.8,20,13.4V94z
		 M166.3,76.5c0,5.5-4.5,10-10,10s-10-4.5-10-10V30c0-5.5,4.5-10,10-10s10,4.5,10,10V76.5z M394.3,76.5c0,5.5-4.5,10-10,10
		s-10-4.5-10-10V30c0-5.5,4.5-10,10-10s10,4.5,10,10V76.5z"/>
	<path d="M492,455.2V474c0,9.9-8.1,18-18,18s-18-8.1-18-18v-16.1c-6.3-0.8-12.6-2.3-18.9-4.4c-8.6-2.3-14.1-10.1-21.3-15.3h-86.1
		c-5.5,0-10,4.5-10,10s4.5,10,10,10H436V474c0,6.5,1.6,12.6,4.5,18H38c-9.9,0-18-8.1-18-18v-15.9h223.8c5.5,0,10-4.5,10-10
		s-4.5-10-10-10H10c-5.5,0-10,4.5-10,10V474c0,21,17,38,38,38h436c21,0,38-17,38-38v-32.1C506.3,448,499.6,452.8,492,455.2z"/>

			<path d="M468.3,129.9c-1.9-1.9-4.4-2.9-7.1-2.9c-2.6,0-5.2,1.1-7.1,2.9c-1.9,1.9-2.9,4.4-2.9,7.1s1.1,5.2,2.9,7.1
				s4.4,2.9,7.1,2.9c2.6,0,5.2-1.1,7.1-2.9c1.9-1.9,2.9-4.4,2.9-7.1S470.2,131.8,468.3,129.9z"/>

			<path d="M298.6,441.1c-1.9-1.9-4.4-2.9-7.1-2.9s-5.2,1.1-7.1,2.9c-1.9,1.9-2.9,4.4-2.9,7.1c0,2.6,1.1,5.2,2.9,7.1
				c1.9,1.9,4.4,2.9,7.1,2.9s5.2-1.1,7.1-2.9c1.9-1.9,2.9-4.5,2.9-7.1C301.6,445.5,300.5,442.9,298.6,441.1z"/>

	<circle fill="none" stroke="#afafaf" stroke-width="20" stroke-miterlimit="10" cx="273.9" cy="292.9" r="100.4"/>
		<path d="M238.5,331l-2.6-2.6c-3.3-3.3-3.3-8.7,0-12.1l61.4-61.4c3.3-3.3,8.7-3.3,12.1,0l2.6,2.6c3.3,3.3,3.3,8.7,0,12.1L250.6,331
			C247.3,334.3,241.8,334.3,238.5,331z"/>
		<path d="M235.9,257.5l2.6-2.6c3.3-3.3,8.7-3.3,12.1,0l61.4,61.4c3.3,3.3,3.3,8.7,0,12.1l-2.6,2.6c-3.3,3.3-8.7,3.3-12.1,0
			l-61.4-61.4C232.6,266.3,232.6,260.8,235.9,257.5z"/>
</svg>
