<svg width="36" height="14" viewBox="0 0 36 14" fill="none" xmlns="http://www.w3.org/2000/svg">
<path d="M26.6 10.8C26.6 10.9 26.6 11 26.6 11C26.7 12.4 27.9 13.4 29.3 13.4C30.7 13.4 31.8 12.4 32 11.1C32 11 32 10.9 32 10.8C32 9.3 30.8 8.10001 29.3 8.10001C27.8 8.10001 26.6 9.3 26.6 10.8ZM30.9 10.6H30.1C30.1 10.5 30 10.4 30 10.4L30.5 9.90001C30.8 10 30.9 10.3 30.9 10.6ZM30.6 11.8L30.1 11.3C30.1 11.2 30.2 11.2 30.2 11.1H31C30.9 11.3 30.8 11.6 30.6 11.8ZM29.5 11.7C29.6 11.7 29.7 11.6 29.7 11.6L30.2 12.1C30 12.3 29.7 12.4 29.4 12.4V11.7H29.5ZM29.5 9.10001C29.8 9.10001 30.1 9.30001 30.3 9.40001L29.7 10C29.6 10 29.5 9.90001 29.5 9.90001V9.10001ZM29 9.10001V9.90001C28.9 9.90001 28.8 10 28.8 10L28.3 9.50001C28.5 9.30001 28.7 9.20001 29 9.10001ZM28.3 12.2L28.8 11.7C28.9 11.7 28.9 11.8 29 11.8V12.6C28.7 12.4 28.5 12.3 28.3 12.2ZM27.6 11H28.4C28.4 11.1 28.5 11.2 28.5 11.2L28 11.7C27.8 11.6 27.6 11.3 27.6 11ZM28.4 10.6H27.6C27.6 10.3 27.8 10 27.9 9.8L28.4 10.3C28.4 10.4 28.4 10.5 28.4 10.6Z"/>
<path d="M4.40002 10.8C4.40002 10.9 4.40002 11 4.40002 11C4.50002 12.4 5.70003 13.4 7.10003 13.4C8.50003 13.4 9.60003 12.4 9.80003 11.1C9.80003 11 9.80003 10.9 9.80003 10.8C9.80003 9.3 8.60003 8.10001 7.10003 8.10001C5.60003 8.10001 4.40002 9.3 4.40002 10.8ZM8.70002 10.6H7.90002C7.90002 10.5 7.80003 10.4 7.80003 10.4L8.30003 9.90001C8.50003 10 8.70002 10.3 8.70002 10.6ZM8.40002 11.8L7.90002 11.3C7.90002 11.2 8.00003 11.2 8.00003 11.1H8.80003C8.70003 11.3 8.50002 11.6 8.40002 11.8ZM7.30003 11.7C7.40003 11.7 7.50003 11.6 7.50003 11.6L8.00003 12.1C7.80003 12.3 7.50002 12.4 7.20002 12.4V11.7H7.30003ZM7.30003 9.10001C7.60003 9.10001 7.90003 9.30001 8.10003 9.40001L7.50003 10C7.40003 10 7.30003 9.90001 7.30003 9.90001C7.30003 9.90001 7.30003 9.10001 7.30003 9.10001ZM6.80003 9.90001C6.70003 9.90001 6.60003 10 6.60003 10L6.10003 9.50001C6.30003 9.30001 6.60002 9.20001 6.90002 9.20001C6.80002 9.10001 6.80003 9.90001 6.80003 9.90001ZM6.00003 12.2L6.50003 11.7C6.60003 11.7 6.60002 11.8 6.70002 11.8V12.6C6.50002 12.4 6.20003 12.3 6.00003 12.2ZM5.40002 11H6.20002C6.20002 11.1 6.30003 11.2 6.30003 11.2L5.80003 11.7C5.50003 11.6 5.40002 11.3 5.40002 11ZM6.10003 10.6H5.30003C5.30003 10.3 5.50003 10 5.60003 9.8L6.10003 10.3C6.20003 10.4 6.20003 10.5 6.10003 10.6Z"/>
<path d="M0 8.2C0 9.7 1 10.3 1 10.3L3.7 10.8H3.8C3.8 8.99999 5.2 7.6 7 7.6C8.8 7.6 10.2 8.99999 10.2 10.8C10.2 10.9 10.2 11.1 10.2 11.2V11.3L26.2 11.6C26.1 11.4 26.1 11.2 26.1 11C26.1 10.9 26.1 10.8 26.1 10.7C26.1 8.9 27.5 7.5 29.3 7.5C31.1 7.5 32.5 8.9 32.5 10.7C32.5 10.8 32.5 11 32.5 11.1C32.5 11.2 32.5 11.2 32.5 11.3C33.6 11.2 34.5 11 35 10.7C35.5 9.9 35.5 8.8 35.5 8.5C35.4 8.3 35.3 7.79999 35 6.89999C34.7 5.99999 28.1 4.6 27.5 4.6C25.3 3.7 21.5 1.8 20.6 1.5C15.6 -0.200005 10.4 1.2 9.3 1.5C8.1 1.8 4.8 3.2 3.9 3.4C3.3 3.6 2 3.8 1.2 3.9C0.900001 3.9 0.700001 4.2 0.700001 4.5V6.5C0.600001 6.7 0 7.2 0 8.2ZM15.7 1.7C15.7 1.7 20.5 1.8 22.8 3.9C22.8 3.9 22.3 4.1 22.4 5L16.4 4.79999L15.7 1.7ZM9.5 3.6L10.3 2.3C10.3 2.3 11.9 1.7 14.7 1.7L15.2 4.7L9.8 4.5L9.5 3.6ZM7.1 3.7C7.6 3.4 8.5 3 9.7 2.5L8.2 4.6H6.7C6.6 4.2 6.8 3.8 7.1 3.7Z"/>
</svg>
