<svg xmlns="http://www.w3.org/2000/svg" xmlns:xlink="http://www.w3.org/1999/xlink" x="0px" y="0px"
	 viewBox="0 0 488.1 488.1" style="enable-background:new 0 0 488.1 488.1;" xml:space="preserve" height="40px" width="40px">
		<path d="M451.3,311.5c0.3-1.3,0.5-2.6,0.7-4c0.3-2.2,0.5-4.4,0.5-6.6c0-26.8-21.8-48.6-48.6-48.6c-26.8,0-48.6,21.8-48.6,48.6
			c0,2.5,0.2,4.9,0.6,7.3c0.2,1.3,0.4,2.6,0.7,3.9c0.3,1.3,0.7,2.6,1.1,3.9c6.4,19.4,24.6,33.5,46.1,33.5c21.8,0,40.2-14.3,46.4-34
			C450.6,314.2,451,312.9,451.3,311.5z"/>
		<path d="M153.7,307.2c0.2-1.3,0.3-2.6,0.3-3.9c0-0.8,0.1-1.5,0.1-2.3c0-26.8-21.7-48.6-48.6-48.6c-25.7,0-46.6,19.9-48.4,45.1
			c-0.1,1.2-0.2,2.3-0.2,3.5c0,0.2,0,0.3,0,0.5c0,1.3,0.1,2.7,0.2,4c2.2,24.8,23,44.1,48.4,44.1c23.3,0,42.8-16.5,47.5-38.4
			C153.3,309.8,153.5,308.5,153.7,307.2z"/>
		<path d="M5.1,175.4l-5,53.4c-0.9,9.4,6.7,17.7,17,18.7c1.4,0.1,2.8,0.1,4.1-0.1c1.4-0.1,2.8-0.5,4.1-0.9c1.5-0.5,2.9-1.2,4.1-2
			c-2.2,20.9-0.2,44.8,20,51.2c2.6-28.7,26.8-51.2,56.2-51.2c31.1,0,56.4,25.3,56.4,56.4c0,0.9-0.1,1.8-0.1,2.6
			c57.5,2.2,127.5,3.9,186.1,4.5c-0.3-2.3-0.5-4.7-0.5-7.2c0-31.1,25.3-56.4,56.4-56.4c31.1,0,56.4,25.3,56.4,56.4
			c0,1.8-0.1,3.6-0.3,5.3c10.3-3.4,38-16,24.3-49.5c0,0-2.5-0.5-5.9-6.9c-3.4-6.4-19.6-29.9-19.6-29.9l-112.4-15.7
			c0,0-38.3-36.8-46.1-45.1c-7.9-8.3-72.1-20.6-127.6-20.6c-55.4,0-121.7,0-121.7,0l-5.4,4.4l7.9,5.4c0,0-10.3,19.6-10.3,49.1
			c0,0-1.4,0.9-3,2.5l2-21.1c0.2-2-0.1-4-0.6-5.8c-0.6-2-1.5-3.9-2.8-5.5c-3.1-4-7.8-6.8-13.5-7.3C15,159.2,6,166,5.1,175.4z"/>
</svg>
