<svg xmlns="http://www.w3.org/2000/svg" xmlns:xlink="http://www.w3.org/1999/xlink" x="0px" y="0px"
	 width="40px" height="40px" viewBox="0 0 470.918 470.917" style="enable-background:new 0 0 470.918 470.917;"
	 xml:space="preserve">
		<path d="M26.055,303.708c6.083,0.661,12.884,1.242,20.207,1.764c0.289-26.148,21.628-47.348,47.847-47.348
			c26.403,0,47.881,21.483,47.881,47.876c0,0.854-0.088,1.672-0.126,2.518c61.288,0.536,130.929-0.613,188.283-1.924
			c0-0.2-0.032-0.393-0.032-0.594c0-26.393,21.476-47.876,47.877-47.876c25.768,0,46.778,20.47,47.776,45.993
			c9.63-0.249,16.49-0.409,19.628-0.409c26.822,0,25.512,0.653,25.512-24.862c0-25.511-6.54-21.588-6.54-21.588
			c0-41.861-3.924-23.545-33.362-53.104c-29.446-29.547-111.875-69.875-111.875-69.875s-266.258-23.552-292.424,3.925
			C0.541,165.68,3.805,283.43,3.805,283.43C-11.894,307.635,26.055,303.708,26.055,303.708z"/>
		<path d="M94.108,265.974c-22.091,0-39.996,17.9-40.022,39.981c0,0.017,0,0.024,0,0.036c0,22.113,17.923,40.034,40.03,40.034
			c21.273,0,38.5-16.643,39.778-37.594c0.048-0.829,0.244-1.603,0.244-2.44C134.139,283.899,116.214,265.974,94.108,265.974z"/>
		<path d="M377.982,265.974c-22.101,0-40.026,17.925-40.026,40.025c0,0.148,0.041,0.269,0.041,0.409
			c0.229,21.909,18.013,39.626,39.978,39.626c22.109,0,40.034-17.922,40.034-40.035c0-0.572-0.145-1.102-0.168-1.671
			C416.943,283.017,399.519,265.974,377.982,265.974z"/>
</svg>
