<svg xmlns="http://www.w3.org/2000/svg" xmlns:xlink="http://www.w3.org/1999/xlink" x="0px" y="0px"
	 viewBox="0 0 870 870" style="enable-background:new 0 0 870 870;" xml:space="preserve" height="40px" width="40px">
	<path class="st0" d="M456.9,515.9c-1.4,0-2.9,0.1-4.3,0.3c-24.8,3.3-41.2,34.7-36.4,69.8c0.4,2.9,0.9,5.7,1.5,8.4
		c0.5,2.2,1.1,4.4,1.8,6.5c8,25.1,26.4,43.1,45.9,43.1c1.5,0,2.9-0.1,4.3-0.3c15-2,26.9-14.2,32.9-31.3c0.7-1.9,1.3-3.9,1.8-6
		c2.5-9.8,3.3-21,1.7-32.5C501.8,541.4,480.2,515.9,456.9,515.9z"/>
	<path class="st0" d="M131.6,499.6c-0.7,0-1.3,0-1.9,0.1c-14.1,1.9-23.1,24.8-19.8,49.9c0.1,0.8,0.2,1.6,0.3,2.4
		c0.4,2.2,0.8,4.4,1.3,6.4c4.9,19.8,16.6,34.2,28.6,34.2c0.7,0,1.3,0,1.9-0.1c6.6-0.9,12.4-6.4,16.2-15.4c1.5-3.6,2.6-7.6,3.4-11.8
		c0.4-2,0.6-4.1,0.8-6.2c0.4-5.3,0.2-10.9-0.5-16.6C158.7,518.5,145.3,499.6,131.6,499.6z"/>
	<path class="st0" d="M690.4,637.7c1.4,0,2.9-0.1,4.3-0.3c11.3-1.5,20.9-8.9,27.5-19.7l-59.6,7.4C670.7,633,680.5,637.7,690.4,637.7
		z"/>
	<path class="st0" d="M828,439.9c1.3,0,2.6-0.2,3.8-0.5c2.1-0.6,4-1.6,5.7-3c4.1-3.4,6.7-8.9,6.7-15v-52.1c0-7.9-4.3-14.6-10.3-17.3
		l0.7-0.1c-0.1-0.2-5.2-23.9-10.3-51.3c-6.2-33.6-28.7-34.8-31.8-34.8h-16.3l0-0.1c-4.3-5.1-10.3-9-16.2-10l-165.7-28.2
		c-5.2-0.9-12.1-1.4-19.5-1.4c-7.5,0-14.9,0.5-20.1,1.4l-494,85.8c-9.7,1.7-18.7,11.5-19.4,21.3l-15.3,188c-0.1,1.1-0.1,2.3,0.1,3.4
		c0.9,8.3,7.5,15.5,16,16.7l61.4,8.5l0.5,0.1c0-0.2-0.1-0.4-0.1-0.6c-0.5-3.4-0.7-6.7-0.8-9.9v-0.1c-0.5-24.9,9.9-44.7,25.9-46.8
		c0.9-0.1,1.8-0.2,2.8-0.2c17.1,0,32.7,20.8,36.5,48.4c0.6,4.7,0.9,9.3,0.7,13.8c0,1.5-0.1,3-0.2,4.5l0.2,0l241.6,33.4l0.8,0.1
		c-0.5-2.2-0.8-4.4-1.1-6.7c-0.5-3.6-0.8-7.2-0.8-10.7c-0.8-34,17-62.7,42.6-66.1c1.7-0.2,3.4-0.4,5.1-0.4
		c26.7,0,50.6,27.2,55.4,63.4c0.7,5,0.9,9.9,0.8,14.7c-0.1,6.8-1,13.4-2.5,19.5l0.9,0.1l16.9,2.3l0.1,0l-3.9-151.6l-480.7,1.5h-0.4
		l5.7-67l478.1-30.1l0,0.5l3.5,95.1l3.9,152.4l66.5,9.2l21.7,2.4V452.7l-23.6-94.1l-5.9-24.4L50.3,383.8l-0.4,0l4.5-52.6l469.3-67
		l2.6,69.8l71.9-6.6l31,127.2v168c2.2,0.1,4.5,0.1,6.8,0.1c7,0,13.6-0.3,18.5-0.9l4.8-0.6l65.5-8.1l105.5-13.1
		c4.6-0.6,8.5-2.9,11.1-6.5c1.5-2.1,2.5-4.5,2.8-7c0.2-1.8,0.2-3.7-0.2-5.5l-1.3-6.4l-1.2-6.1l-2.7-10.6l-14,4.2l-3.3-18l-0.8-4.1
		l13.3-2l0.8-0.1l-5.4-29.2l-14.3-67.3l-1.1-4.9c2.6,2.1,5.9,3.3,9.3,3.3H828z M594,358.9l23.7,94.4V577
		c-49.2-6.8-63.7-100.9-66.1-118.8l-3.9-92.2l-0.2-4.2L594,358.9z M719.1,577.1l-44.9,2.9l-23.4-3.5l-3.6-3.5v-18.9h3.1
		c1.4,0,13.4-1.9,23.9-3.6l0.3-0.1l41.8-1l3.3,27.5L719.1,577.1z M810.3,586.4l-63,7.5l-2-16l-0.5-4.1l61.9-6.1l4.6,18.6
		L810.3,586.4z M813.8,503.5l-0.8,0l-117.9,6.1c-21.3,0-42.4-16.9-46.9-37.7l-40.5-183.2c-0.5-2-0.7-3.9-0.8-5.9
		c-0.1-2-0.1-3.9,0.1-5.7h19l-0.2,0l0.4,0c1.6,0.1,10.1,1.8,13.4,19.7c4,21.9,8.2,41.5,9.7,48.8c-0.3,0.1-0.5,0.3-0.8,0.5
		c-4.9,3.2-8.2,9.2-8.2,16.1v45.3c0,0,0,1.3,0,3.3c0.1,4.7,0.9,13.1,4.3,16.1c3,3.7,7.3,6,12,6h4.8c9,0,16.3-8.3,16.3-18.6v-52.1
		c0-7.9-4.3-14.6-10.4-17.3l0.7-0.1c0-0.2-5.2-23.9-10.3-51.3c-3.9-21.2-14.4-29.5-22.3-32.8c-1.7-0.9-4-1.4-6.3-1.8
		c-5.2-0.7-10.9-0.3-10.9-0.3c4.3-2.7,9.6-4.2,15.5-4.2c1.7,0,3.6,0.1,5.4,0.4L769,271.6L813.8,503.5z M815,353.1
		c-4.9,3.2-8.2,9.2-8.2,16.1v34.6l-24.5-115.4l-0.9-4.2h11.1l-0.2,0l0.4,0c0.3,0,0.7,0.1,1.3,0.2c1.8,0.5,4.9,2.1,7.7,6.7
		c1.7,2.9,3.4,6.9,4.4,12.7c0.4,2,0.7,4,1.1,6c3.7,19.4,7.2,36.1,8.6,42.8C815.5,352.8,815.2,352.9,815,353.1z"/>
</svg>
