<?xml version="1.0" encoding="utf-8"?>
<!-- Generator: Adobe Illustrator 23.0.0, SVG Export Plug-In . SVG Version: 6.00 Build 0)  -->
<svg version="1.1" id="Capa_1" xmlns="http://www.w3.org/2000/svg" xmlns:xlink="http://www.w3.org/1999/xlink" x="0px" y="0px"
	 viewBox="0 0 99 99" style="enable-background:new 0 0 99 99;" xml:space="preserve">
<g>
	<g>
		<path d="M57,22.8c0,0.1,0,0.2,0,0.2c0.1,1.4,1.3,2.4,2.7,2.4c1.4,0,2.5-1,2.7-2.3c0-0.1,0-0.2,0-0.3c0-1.5-1.2-2.7-2.7-2.7
			C58.2,20.1,57,21.3,57,22.8z M61.3,22.6h-0.8c0-0.1-0.1-0.2-0.1-0.2l0.5-0.5C61.2,22,61.3,22.3,61.3,22.6z M61,23.8l-0.5-0.5
			c0-0.1,0.1-0.1,0.1-0.2h0.8C61.3,23.3,61.2,23.6,61,23.8z M59.9,23.7c0.1,0,0.2-0.1,0.2-0.1l0.5,0.5c-0.2,0.2-0.5,0.3-0.8,0.3
			V23.7z M59.9,21.1c0.3,0,0.6,0.2,0.8,0.3L60.1,22c-0.1,0-0.2-0.1-0.2-0.1V21.1z M59.4,21.1l0,0.8c-0.1,0-0.2,0.1-0.2,0.1l-0.5-0.5
			C58.9,21.3,59.1,21.2,59.4,21.1L59.4,21.1z M58.7,24.2l0.5-0.5c0.1,0,0.1,0.1,0.2,0.1v0.8C59.1,24.4,58.9,24.3,58.7,24.2z M58,23
			h0.8c0,0.1,0.1,0.2,0.1,0.2l-0.5,0.5C58.2,23.6,58,23.3,58,23z M58.8,22.6H58c0-0.3,0.2-0.6,0.3-0.8l0.5,0.5
			C58.8,22.4,58.8,22.5,58.8,22.6L58.8,22.6z"/>
		<path d="M34.8,22.8c0,0.1,0,0.2,0,0.2c0.1,1.4,1.3,2.4,2.7,2.4c1.4,0,2.5-1,2.7-2.3c0-0.1,0-0.2,0-0.3c0-1.5-1.2-2.7-2.7-2.7
			C36,20.1,34.8,21.3,34.8,22.8z M39.1,22.6h-0.8c0-0.1-0.1-0.2-0.1-0.2l0.5-0.5C38.9,22,39.1,22.3,39.1,22.6z M38.8,23.8l-0.5-0.5
			c0-0.1,0.1-0.1,0.1-0.2h0.8C39.1,23.3,38.9,23.6,38.8,23.8z M37.7,23.7c0.1,0,0.2-0.1,0.2-0.1l0.5,0.5c-0.2,0.2-0.5,0.3-0.8,0.3
			V23.7z M37.7,21.1c0.3,0,0.6,0.2,0.8,0.3L37.9,22c-0.1,0-0.2-0.1-0.2-0.1C37.7,21.9,37.7,21.1,37.7,21.1z M37.2,21.9
			C37.1,21.9,37,22,37,22l-0.5-0.5c0.2-0.2,0.5-0.3,0.8-0.3C37.2,21.1,37.2,21.9,37.2,21.9z M36.4,24.2l0.5-0.5
			c0.1,0,0.1,0.1,0.2,0.1v0.8C36.9,24.4,36.6,24.3,36.4,24.2z M35.8,23h0.8c0,0.1,0.1,0.2,0.1,0.2l-0.5,0.5
			C35.9,23.6,35.8,23.3,35.8,23z M36.5,22.6h-0.8c0-0.3,0.2-0.6,0.3-0.8l0.5,0.5C36.6,22.4,36.6,22.5,36.5,22.6L36.5,22.6z"/>
		<path d="M30.4,20.2c0,1.5,1,2.1,1,2.1l2.7,0.5l0.1,0c0,0,0,0,0,0c0-1.8,1.4-3.2,3.2-3.2s3.2,1.4,3.2,3.2c0,0.1,0,0.3,0,0.4
			c0,0,0,0.1,0,0.1l16,0.3c0,0,0,0,0,0c-0.1-0.2-0.1-0.4-0.1-0.6c0-0.1,0-0.2,0-0.3c0-1.8,1.4-3.2,3.2-3.2s3.2,1.4,3.2,3.2
			c0,0.1,0,0.3,0,0.4c0,0.1,0,0.1,0,0.2c1.1-0.1,2-0.3,2.5-0.6c0.5-0.8,0.5-1.9,0.5-2.2c-0.1-0.2-0.2-0.7-0.5-1.6
			c-0.3-0.9-6.9-2.3-7.5-2.3c-2.2-0.9-6-2.8-6.9-3.1c-5-1.7-10.2-0.3-11.3,0c-1.2,0.3-4.5,1.7-5.4,1.9c-0.6,0.2-1.9,0.4-2.7,0.5
			c-0.3,0-0.5,0.3-0.5,0.6v2C31,18.7,30.4,19.2,30.4,20.2z M46.1,13.7c0,0,4.8,0.1,7.1,2.2c0,0-0.5,0.2-0.4,1.1l-6-0.2L46.1,13.7z
			 M39.9,15.6l0.8-1.3c0,0,1.6-0.6,4.4-0.6l0.5,3l-5.4-0.2L39.9,15.6z M37.5,15.7c0.5-0.3,1.4-0.7,2.6-1.2l-1.5,2.1h-1.5
			C37,16.2,37.2,15.8,37.5,15.7z"/>
	</g>
</g>
<g>
	<g>
		<path d="M56.3,51.4c0,0.1,0,0.2,0,0.2c0.1,1.4,1.3,2.5,2.7,2.5c1.4,0,2.5-1,2.7-2.4c0-0.1,0-0.2,0-0.3c0-1.5-1.2-2.7-2.7-2.7
			C57.6,48.7,56.3,49.9,56.3,51.4z M60.7,51.2h-0.8c0-0.1-0.1-0.2-0.1-0.2l0.6-0.6C60.6,50.6,60.7,50.9,60.7,51.2z M60.4,52.5
			l-0.6-0.6c0-0.1,0.1-0.2,0.1-0.2h0.8C60.7,52,60.6,52.2,60.4,52.5z M59.3,52.3c0.1,0,0.2-0.1,0.2-0.1l0.5,0.5
			c-0.2,0.2-0.5,0.3-0.8,0.3V52.3z M59.3,49.8c0.3,0,0.6,0.2,0.8,0.3l-0.5,0.5c-0.1,0-0.2-0.1-0.2-0.1V49.8z M58.8,50.5
			c-0.1,0-0.2,0.1-0.2,0.1L58,50.1c0.2-0.2,0.5-0.3,0.8-0.3V50.5z M58,52.8l0.5-0.5c0.1,0,0.2,0.1,0.2,0.1v0.8
			C58.5,53.1,58.3,53,58,52.8z M57.4,51.7h0.8c0,0.1,0.1,0.2,0.1,0.2l-0.6,0.6C57.5,52.2,57.4,52,57.4,51.7z M57.4,51.2
			c0-0.3,0.2-0.6,0.3-0.8l0.6,0.6c0,0.1-0.1,0.2-0.1,0.2H57.4z"/>
		<path d="M33.2,51.4c0,0.1,0,0.2,0,0.2c0.1,1.4,1.3,2.5,2.7,2.5c1.4,0,2.5-1,2.7-2.4c0-0.1,0-0.2,0-0.3c0-1.5-1.2-2.7-2.7-2.7
			C34.4,48.7,33.2,49.9,33.2,51.4z M37.6,51.2h-0.8c0-0.1-0.1-0.2-0.1-0.2l0.6-0.6C37.4,50.6,37.5,50.9,37.6,51.2z M37.2,52.5
			l-0.6-0.6c0-0.1,0.1-0.2,0.1-0.2h0.8C37.5,52,37.4,52.2,37.2,52.5z M36.1,52.3c0.1,0,0.2-0.1,0.2-0.1l0.5,0.5
			c-0.2,0.2-0.5,0.3-0.8,0.3V52.3z M36.1,50.5l0-0.8c0.3,0,0.6,0.2,0.8,0.3l-0.5,0.5C36.3,50.6,36.2,50.6,36.1,50.5L36.1,50.5z
			 M35.7,50.5c-0.1,0-0.2,0.1-0.2,0.1l-0.5-0.5c0.2-0.2,0.5-0.3,0.8-0.3V50.5z M34.9,52.8l0.5-0.5c0.1,0,0.2,0.1,0.2,0.1v0.8
			C35.4,53.1,35.1,53,34.9,52.8z M34.2,51.7H35c0,0.1,0.1,0.2,0.1,0.2l-0.6,0.6C34.4,52.2,34.3,52,34.2,51.7z M34.2,51.2
			c0-0.3,0.2-0.6,0.3-0.8l0.6,0.6c0,0.1-0.1,0.2-0.1,0.2H34.2z"/>
		<path d="M30.4,50.3c0,0.6,0.4,1.2,1,1.3l1.5,0.3c0-0.1,0-0.1,0-0.2c0-0.1,0-0.2,0-0.3c0-1.7,1.4-3.1,3.1-3.1
			c1.7,0,3.1,1.4,3.1,3.1c0,0.1,0,0.3,0,0.4c0,0.1,0,0.2-0.1,0.3l17,0.5l0.3,0C56.1,52.3,56,52,56,51.7c0-0.1,0-0.2,0-0.3
			c0-1.7,1.4-3.1,3.1-3.1c1.7,0,3.1,1.4,3.1,3.1c0,0.1,0,0.3,0,0.4c0,0.1-0.1,0.3-0.1,0.4l2.6-0.4c0.5-0.1,1-0.5,1.1-1
			c0.1-0.5,0.2-1,0.2-1.4c-0.1-0.7-0.6-1-0.6-1c-1.1-2.7-7-3.6-7-3.6s-5.4-3.5-7.5-4.1c-3.1-0.8-13.1-0.4-16.3-0.3
			c-0.6,0-1.2,0.4-1.5,1L31,44.9c-0.3,0.5-0.5,1.1-0.5,1.7L30.4,50.3z M45.9,41.1v4.2l-6-0.2l0.4-3.9C42.1,41.1,44.1,41.1,45.9,41.1
			z M55,45v-1c0.5,0.3,0.9,0.6,1.2,0.9c0.1,0.1,0.2,0.3,0.1,0.4c-0.1,0.2-0.2,0.2-0.4,0.2l-0.6,0C55.4,45.5,55.2,45.3,55,45z
			 M52.7,45.5l-5.1-0.2v-4.2c1.2,0.1,2.2,0.2,2.7,0.3c1.2,0.4,2.5,1.1,3.8,1.9v1.2c0,0-0.1,0-0.1,0C52.9,44.6,52.7,45.5,52.7,45.5z
			 M33.1,43.2l0.7-1.4c0.2-0.3,0.5-0.5,0.8-0.5c0.7,0,2.2-0.1,3.9-0.2l-0.4,3.8L34,44.8c-0.4,0-0.7-0.2-0.9-0.5
			C32.9,43.9,32.9,43.5,33.1,43.2z"/>
	</g>
</g>
<g>
	<g>
		<path d="M56.6,82.6c0,0.1,0,0.2,0,0.3c0.2,1.9,1.8,3.4,3.7,3.4c1.9,0,3.5-1.4,3.7-3.3c0-0.2,0-0.3,0-0.5c0-2.1-1.7-3.7-3.7-3.7
			C58.2,78.9,56.6,80.6,56.6,82.6z M62,82.4h-0.8c0-0.1-0.1-0.2-0.1-0.2l0.6-0.6C61.9,81.8,62,82.1,62,82.4z M61.7,83.7l-0.6-0.6
			c0-0.1,0.1-0.2,0.1-0.2H62C62,83.2,61.9,83.4,61.7,83.7z M60.5,84.4l0-0.8c0.1,0,0.2-0.1,0.2-0.1l0.6,0.6
			C61.1,84.2,60.8,84.3,60.5,84.4L60.5,84.4z M60.5,80.9c0.3,0,0.6,0.2,0.8,0.3l-0.6,0.6c-0.1,0-0.2-0.1-0.2-0.1V80.9z M60,81.7
			c-0.1,0-0.2,0.1-0.2,0.1l-0.6-0.6c0.2-0.2,0.5-0.3,0.8-0.3C60,80.9,60,81.7,60,81.7z M59.2,84l0.6-0.6c0.1,0,0.2,0.1,0.2,0.1v0.8
			C59.7,84.3,59.5,84.2,59.2,84z M58.5,82.9h0.8c0,0.1,0.1,0.2,0.1,0.2l-0.6,0.6C58.7,83.5,58.6,83.2,58.5,82.9z M58.5,82.4
			c0-0.3,0.2-0.6,0.3-0.8l0.6,0.6c0,0.1-0.1,0.2-0.1,0.2H58.5z"/>
		<path d="M33.5,82.6c0,0.1,0,0.2,0,0.3c0.2,1.9,1.8,3.4,3.7,3.4c1.9,0,3.5-1.4,3.7-3.3c0-0.2,0-0.3,0-0.5c0-2.1-1.7-3.7-3.7-3.7
			C35.2,78.9,33.5,80.6,33.5,82.6z M39,82.4h-0.8c0-0.1-0.1-0.2-0.1-0.2l0.6-0.6C38.9,81.8,39,82.1,39,82.4z M38.7,83.7l-0.6-0.6
			c0-0.1,0.1-0.2,0.1-0.2H39C39,83.2,38.9,83.4,38.7,83.7z M37.5,84.4v-0.8c0.1,0,0.2-0.1,0.2-0.1l0.6,0.6
			C38.1,84.2,37.8,84.3,37.5,84.4L37.5,84.4z M37.5,80.9c0.3,0,0.6,0.2,0.8,0.3l-0.6,0.6c-0.1,0-0.2-0.1-0.2-0.1
			C37.5,81.7,37.5,80.9,37.5,80.9z M37,81.7c-0.1,0-0.2,0.1-0.2,0.1l-0.6-0.6c0.2-0.2,0.5-0.3,0.8-0.3C37,80.9,37,81.7,37,81.7z
			 M36.2,84l0.6-0.6c0.1,0,0.2,0.1,0.2,0.1v0.8C36.7,84.3,36.5,84.2,36.2,84z M35.5,82.9h0.8c0,0.1,0.1,0.2,0.1,0.2l-0.6,0.6
			C35.7,83.5,35.6,83.2,35.5,82.9z M35.5,82.4c0-0.3,0.2-0.6,0.3-0.8l0.6,0.6c0,0.1-0.1,0.2-0.1,0.2H35.5z"/>
		<path d="M38.3,70.4c0,0.3,0.2,0.5,0.5,0.5l10,0.1c0,0,0,0,0,0c0.3,0,0.5-0.2,0.5-0.5c0-0.3-0.2-0.5-0.5-0.5l-10-0.1
			C38.5,69.9,38.3,70.1,38.3,70.4z"/>
		<path d="M42.2,83.1c0,0.3,0.2,0.5,0.5,0.5h11.8c0.3,0,0.5-0.2,0.5-0.5c0-0.3-0.2-0.5-0.5-0.5H42.8C42.5,82.5,42.2,82.8,42.2,83.1z
			"/>
		<path d="M30.7,80l0.2,0.9c0.1,0.7,0.8,1.2,1.5,1.2H33l1.9-3.3c0.1-0.2,0.4-0.4,0.6-0.4h3.6c0.3,0,0.5,0.1,0.6,0.3l1.9,3.3h13.8
			l2.6-3.5c0.1-0.2,0.3-0.3,0.6-0.3h3.9c0.3,0,0.6,0.2,0.7,0.5l1.1,3.1h0.4c0.4,0,0.8-0.4,0.8-0.8v-1.2c0-0.4-0.3-0.7-0.7-0.7h-0.6
			v-0.7c0.1,0,0.2-0.1,0.3-0.2c0.1-0.1,0-0.2,0-0.3c0,0-0.3-0.6-0.5-0.7c-0.2-0.2-0.9-0.4-0.9-0.4l-0.4-0.6c-0.2-0.3-0.6-0.6-1-0.6
			L54,75.3l-2.3-3c-0.2-0.2-0.4-0.3-0.7-0.3l-17.6-0.3c-0.4,0-0.7,0.3-0.7,0.7l-0.6,6.9h-0.6c-0.2,0-0.4,0.1-0.5,0.2
			C30.7,79.6,30.6,79.8,30.7,80z M46.9,74.7v-1.8L51,73c0.1,0,0.2,0,0.2,0.1l1.2,1.6h-0.8V76h-4.1L46.9,74.7z M40,75.1v-2.3l5.3,0.1
			V76h-4.4L40,75.1z M33.7,76l0.2-3.1c0-0.1,0.1-0.1,0.1-0.1l4.6,0.1V76C38.6,76,33.7,76,33.7,76z"/>
	</g>
</g>
</svg>
