<svg enable-background="new 0 0 512.146 512.146" height="512" viewBox="0 0 512.146 512.146" width="512" xmlns="http://www.w3.org/2000/svg"><g><path d="m426.018 137.572 22.61-22.61-21.213-21.213-22.61 22.61c-28.996-25.45-63.482-42.764-100.657-50.783v-35.576h21.402v-30h-138.955v30h21.402v35.576c-37.175 8.019-71.66 25.334-100.657 50.783l-22.61-22.61-21.213 21.213 22.61 22.61c-36.144 41.182-55.896 93.436-55.896 148.732 0 60.324 23.492 117.038 66.147 159.694 42.656 42.656 99.37 66.147 159.694 66.147s117.038-23.492 159.693-66.147c42.656-42.656 66.147-99.37 66.147-159.694.002-55.296-19.75-107.55-55.894-148.732zm-169.945 315.807c-92.125 0-167.075-74.95-167.075-167.075s74.95-167.075 167.075-167.075 167.075 74.949 167.075 167.075-74.95 167.075-167.075 167.075z"/><path d="m256.073 271.162c-8.35 0-15.143 6.793-15.143 15.142 0 8.35 6.793 15.143 15.143 15.143s15.142-6.793 15.142-15.143c0-8.349-6.792-15.142-15.142-15.142z"/><path d="m367.471 271.304h24.852c-6.957-63.624-57.626-114.293-121.25-121.25v24.853h-30v-24.853c-63.624 6.957-114.294 57.627-121.251 121.25h24.852v30h-24.853c6.957 63.624 57.627 114.294 121.251 121.251v-24.853h30v24.853c63.624-6.957 114.293-57.627 121.25-121.251h-24.853v-30zm-111.398 60.143c-24.892 0-45.143-20.251-45.143-45.143 0-6.979 1.593-13.592 4.433-19.497l-47.743-47.744 21.213-21.213 47.743 47.744c5.905-2.84 12.518-4.433 19.497-4.433 24.892 0 45.142 20.25 45.142 45.142s-20.25 45.144-45.142 45.144z"/></g></svg>