<svg width="485" height="393" viewBox="0 0 485 393" fill="none" xmlns="http://www.w3.org/2000/svg">
<path d="M131.012 392.006H216.636V304.449H268.103V392.006H353.727V0H131.012V392.006ZM257.993 46.198H309.459V97.665H257.993V46.198ZM257.993 128.913H309.459V180.38H257.993V128.913ZM257.993 211.626H309.459V263.093H257.993V211.626ZM175.279 46.198H226.745V97.665H175.279V46.198ZM175.279 128.913H226.745V180.38H175.279V128.913ZM175.279 211.626H226.745V263.093H175.279V211.626Z" fill="black"/>
<path d="M373.719 35.1162V312.294H406.784V392.006H484.738V35.1162H373.719ZM444.437 274.643H397.58V227.787H444.436V274.643H444.437ZM444.437 199.337H397.58V152.482H444.436V199.337H444.437ZM444.437 124.032H397.58V77.1772H444.436V124.032H444.437Z" fill="black"/>
<path d="M0 392.006H77.954V312.294H111.019V35.1162H0V392.006ZM40.302 77.1772H87.158V124.032H40.302V77.1772ZM40.302 152.482H87.158V199.337H40.302V152.482ZM40.302 227.785H87.158V274.64H40.302V227.785Z" fill="black"/>
</svg>
