<?xml version="1.0" encoding="utf-8"?>
<!-- Generator: Adobe Illustrator 23.0.0, SVG Export Plug-In . SVG Version: 6.00 Build 0)  -->
<svg version="1.1" id="Capa_1" xmlns="http://www.w3.org/2000/svg" xmlns:xlink="http://www.w3.org/1999/xlink" x="0px" y="0px"
	 viewBox="0 0 20 20" style="enable-background:new 0 0 20 20;" xml:space="preserve">
<style type="text/css">
	.st0{fill:#01BAB4;}
</style>
<polygon class="st0" points="17.7,8.1 10,2.9 2.3,8.1 1.7,7.3 10,1.7 18.3,7.3 "/>
<g>
	<path class="st0" d="M15.5,12.4c-0.7-0.7-1.4-1.1-2.2-1.3c0,0.3,0,0.5-0.1,0.8c0,0.1-0.1,0.3-0.1,0.4c0.4,0.5,0.6,1,0.7,1.5
		c0.2,0.5,0.3,0.9,0.6,1.3c0.1,0.1,0.2,0.2,0.3,0.3c0.3,0.3,0.7,0.6,1.1,0.9c0.4,0.2,0.7,0.4,0.8,0.4l0,0
		C17.3,15.6,16.9,13.7,15.5,12.4z"/>
	<path class="st0" d="M16.1,17.3c-0.2-0.1-0.4-0.2-0.7-0.4c-0.4-0.3-0.8-0.6-1.2-1c-0.1-0.1-0.3-0.3-0.4-0.4
		c-0.4-0.5-0.5-1.1-0.7-1.5c-0.1-0.3-0.2-0.6-0.3-0.8c-0.4,0.9-1,1.7-1.7,2.4c0,0-0.1,0-0.1,0.1c0.2,0.2,0.3,0.4,0.5,0.6
		C13,17.7,15,18.1,16.1,17.3z"/>
	<path class="st0" d="M3.6,15.9L3.6,15.9c0.1,0,0.6-0.2,1.2-0.6c0.5-0.3,1.1-0.8,1.6-1.2c0.2-0.2,0.3-0.3,0.4-0.5
		c0.4-0.6,0.6-1.2,0.8-1.9c0.2-0.7,0.5-1.5,1.2-2.3l0.1-0.1c0.6-0.6,1.2-0.8,1.8-1c0.2-0.1,0.5-0.2,0.7-0.3
		c-0.5-0.3-1.1-0.4-1.7-0.4c-1.4,0-3.1,0.7-4.5,2.1C3.2,11.6,2.6,14.3,3.6,15.9z"/>
	<path class="st0" d="M12.6,12.8c0.1-0.3,0.2-0.5,0.3-0.8s0.1-0.7,0.1-1c0-0.9-0.2-1.7-0.7-2.3c-0.4,0.3-0.8,0.4-1.2,0.6
		c-0.6,0.2-1,0.4-1.4,0.7c0,0,0,0-0.1,0.1c-0.5,0.6-0.8,1.2-1,1.9s-0.4,1.5-1,2.2c-0.2,0.2-0.3,0.4-0.5,0.6c-0.5,0.5-1.2,1-1.7,1.4
		c-0.4,0.2-0.7,0.4-1,0.5c0.5,0.4,1.2,0.6,2,0.6c1.4,0,3.1-0.7,4.5-2.1l0,0C11.7,14.5,12.2,13.7,12.6,12.8z"/>
</g>
</svg>
