<?xml version="1.0" encoding="utf-8"?>
<!-- Generator: Adobe Illustrator 23.0.0, SVG Export Plug-In . SVG Version: 6.00 Build 0)  -->
<svg version="1.1" id="Capa_1" xmlns="http://www.w3.org/2000/svg" xmlns:xlink="http://www.w3.org/1999/xlink" x="0px" y="0px"
	 viewBox="0 0 20 20" style="enable-background:new 0 0 20 20;" xml:space="preserve">
<style type="text/css">
	.st0{fill:#01BAB4;}
	.st1{display:none;fill:#01BAB4;}
</style>
<g>
	<g>
		<rect x="6.7" y="8.2" class="st0" width="3.3" height="0.6"/>
		<path class="st0" d="M16.6,2H3.9C3.5,2,3.2,2.3,3.2,2.7v4.4c0,0.4,0.3,0.7,0.7,0.7h8.3c0.6,0,1,0.5,1,1v2.8v3.3V18h3.4
			c0.4,0,0.7-0.3,0.7-0.7V2.7C17.4,2.3,17,2,16.6,2z M10.3,5c-0.4,0-0.8-0.3-1-0.6H9.1c0,0,0,0-0.1,0S8.7,4.3,8.7,4.2
			c0-0.2,0.1-0.3,0.2-0.3h0.2c0-0.6,0.5-1,1.1-1s1.1,0.5,1.1,1.1C11.4,4.5,10.9,5,10.3,5z"/>
		<path class="st0" d="M3.9,15.9c-0.4,0-0.7,0.3-0.7,0.7v0.6c0,0.4,0.3,0.7,0.7,0.7h9v-2.4c-0.2,0.2-0.5,0.3-0.7,0.3H3.9V15.9z"/>
		<polygon class="st0" points="6.4,10 8.7,10 8.8,10.3 8.9,10.4 9.5,10.4 9.5,10.3 9.6,10 10.3,10 10.3,9.1 6.4,9.1 		"/>
		<path class="st0" d="M6.1,9.3L2.2,8.9c0,0-0.5,0.5,0,1.3l3.9-0.4C6.1,9.8,6.1,9.3,6.1,9.3z"/>
		<path class="st1" d="M6.5,15c-0.7,0.1-1.2,0.1-1.2,0.2c0,0.2,1.3,0.3,2.9,0.3s2.9-0.1,2.9-0.3c0-0.1-0.5-0.2-1.2-0.2
			c0.3-0.2,0.6-0.6,0.7-0.9c1.3-0.1,1.7-0.6,1.7-1.3c0-0.6-0.3-1.1-1.3-1.3c0-0.2,0-0.4,0-0.6H5.4C5.4,12.2,5.4,14.1,6.5,15z
			 M11.8,12.8c0,0.4,0,0.6-0.8,0.7c0.1-0.5,0.2-0.9,0.2-1.4C11.8,12.2,11.8,12.4,11.8,12.8z"/>
	</g>
</g>
</svg>
