<?xml version="1.0" encoding="utf-8"?>
<!-- Generator: Adobe Illustrator 23.0.0, SVG Export Plug-In . SVG Version: 6.00 Build 0)  -->
<svg version="1.1" id="Capa_1" xmlns="http://www.w3.org/2000/svg" xmlns:xlink="http://www.w3.org/1999/xlink" x="0px" y="0px"
	 viewBox="0 0 20 20" style="enable-background:new 0 0 20 20;" xml:space="preserve">
<style type="text/css">
	.st0{fill:#01BAB4;}
</style>
<g>
	<path class="st0" d="M7.5,7.6c0,0,0.1,0.1,0.2,0.1h0C7.8,7.7,8,7.5,8,7.4c0,0,0-0.1,0-0.1C7.8,6.5,7.8,5.9,8.2,5.5
		c0.4-0.5,0.6-1.2,0.5-1.8c-0.1-0.5-0.4-1-0.8-1.3c-0.1-0.1-0.2-0.1-0.3,0C7.4,2.4,7.3,2.5,7.4,2.7C7.6,3.5,7.4,4,7,4.8
		c-0.3,0.5-0.4,1-0.3,1.5C6.7,6.8,7,7.3,7.5,7.6z"/>
	<path class="st0" d="M10,7.5c0,0,0.1,0,0.2,0h0c0.2,0,0.3-0.1,0.3-0.3c0,0,0-0.1,0-0.1c-0.1-0.6-0.1-1.1,0.2-1.4
		c0.3-0.4,0.5-1,0.4-1.4c-0.1-0.4-0.3-0.8-0.7-1c-0.1-0.1-0.2-0.1-0.3,0C9.9,3.4,9.8,3.5,9.9,3.6c0.1,0.6,0,1-0.3,1.6
		C9.3,5.6,9.2,6,9.3,6.4C9.4,6.9,9.6,7.2,10,7.5z"/>
	<path class="st0" d="M17.8,9.4C17.6,9.1,17.3,9,17,9h-1.4c0-0.2,0-0.6-0.2-0.8C15.3,8.1,15.1,8,14.9,8H2.8C2.5,8,2.3,8.2,2.2,8.3
		C2,8.5,2,8.9,2,9.1c0.3,2,1.1,3.9,2,5.2c0.6,0.8,1.3,1.4,2,1.8c-0.1,0.2-0.2,0.3-0.2,0.5c0,0.5,0.4,1,1,1h4c0.5,0,1-0.4,1-1
		c0-0.2-0.1-0.4-0.2-0.5c0.6-0.3,1.1-0.8,1.6-1.4c2.4-0.2,4.4-2.5,4.8-4.5C18,10.2,18.1,9.7,17.8,9.4z M14.4,13
		c0.4-0.9,0.7-1.8,0.9-2.6h1.2C16.2,11.4,15.4,12.4,14.4,13z"/>
</g>
</svg>
