<svg xmlns="http://www.w3.org/2000/svg" xmlns:xlink="http://www.w3.org/1999/xlink" x="0px" y="0px"
	 viewBox="0 0 512 512" style="enable-background:new 0 0 512 512;" xml:space="preserve" height="50px" width="50px">
	<path d="M374.4,213.3c0-4.1-3.4-7.5-7.5-7.5h-10c-4.1,0-7.5,3.4-7.5,7.5s3.4,7.5,7.5,7.5h10C371.1,220.8,374.4,217.4,374.4,213.3z"/>
	<path d="M448,128.9c0,4.1,3.4,7.5,7.5,7.5h4v-8.8c0-2.1-0.2-4.2-0.6-6.2h-3.3C451.3,121.4,448,124.8,448,128.9z"/>
	<path d="M268.9,121.4h-26.4c0.9,5.1,1.2,10,1.3,15h23.8C267.7,131.4,266.8,126.3,268.9,121.4z"/>
	<path d="M508.3,288.1c3.7,0,3.7-0.6,3.7-12.5c0-18.7-7.4-35.7-19.4-48.2v-76.4c0-16.3-13.2-29.5-29.5-29.5h-4.2
		c0.4,2,0.6,4.1,0.6,6.2v8.8h3.6c8,0,14.5,6.5,14.5,14.5v64.5c-5.6-3.3-11.7-5.9-18.1-7.5v-71.5h-4c-4.1,0-7.5-3.4-7.5-7.5
		s3.4-7.5,7.5-7.5h3.3c-1-4.9-3.2-9.3-6.2-13l0,0c-3.1-4-10-9.1-15-9.9l0,0c-2.7-0.8-5.5-1.2-8.4-1.2H290.6
		c-16.7,0-30.3,13.6-30.3,30.3v78.1h-8.7v-78.1c0-16.7-13.6-30.3-30.3-30.3H82.7c-2.9,0-5.7,0.4-8.4,1.2l0,0
		c-5.7,1.6-11.1,4.7-15,9.9l0,0c-3,3.7-5.2,8.1-6.2,13h4.4c4.1,0,7.5,3.4,7.5,7.5s-3.4,7.5-7.5,7.5h-5v71.5
		c-6.4,1.6-12.5,4.2-18.1,7.5v-64.5c0-8,6.5-14.5,14.5-14.5h3.6v-8.8c0-2.1,0.2-4.2,0.6-6.2h-4.2c-16.3,0-29.5,13.2-29.5,29.5v76.4
		c-12,12.5-19.4,29.5-19.4,48.2c0,11.9-0.9,12.5,4.6,12.5c-5.1,3.2-4.6,8.9-4.6,15.3v93.2c0,10,8.1,18.1,18.1,18.1H39
		c10,0,18.1-8.1,18.1-18.1c0-19.8,16.1-35.9,35.9-35.9h326c19.8,0,35.9,16.1,35.9,35.9c0,10,8.1,18.1,18.1,18.1h20.9
		c10,0,18.1-8.1,18.1-18.1v-93.2C511.9,296.9,513.4,291.3,508.3,288.1z M67.4,127.6c0-8.4,6.9-15.3,15.3-15.3h138.6
		c8.4,0,15.3,6.9,15.3,15.3v78.1H69.7c-0.8,0-1.5,0-2.3,0.1V127.6z M496.9,396.6c0,1.7-1.4,3.1-3.1,3.1h-20.9
		c-1.7,0-3.1-1.4-3.1-3.1c0-28.1-22.8-50.9-50.9-50.9H93c-28.1,0-50.9,22.8-50.9,50.9c0,1.7-1.4,3.1-3.1,3.1H18
		c-1.7,0-3.1-1.4-3.1-3.1v-93.2c0-1.7,1.4-3.1,3.1-3.1h2.5c0,0,0,0,0,0c0,0,0,0,0,0h470.6h0h0h2.6c1.7,0,3.1,1.4,3.1,3.1V396.6z
		 M487.5,285.3H24.4c-7.5,0-9.5,1.3-9.5-9.8c0-30.2,24.6-54.8,54.8-54.8h287.2c-4.1,0-7.5-3.4-7.5-7.5s3.4-7.5,7.5-7.5h-81.6v-78.1
		c0-8.4,6.9-15.3,15.3-15.3h138.6c8.4,0,15.3,6.9,15.3,15.3v78.2c-0.8,0-1.5-0.1-2.3-0.1h-75.2c4.1,0,7.5,3.4,7.5,7.5
		s-3.4,7.5-7.5,7.5h75.2c30.2,0,54.8,24.6,54.8,54.8C496.9,286.7,492.2,285.3,487.5,285.3z"/>
	<path d="M52.4,136.4h5c4.1,0,7.5-3.4,7.5-7.5s-3.4-7.5-7.5-7.5h-4.4c-0.4,2-0.6,4.1-0.6,6.2V136.4z"/>
</svg>
