<?xml version="1.0" encoding="utf-8"?>
<!-- Generator: Adobe Illustrator 23.0.0, SVG Export Plug-In . SVG Version: 6.00 Build 0)  -->
<svg version="1.1" id="Capa_1" xmlns="http://www.w3.org/2000/svg" xmlns:xlink="http://www.w3.org/1999/xlink" x="0px" y="0px"
	 viewBox="0 0 20 20" style="enable-background:new 0 0 20 20;" xml:space="preserve">
<style type="text/css">
	.st0{fill:#01BAB4;}
</style>
<g>
	<g>
		<g>
			<path class="st0" d="M16,6h-2.7l0.6-2.7h2.8V2h-3.3c-0.3,0-0.6,0.2-0.7,0.5L11.8,6h-1.3c0.4,2.1-1.1,4.2-3.2,4.6
				c-0.2,0.1-0.5,0.1-0.7,0.1L8,17.5C8,17.8,8.3,18,8.6,18H14c0.3,0,0.6-0.2,0.7-0.5l2-10.7C16.7,6.4,16.4,6,16,6z M13.4,16.7H9.2
				L8.3,12h6L13.4,16.7z"/>
		</g>
	</g>
	<g>
		<g>
			<path class="st0" d="M7,3.3v3h3C9.8,4.7,8.5,3.5,7,3.3z"/>
		</g>
	</g>
	<g>
		<g>
			<path class="st0" d="M3.4,6.3h2.9V3.4C4.7,3.5,3.5,4.8,3.4,6.3z"/>
		</g>
	</g>
	<g>
		<g>
			<path class="st0" d="M7,7v3c1.5-0.2,2.8-1.4,2.9-3H7z"/>
		</g>
	</g>
	<g>
		<g>
			<path class="st0" d="M3.4,7c0.1,1.5,1.3,2.8,2.9,2.9V7H3.4z"/>
		</g>
	</g>
	<g>
		<g>
			<circle class="st0" cx="12.6" cy="14" r="0.7"/>
		</g>
	</g>
	<g>
		<g>
			<circle class="st0" cx="10.6" cy="15.3" r="0.7"/>
		</g>
	</g>
</g>
</svg>
