<?xml version="1.0" encoding="iso-8859-1"?>
<!-- Generator: Adobe Illustrator 19.0.0, SVG Export Plug-In . SVG Version: 6.00 Build 0)  -->
<svg version="1.1" id="Capa_1" xmlns="http://www.w3.org/2000/svg" xmlns:xlink="http://www.w3.org/1999/xlink" x="0px" y="0px"
	 viewBox="0 0 512 512" style="enable-background:new 0 0 512 512;" xml:space="preserve">
<g>
	<g>
		<path d="M427.346,24.758H251.003c-8.319,0-15.063,6.744-15.063,15.063v92.355h206.469V39.821
			C442.409,31.502,435.665,24.758,427.346,24.758z"/>
	</g>
</g>
<g>
	<g>
		<path d="M483.876,162.303H190.183V445.8h293.693c15.532,0,28.124-12.592,28.124-28.124V190.427
			C512,174.895,499.408,162.303,483.876,162.303z M281.226,411.764h-19.484c-8.319,0-15.063-6.744-15.063-15.063
			c0-8.319,6.744-15.063,15.063-15.063h19.484c8.319,0,15.063,6.744,15.063,15.063C296.289,405.02,289.545,411.764,281.226,411.764z
			 M281.226,365.461h-19.484c-8.319,0-15.063-6.744-15.063-15.063c0-8.319,6.744-15.063,15.063-15.063h19.484
			c8.319,0,15.063,6.744,15.063,15.063C296.289,358.717,289.545,365.461,281.226,365.461z M281.226,319.157h-19.484
			c-8.319,0-15.063-6.744-15.063-15.063c0-8.319,6.744-15.063,15.063-15.063h19.484c8.319,0,15.063,6.744,15.063,15.063
			C296.289,312.413,289.545,319.157,281.226,319.157z M348.916,411.764h-19.484c-8.319,0-15.063-6.744-15.063-15.063
			c0-8.319,6.744-15.063,15.063-15.063h19.484c8.319,0,15.063,6.744,15.063,15.063C363.979,405.02,357.235,411.764,348.916,411.764z
			 M348.916,365.461h-19.484c-8.319,0-15.063-6.744-15.063-15.063c0-8.319,6.744-15.063,15.063-15.063h19.484
			c8.319,0,15.063,6.744,15.063,15.063C363.979,358.717,357.235,365.461,348.916,365.461z M348.916,319.157h-19.484
			c-8.319,0-15.063-6.744-15.063-15.063c0-8.319,6.744-15.063,15.063-15.063h19.484c8.319,0,15.063,6.744,15.063,15.063
			C363.979,312.413,357.235,319.157,348.916,319.157z M416.606,411.764h-19.484c-8.319,0-15.063-6.744-15.063-15.063
			c0-8.319,6.744-15.063,15.063-15.063h19.484c8.319,0,15.063,6.744,15.063,15.063C431.669,405.02,424.925,411.764,416.606,411.764z
			 M416.606,365.461h-19.484c-8.319,0-15.063-6.744-15.063-15.063c0-8.319,6.744-15.063,15.063-15.063h19.484
			c8.319,0,15.063,6.744,15.063,15.063C431.669,358.717,424.925,365.461,416.606,365.461z M416.606,319.157h-19.484
			c-8.319,0-15.063-6.744-15.063-15.063c0-8.319,6.744-15.063,15.063-15.063h19.484c8.319,0,15.063,6.744,15.063,15.063
			C431.669,312.413,424.925,319.157,416.606,319.157z M416.606,244.499H261.742c-8.319,0-15.063-6.744-15.063-15.063
			c0-8.319,6.744-15.063,15.063-15.063h154.864c8.319,0,15.063,6.744,15.063,15.063
			C431.669,237.755,424.925,244.499,416.606,244.499z"/>
	</g>
</g>
<g>
	<g>
		<path d="M144.994,120.862h-71.68c-8.306,0-15.063,6.757-15.063,15.063v336.254c0,8.306,6.757,15.063,15.063,15.063h71.679
			c8.306,0,15.063-6.757,15.063-15.063V135.925h0.001C160.057,127.619,153.3,120.862,144.994,120.862z"/>
	</g>
</g>
<g>
	<g>
		<path d="M0,190.427v227.249C0,433.208,12.592,445.8,28.124,445.8V162.303C12.592,162.303,0,174.895,0,190.427z"/>
	</g>
</g>
<g>
</g>
<g>
</g>
<g>
</g>
<g>
</g>
<g>
</g>
<g>
</g>
<g>
</g>
<g>
</g>
<g>
</g>
<g>
</g>
<g>
</g>
<g>
</g>
<g>
</g>
<g>
</g>
<g>
</g>
</svg>
