<?xml version="1.0" encoding="iso-8859-1"?>
<svg version="1.1" id="Capa_1" xmlns="http://www.w3.org/2000/svg" xmlns:xlink="http://www.w3.org/1999/xlink" x="0px" y="0px"
	 viewBox="0 0 512 512" style="enable-background:new 0 0 512 512;" xml:space="preserve">
<g>
	<g>
		<path d="M467,92h-15V15c0-8.284-6.716-15-15-15H227c-8.284,0-15,6.716-15,15v77h-32.58c-6.192-17.458-22.865-30-42.42-30h-32
			c-19.555,0-36.228,12.542-42.42,30H45c-24.813,0-45,20.187-45,45v300c0,24.813,20.187,45,45,45h17.58
			c6.192,17.458,22.865,30,42.42,30h32c19.555,0,36.228-12.542,42.42-30H467c24.813,0,45-20.187,45-45V137
			C512,112.187,491.813,92,467,92z M60,452H45c-8.271,0-15-6.729-15-15V137c0-8.271,6.729-15,15-15h15V452z M152,467
			c0,8.271-6.729,15-15,15h-32c-8.271,0-15-6.729-15-15V107c0-8.271,6.729-15,15-15h32c8.271,0,15,6.729,15,15V467z M242,30h180v62
			H242V30z M482,437c0,8.271-6.729,15-15,15H182V122h285c8.271,0,15,6.729,15,15V437z"/>
	</g>
</g>
<g>
	<g>
		<path d="M257,392h-30c-8.284,0-15,6.716-15,15s6.716,15,15,15h30c8.284,0,15-6.716,15-15S265.284,392,257,392z"/>
	</g>
</g>
<g>
	<g>
		<path d="M347,392h-30c-8.284,0-15,6.716-15,15s6.716,15,15,15h30c8.284,0,15-6.716,15-15S355.284,392,347,392z"/>
	</g>
</g>
<g>
	<g>
		<path d="M437,392h-30c-8.284,0-15,6.716-15,15s6.716,15,15,15h30c8.284,0,15-6.716,15-15S445.284,392,437,392z"/>
	</g>
</g>
<g>
	<g>
		<path d="M257,332h-30c-8.284,0-15,6.716-15,15s6.716,15,15,15h30c8.284,0,15-6.716,15-15S265.284,332,257,332z"/>
	</g>
</g>
<g>
	<g>
		<path d="M347,332h-30c-8.284,0-15,6.716-15,15s6.716,15,15,15h30c8.284,0,15-6.716,15-15S355.284,332,347,332z"/>
	</g>
</g>
<g>
	<g>
		<path d="M437,332h-30c-8.284,0-15,6.716-15,15s6.716,15,15,15h30c8.284,0,15-6.716,15-15S445.284,332,437,332z"/>
	</g>
</g>
<g>
	<g>
		<path d="M257,272h-30c-8.284,0-15,6.716-15,15s6.716,15,15,15h30c8.284,0,15-6.716,15-15S265.284,272,257,272z"/>
	</g>
</g>
<g>
	<g>
		<path d="M347,272h-30c-8.284,0-15,6.716-15,15s6.716,15,15,15h30c8.284,0,15-6.716,15-15S355.284,272,347,272z"/>
	</g>
</g>
<g>
	<g>
		<path d="M437,272h-30c-8.284,0-15,6.716-15,15s6.716,15,15,15h30c8.284,0,15-6.716,15-15S445.284,272,437,272z"/>
	</g>
</g>
<g>
	<g>
		<path d="M437,152H227c-8.284,0-15,6.716-15,15v60c0,8.284,6.716,15,15,15h210c8.284,0,15-6.716,15-15v-60
			C452,158.716,445.284,152,437,152z M422,212H242v-30h180V212z"/>
	</g>
</g>
<g>
</g>
<g>
</g>
<g>
</g>
<g>
</g>
<g>
</g>
<g>
</g>
<g>
</g>
<g>
</g>
<g>
</g>
<g>
</g>
<g>
</g>
<g>
</g>
<g>
</g>
<g>
</g>
<g>
</g>
</svg>
