<svg version="1.1" xmlns="http://www.w3.org/2000/svg" xmlns:xlink="http://www.w3.org/1999/xlink" x="0px" y="0px"
	 viewBox="0 0 512 512" style="enable-background:new 0 0 512 512;" xml:space="preserve">
		<path d="M437.02,74.98C388.667,26.629,324.38,0,256,0S123.333,26.629,74.98,74.98C26.629,123.332,0,187.619,0,255.999
			c0,68.381,26.629,132.668,74.98,181.02C123.334,485.371,187.621,512,256,512s132.666-26.629,181.02-74.981
			C485.371,388.667,512,324.38,512,255.999C512,187.619,485.371,123.332,437.02,74.98z M346,380.27h-30v-105H196v105h-30V131.73h30
			v113.54h120V131.73h30V380.27z"/>
</svg>
