<svg version="1.1" xmlns="http://www.w3.org/2000/svg" xmlns:xlink="http://www.w3.org/1999/xlink" x="0px" y="0px"
	 viewBox="0 0 512 512" style="enable-background:new 0 0 512 512;" xml:space="preserve">
		<path d="M437,331h-17.763c-6.213-17.422-22.707-30-42.237-30c-19.53,0-36.024,12.578-42.237,30H302c-16.538,0-30-13.462-30-30
			c0-16.538,13.462-30,30-30h105c4.856,0,9.96-3.276,11.997-6.006l72.041-97.035C504.749,149.678,512,127.91,512,105
			C512,47.109,464.891,0,407,0S302,47.109,302,105c0,22.91,7.251,44.678,20.962,62.944L377.007,241H302c-33.091,0-60,26.909-60,60
			s26.909,60,60,60h32.763c6.213,17.422,22.707,30,42.237,30c19.53,0,36.024-12.578,42.237-30H437c24.814,0,45,20.186,45,45
			c0,24.814-20.186,46-45,46H329.237c-6.213-17.422-22.707-30-42.237-30c-19.53,0-36.024,12.578-42.237,30H135l54.038-73.041
			C202.749,360.678,210,338.91,210,316c0-57.891-47.109-105-105-105S0,258.109,0,316c0,22.91,7.251,44.678,20.962,62.944
			c1.746,2.328,72.375,97.898,74.604,99.73c0,0,3.716,3.325,9.419,3.325c0.059,0,0.103,0,0.161,0h139.617
			c6.213,17.422,22.707,30,42.237,30c19.53,0,36.024-12.578,42.237-30H437c41.353,0,75-34.647,75-76
			C512,364.646,478.353,331,437,331z M362,105c0-24.814,20.186-45,45-45c24.814,0,45,20.186,45,45c0,24.814-20.186,45-45,45
			C382.186,150,362,129.814,362,105z M105,361c-24.814,0-45-20.186-45-45c0-24.814,20.186-45,45-45c24.814,0,45,20.186,45,45
			C150,340.814,129.814,361,105,361z"/>
		<path d="M407,90c-8.276,0-15,6.724-15,15s6.724,15,15,15s15-6.724,15-15S415.276,90,407,90z"/>
		<path d="M105,301c-8.276,0-15,6.724-15,15s6.724,15,15,15s15-6.724,15-15S113.276,301,105,301z"/>
</svg>
