<svg enable-background="new 0 0 512 512" height="50px" viewBox="0 0 512 512" width="50px"
     xmlns="http://www.w3.org/2000/svg">
    <path d="m497 42.358h-27.571v-27.358c0-8.284-6.716-15-15-15s-15 6.716-15 15v27.358h-27.57c-8.284 0-15 6.716-15 15s6.716 15 15 15h27.57v27.358c0 8.284 6.716 15 15 15s15-6.716 15-15v-27.358h27.571c8.284 0 15-6.716 15-15s-6.716-15-15-15z"/>
    <path d="m86.327 356.157c0-3.978.174-7.936.483-11.872-20.829-5.506-39.285-16.89-53.457-32.263-20.453 18.272-33.353 44.832-33.353 74.352v125.626h86.327z"/>
    <path d="m149.026 232.868c-12.219-19.667-19.29-42.83-19.29-67.615 0-2.672.092-5.322.254-7.954-4.764-.868-9.663-1.346-14.674-1.346-44.852 0-81.342 36.343-81.342 81.013 0 36.655 24.576 67.684 58.173 77.647 9.226-32.422 29.075-61.396 56.879-81.745z"/>
    <path d="m258.996 264.092c-54.732 0-99.26-44.339-99.26-98.839s44.528-98.839 99.26-98.839c54.731 0 99.259 44.339 99.259 98.839s-44.527 98.839-99.259 98.839z"/>
    <path d="m350.296 256.369c-23.401 23.296-55.692 37.723-91.3 37.723s-67.899-14.426-91.301-37.723c-31.08 22.287-51.368 58.711-51.368 99.788v155.843h285.337v-155.843c0-41.077-20.289-77.501-51.368-99.788z"/>
</svg>