<svg height="50px" viewBox="0 -16 447.584 447" width="50px" xmlns="http://www.w3.org/2000/svg">
    <path d="m239.792969 95.675781c0-40.664062 24.960937-48 26.023437-48.253906l-2.023437-7.746094-1.9375-7.761719c-1.558594.386719-38.0625 10.160157-38.0625 63.761719zm0 0"/>
    <path d="m103.792969 223.675781v-48c.007812-6.898437-4.40625-13.023437-10.953125-15.199219-4.195313-1.394531-6.46875-5.925781-5.074219-10.125 1.390625-4.195312 5.925781-6.46875 10.121094-5.074218 13.082031 4.363281 21.90625 16.609375 21.90625 30.398437v48h43.765625c-16.863282-20.328125-26.613282-45.613281-27.765625-72 .003906-12.820312 3.460937-25.40625 10.007812-36.433593-17.886719-13.894532-42.402343-15.597657-62.035156-4.304688-19.636719 11.292969-30.492187 33.335938-27.476563 55.785156.289063 2.28125-.414062 4.574219-1.933593 6.296875-1.519531 1.726563-3.707031 2.710938-6.003907 2.710938-.238281 0-.597656 0-.925781-.054688-11.382812.089844-21.855469 6.238281-27.476562 16.136719-5.621094 9.898438-5.539063 22.042969.21875 31.863281zm0 0"/>
    <path d="m0 239.675781c.914062 16.746094 4.554688 33.226563 10.777344 48.800781l92.941406-.800781.144531 16-85.757812.726563c34.398437 65.378906 113.613281 111.273437 205.6875 111.273437 120.246093 0 218.671875-78.238281 223.792969-176zm143.792969 64h-24v-16h24zm0 0"/>
    <path d="m186.695312 223.675781h90.226563c20.96875-18.226562 33.570313-44.242187 34.871094-72-.039063-30.910156-25.089844-55.960937-56-56-3.441407.21875-6.832031.917969-10.082031 2.070313-4.484376 1.554687-9.175782 2.4375-13.917969 2.625-4.746094-.1875-9.433594-1.070313-13.921875-2.625-3.246094-1.152344-6.640625-1.851563-10.078125-2.070313-30.914063.039063-55.960938 25.089844-56 56 1.347656 27.75 13.953125 53.753907 34.902343 72zm0 0"/>
    <path d="m327.792969 151.675781c-1.117188 26.394531-10.871094 51.6875-27.761719 72h108c3.410156-8.328125 6.1875-16.902343 8.3125-25.648437.539062-2.621094.914062-5.269532 1.128906-7.933594l-30.761718-6.539062c-4.320313-.917969-7.082032-5.167969-6.164063-9.492188.921875-4.320312 5.167969-7.082031 9.492187-6.164062l26.738282 5.691406c-4.542969-25.683594-24.210938-46.039063-49.722656-51.457032-14.695313-3.195312-30.046876-1.050781-43.300782 6.046876 2.652344 7.550781 4.015625 15.492187 4.039063 23.496093zm21.480469 15.734375c.976562-4.257812 5.1875-6.945312 9.460937-6.035156s7.027344 5.078125 6.1875 9.363281c-.921875 4.324219-5.171875 7.085938-9.492187 6.164063-4.324219-.917969-7.085938-5.167969-6.164063-9.492188zm0 0"/>
    <path d="m397.390625 101.621094c12.179687-3.265625 23.238281-9.777344 32-18.839844 15.371094-17.042969 17.410156-42.519531 17.386719-55.136719-8.535156.910157-16.941406 2.789063-25.050782 5.597657 1.421876 8.878906 1.246094 17.9375-.527343 26.753906-3.859375 15.839844-12.113281 30.265625-23.808594 41.625zm0 0"/>
    <path d="m405.519531 56.683594c1.738281-8.871094 1.515625-18.015625-.65625-26.792969-2.453125-10.40625-6.457031-20.382813-11.878906-29.597656-8.691406 6.210937-16.40625 13.691406-22.878906 22.191406v.054687c-5.554688 7.132813-9.476563 15.398438-11.496094 24.207032-4.800781 22.648437 6.253906 45.707031 12.535156 56.449218 10.085938-7.3125 29.566407-23.878906 34.375-46.511718zm0 0"/>
    <path d="m347.695312 91.058594c-6.039062-15.128906-7.703124-31.648438-4.800781-47.679688 1.949219-8.824218 5.472657-17.226562 10.402344-24.800781-6.253906-5.839844-13.164063-10.9375-20.585937-15.199219-5.144532 11.554688-13.640626 35.730469-6.558594 57.433594 4.316406 11.84375 11.761718 22.296875 21.542968 30.246094zm0 0"/>
    <path d="m227.511719 54.707031-16-16c-7.199219-7.183593-18.136719-9.058593-27.320313-4.6875l16 16c7.191406 7.195313 18.140625 9.074219 27.320313 4.6875zm0 0"/>
</svg>