<?xml version="1.0" encoding="utf-8"?>
<!-- Generator: Adobe Illustrator 23.0.0, SVG Export Plug-In . SVG Version: 6.00 Build 0)  -->
<svg version="1.1" id="Capa_1" xmlns="http://www.w3.org/2000/svg" xmlns:xlink="http://www.w3.org/1999/xlink" x="0px" y="0px"
	 viewBox="0 0 20 20" style="enable-background:new 0 0 20 20;" xml:space="preserve">
<style type="text/css">
	.st0{fill:#01BAB4;}
</style>
<g>
	<path class="st0" d="M9.9,10.8v0.6c0,0.2-0.1,0.4-0.3,0.5c-0.2,0.1-0.5,0.1-0.7-0.1l-0.4-0.4l-0.4,0.4l1,1c0.1,0.1,0.2,0.3,0.2,0.4
		v4.3c0,0.3,0.2,0.5,0.5,0.5h0.8c0.3,0,0.5-0.2,0.5-0.5v-3.6c0-0.2,0.1-0.3,0.2-0.4l0.8-0.8l-0.4-0.4l-0.3,0.3
		c-0.2,0.2-0.4,0.2-0.7,0.1c-0.2-0.1-0.3-0.3-0.3-0.5v-1.3L9.9,10.8L9.9,10.8z"/>
	<path class="st0" d="M17.7,8.6c0-1.9-1.5-3.4-3.3-3.5c-0.6-1.8-2.4-3-4.3-3S6.4,3.2,5.8,5C4,5.2,2.5,6.7,2.5,8.6c0,1,0.4,1.9,1,2.5
		c0,0.2,0,0.3,0,0.5c0,1.7,1.4,3.1,3.1,3.1h1.9v-1.5l-1.1-1.1c-0.1-0.1-0.2-0.3-0.2-0.4s0.1-0.3,0.2-0.4l0.6-0.6
		c0.2-0.2,0.6-0.2,0.8,0L9.2,11v-0.4c0-0.3,0.3-0.6,0.6-0.6h0.9c0.3,0,0.6,0.3,0.6,0.6v1.1l0.1-0.1c0.1-0.1,0.3-0.2,0.4-0.2
		c0.2,0,0.3,0.1,0.4,0.2l0.6,0.6c0,0,0,0,0,0c0.2,0.2,0.2,0.6,0,0.8l-0.9,0.9v0.8h1.7c1.7,0,3.1-1.4,3.1-3.1c0-0.2,0-0.3,0-0.5
		C17.3,10.4,17.7,9.5,17.7,8.6z"/>
</g>
</svg>
