<?xml version="1.0" encoding="utf-8"?>
<!-- Generator: Adobe Illustrator 23.0.0, SVG Export Plug-In . SVG Version: 6.00 Build 0)  -->
<svg version="1.1" id="Layer_1" xmlns="http://www.w3.org/2000/svg" xmlns:xlink="http://www.w3.org/1999/xlink" x="0px" y="0px"
	 viewBox="0 0 20 20" style="enable-background:new 0 0 20 20;" xml:space="preserve">
<style type="text/css">
	.st0{fill:#01BAB4;}
</style>
<g>
	<g>
		<path class="st0" d="M16.5,5.4h-1.1c0.1-0.2,0.2-0.5,0.3-0.8c0.1-0.9-0.4-1.6-1.1-2C13.8,2.4,13,2.5,12.5,3l-1.4,1.2
			C10.8,4,10.4,3.8,10,3.8C9.6,3.8,9.2,4,8.9,4.3L7.5,3C7,2.5,6.2,2.4,5.4,2.7C4.7,3,4.2,3.8,4.3,4.7c0,0.3,0.1,0.5,0.3,0.8H3.5
			c-0.5,0-1,0.4-1,1v1.5c0,0.3,0.2,0.5,0.5,0.5h14c0.3,0,0.5-0.2,0.5-0.5V6.4C17.5,5.9,17.1,5.4,16.5,5.4z M8.5,5.3v0.2H6.2
			c-0.6,0-1.1-0.6-0.9-1.2c0.1-0.3,0.3-0.5,0.5-0.6c0.4-0.2,0.8-0.1,1.1,0.2L8.5,5.3C8.5,5.2,8.5,5.3,8.5,5.3z M14.7,4.5
			c0,0.5-0.5,0.9-1,0.9h-2.3V5.3c0,0,0,0,0,0c0.4-0.3,1.2-1.1,1.6-1.5c0.3-0.2,0.6-0.3,0.9-0.2C14.5,3.7,14.8,4.1,14.7,4.5z"/>
	</g>
</g>
<g>
	<g>
		<path class="st0" d="M3.5,9.3v7.2c0,0.5,0.4,1,1,1H9V9.3H3.5z"/>
	</g>
</g>
<g>
	<g>
		<path class="st0" d="M11,9.3v8.2h4.6c0.5,0,1-0.4,1-1V9.3H11L11,9.3z"/>
	</g>
</g>
</svg>
