<svg height="50px" viewBox="-74 0 511 512" width="50px" xmlns="http://www.w3.org/2000/svg">
    <path d="m181.957031 202.273438c12.71875 0 23.0625-10.347657 23.0625-23.066407 0-12.714843-10.347656-23.0625-23.0625-23.0625-12.71875 0-23.066406 10.347657-23.066406 23.0625 0 12.71875 10.347656 23.066407 23.066406 23.066407zm0 0"/>
    <path d="m30.496094 482.332031c0 16.359375 13.308594 29.667969 29.667968 29.667969l303.453126-.535156v-59.332032l-303.453126.53125c-16.359374 0-29.667968 13.3125-29.667968 29.667969zm0 0"/>
    <path d="m60.164062 422.667969h303.289063v-422.667969h-307.058594c-30.820312 0-55.894531 25.074219-55.894531 55.894531v426.4375c0-32.898437 26.765625-59.664062 59.664062-59.664062zm121.777344-357.914063.84375.003906c61.886719.449219 112.097656 50.933594 112.097656 112.925782 0 34.136718-17.03125 60.195312-36.007812 86.074218l-77.195312 104.53125-76.640626-104.53125c-18.976562-25.882812-36.011718-51.9375-36.011718-86.078124.003906-62.265626 50.65625-112.925782 112.914062-112.925782zm0 0"/>
    <path d="m182.007812 318.003906c.707032-.972656 52.675782-71.984375 52.675782-71.984375 16.523437-22.535156 30.203125-43.234375 30.203125-68.335937 0-45.730469-37.203125-82.929688-82.929688-82.929688h-.515625c-45.492187.269532-82.414062 37.367188-82.414062 82.925782 0 25.105468 13.675781 45.800781 30.203125 68.339843zm-.050781-191.859375c29.257813 0 53.0625 23.804688 53.0625 53.0625 0 29.257813-23.804687 53.0625-53.0625 53.0625-29.257812 0-53.0625-23.804687-53.0625-53.0625 0-29.257812 23.804688-53.0625 53.0625-53.0625zm0 0"/>
</svg>