<?xml version="1.0" encoding="utf-8"?>
<!-- Generator: Adobe Illustrator 23.0.0, SVG Export Plug-In . SVG Version: 6.00 Build 0)  -->
<svg version="1.1" id="Layer_1" xmlns="http://www.w3.org/2000/svg" xmlns:xlink="http://www.w3.org/1999/xlink" x="0px" y="0px"
	 viewBox="0 0 20 20" style="enable-background:new 0 0 20 20;" xml:space="preserve">
<style type="text/css">
	.st0{fill:#01BAB4;}
</style>
<g>
	<g>
		<path class="st0" d="M16.9,3.6l-0.3-1.2c-0.1-0.3-0.4-0.5-0.7-0.4c-0.3,0.1-0.5,0.4-0.4,0.7l0.2,0.7l-2.3,0.9
			C13.1,4.4,13,4.6,13,4.9l1.1,5.2c0.5,0.1,0.9,0.1,1.2,0.2l-1.1-5.1l2.3-0.9C16.8,4.2,16.9,3.9,16.9,3.6z"/>
	</g>
</g>
<g>
	<g>
		<path class="st0" d="M15,15.9c1.1-0.2,2-1.1,2-2.3c0-1-0.6-1.8-1.5-2.2c0,0-8.8-1.3-9.1-1.3C4.5,10,3,11.6,3,13.6
			c0,1.2,0.6,2.3,1.5,2.9L3.9,17c-0.2,0.2-0.2,0.6,0,0.8C4,17.9,4.2,18,4.3,18c0.1,0,0.3-0.1,0.4-0.2L5.5,17c0,0,0,0,0,0
			c0.3,0.1,0.6,0.1,0.9,0.1c0.4,0,4.7-0.7,7.2-1c0,0,0,0.1,0.1,0.1l1.6,1.7c0.1,0.1,0.3,0.2,0.4,0.2c0.1,0,0.3-0.1,0.4-0.2
			c0.2-0.2,0.2-0.6,0-0.8L15,15.9z M6.5,15.3c-1,0-1.8-0.8-1.8-1.8c0-1,0.8-1.8,1.8-1.8s1.8,0.8,1.8,1.8C8.3,14.5,7.5,15.3,6.5,15.3
			z"/>
	</g>
</g>
<g>
	<g>
		<path class="st0" d="M8.6,7.4c0-0.3-0.3-0.6-0.6-0.6H5.6C5.3,6.8,5,7.1,5,7.4C5,7.7,5.3,8,5.6,8h0.9L7,9c0.2,0,0.6,0.1,1.1,0.2
			c0,0,0.1,0,0.1,0L7.7,8h0.4C8.4,8,8.6,7.7,8.6,7.4z"/>
	</g>
</g>
</svg>
