<?xml version="1.0" encoding="utf-8"?>
<!-- Generator: Adobe Illustrator 23.0.0, SVG Export Plug-In . SVG Version: 6.00 Build 0)  -->
<svg version="1.1" id="Capa_1" xmlns="http://www.w3.org/2000/svg" xmlns:xlink="http://www.w3.org/1999/xlink" x="0px" y="0px"
	 viewBox="0 0 20 20" style="enable-background:new 0 0 20 20;" xml:space="preserve">
<style type="text/css">
	.st0{fill:#01BAB4;}
</style>
<path class="st0" d="M6.7,4.5C6.4,4.3,6,4.2,5.6,4.2H5.5l0,0c-0.1,0-0.1,0-0.2,0C3.5,4.2,2,5.7,2,7.6c0,0.9,0.4,1.7,0.9,2.3l0,0
	c0.3,0.5,0.4,1.1,0.4,1.7c0,0.6-1.1,3-0.7,3.5C3,15.7,4.9,15.7,5,15.7c0.2,0,0.3-0.5,0-0.6c0,0,0-0.7,0.1-1.1
	c0.1-0.3,1.3-3.2,1.3-3.2l5.8-1.5V5.6L6.7,4.5z M5.1,8.8c-0.7,0-1.3-0.6-1.3-1.4C3.8,6.7,4.4,6,5.1,6s1.3,0.6,1.3,1.4
	S5.9,8.8,5.1,8.8z"/>
<path class="st0" d="M17.2,7.1h-3.5c-0.3,0-0.5-0.2-0.5-0.5s0.2-0.5,0.5-0.5h3.5c0.3,0,0.5,0.2,0.5,0.5S17.5,7.1,17.2,7.1z"/>
<path class="st0" d="M18,8.8h-3.5c-0.3,0-0.5-0.2-0.5-0.5s0.2-0.5,0.5-0.5H18c0.3,0,0.5,0.2,0.5,0.5S18.3,8.8,18,8.8z"/>
</svg>
