<?xml version="1.0" encoding="utf-8"?>
<!-- Generator: Adobe Illustrator 23.0.0, SVG Export Plug-In . SVG Version: 6.00 Build 0)  -->
<svg version="1.1" id="Layer_1" xmlns="http://www.w3.org/2000/svg" xmlns:xlink="http://www.w3.org/1999/xlink" x="0px" y="0px"
	 viewBox="0 0 20 20" style="enable-background:new 0 0 20 20;" xml:space="preserve">
<style type="text/css">
	.st0{fill:#01BAB4;}
	.st1{display:none;}
	.st2{display:inline;}
</style>
<g>
	<g>
		<g>
			<path class="st0" d="M4.4,16.9c-0.2,0-0.3,0-0.5-0.1v1.1h0.9v-1.1C4.7,16.8,4.6,16.9,4.4,16.9z"/>
		</g>
	</g>
	<g>
		<g>
			<path class="st0" d="M15.6,16.9c-0.2,0-0.3,0-0.5-0.1v1.1h0.9v-1.1C15.9,16.8,15.8,16.9,15.6,16.9z"/>
		</g>
	</g>
	<g>
		<g>
			<path class="st0" d="M7.2,5.9c-0.5,0-0.8,0.4-0.8,0.8v8.4c0,0.5,0.4,0.8,0.8,0.8C7.7,16,8,15.6,8,15.1V6.7C8,6.3,7.7,5.9,7.2,5.9
				z"/>
		</g>
	</g>
	<g>
		<g>
			<path class="st0" d="M10,5.9c-0.5,0-0.8,0.4-0.8,0.8v8.4c0,0.5,0.4,0.8,0.8,0.8s0.8-0.4,0.8-0.8V6.7C10.8,6.3,10.5,5.9,10,5.9z"
				/>
		</g>
	</g>
	<g>
		<g>
			<path class="st0" d="M12.8,5.9c-0.5,0-0.8,0.4-0.8,0.8v8.4c0,0.5,0.4,0.8,0.8,0.8c0.5,0,0.8-0.4,0.8-0.8V6.7
				C13.6,6.3,13.3,5.9,12.8,5.9z"/>
		</g>
	</g>
	<g class="st1">
		<g class="st2">
			<path class="st0" d="M4.4,5.9c-0.5,0-0.8,0.4-0.8,0.8l0,8.4c0,0.5,0.4,0.8,0.8,0.8s0.8-0.4,0.8-0.8V6.7C5.2,6.3,4.9,5.9,4.4,5.9z
				"/>
		</g>
	</g>
	<g class="st1">
		<g class="st2">
			<path class="st0" d="M16.4,8V6.7c0-0.5-0.4-0.8-0.8-0.8c-0.5,0-0.8,0.4-0.8,0.8v8.4c0,0.5,0.4,0.8,0.8,0.8c0.5,0,0.8-0.4,0.8-0.8
				V9.4V8z"/>
		</g>
	</g>
	<path class="st0" d="M7.2,4.5L6.5,3.7c0,0,0.1-0.1,0.1-0.1c0,0,0,0-0.1-0.1C6.2,3.2,6.1,2.9,6.1,2.7c0-0.5,0.4-0.9,0.5-1l0.6,0.8
		L6.9,2.1l0.3,0.4c0,0-0.1,0.1-0.1,0.2c0,0,0,0,0.1,0.1C7.6,3,7.7,3.3,7.7,3.5C7.7,4.1,7.3,4.4,7.2,4.5z"/>
	<path class="st0" d="M10.2,4.5L9.5,3.7c0,0,0.1-0.1,0.1-0.1c0,0,0,0-0.1-0.1C9.2,3.2,9.1,2.9,9.1,2.7c0-0.5,0.4-0.9,0.5-1l0.6,0.8
		L9.9,2.1l0.3,0.4c0,0-0.1,0.1-0.1,0.2c0,0,0,0,0.1,0.1c0.4,0.3,0.5,0.6,0.5,0.8C10.7,4.1,10.3,4.4,10.2,4.5z"/>
	<path class="st0" d="M13.2,4.5l-0.6-0.8c0,0,0.1-0.1,0.1-0.1c0,0,0,0-0.1-0.1c-0.4-0.3-0.5-0.6-0.5-0.8c0-0.5,0.4-0.9,0.5-1
		l0.6,0.8l-0.3-0.4l0.3,0.4c0,0-0.1,0.1-0.1,0.2c0,0,0,0,0.1,0.1c0.4,0.3,0.5,0.6,0.5,0.8C13.7,4.1,13.2,4.4,13.2,4.5z"/>
	<g>
		<g>
			<path class="st0" d="M4.4,5.9C4,5.9,3.6,6.3,3.6,6.7V8H2.7H2v1.5h0.7h0.9v5.7c0,0.5,0.4,0.8,0.8,0.8s0.8-0.4,0.8-0.8V6.7
				C5.2,6.3,4.9,5.9,4.4,5.9z"/>
		</g>
	</g>
	<g>
		<g>
			<path class="st0" d="M17.3,7h-0.2v1h-0.7V6.7c0-0.5-0.4-0.8-0.8-0.8c-0.4,0-0.8,0.4-0.8,0.8v8.4c0,0.5,0.4,0.8,0.8,0.8
				c0.4,0,0.8-0.4,0.8-0.8V9.4h0.7v1h0.2H18v-1V8V7H17.3z"/>
		</g>
	</g>
</g>
</svg>
