<svg  xmlns="http://www.w3.org/2000/svg" xmlns:xlink="http://www.w3.org/1999/xlink" x="0px" y="0px"
	 viewBox="0 0 512 512" style="enable-background:new 0 0 512 512;" xml:space="preserve" height="40px" width="40px">
	<path d="M339.7,213.4c-37.9,0-68.7,30.8-68.7,68.7v2.6c0,35.7,43.4,82,68.7,104.8c25.3-22.7,68.7-69.1,68.7-104.8V282
		C408.4,244.2,377.6,213.4,339.7,213.4z M339.7,326.8c-23.9,0-43.4-19.5-43.4-43.4c0-23.9,19.5-43.4,43.4-43.4s43.4,19.5,43.4,43.4
		C383.1,307.4,363.6,326.8,339.7,326.8z"/>
	<circle cx="339.7" cy="283.4" r="13.4"/>
	<path d="M256,0C114.6,0,0,114.6,0,256s114.6,256,256,256s256-114.6,256-256S397.4,0,256,0z M281.6,428.3H149.4
		c-22.5,0-40.7-18.3-40.7-40.7v-157L93.2,244l-19.7-22.7L256,63.1l93.5,81.4l-19.7,22.6L256,102.8L138.7,204.6v183
		c0,5.9,4.8,10.7,10.7,10.7h132.2V428.3z M392.9,378c-21.5,24.7-42.8,42-43.7,42.7l-9.4,7.6l-9.4-7.6c-0.9-0.7-22.2-18-43.7-42.7
		c-30.2-34.7-45.5-66.1-45.5-93.4V282c0-54.4,44.3-98.7,98.7-98.7s98.7,44.3,98.7,98.7v2.6C438.4,311.9,423.1,343.4,392.9,378z"/>
</svg>
