<?xml version="1.0" encoding="utf-8"?>
<!-- Generator: Adobe Illustrator 23.0.0, SVG Export Plug-In . SVG Version: 6.00 Build 0)  -->
<svg version="1.1" id="Capa_1" xmlns="http://www.w3.org/2000/svg" xmlns:xlink="http://www.w3.org/1999/xlink" x="0px" y="0px"
	 viewBox="0 0 20 20" style="enable-background:new 0 0 20 20;" xml:space="preserve">
<style type="text/css">
	.st0{fill:#01BAB4;}
	.st1{display:none;fill:#01BAB4;}
</style>
<g>
	<g>
		<path class="st0" d="M2.5,11.1c-0.3,0-0.5,0.2-0.5,0.5V14c0,0.3,0.2,0.5,0.5,0.5h7L6,11.1H2.5z"/>
		<polygon class="st0" points="14.3,14.5 14.3,11.1 10.3,11.1 13.8,14.5 		"/>
		<path class="st0" d="M17.5,11.1H17v3.4h0.5c0.3,0,0.5-0.2,0.5-0.5v-2.4C18,11.4,17.8,11.1,17.5,11.1z"/>
		<path class="st0" d="M16.3,11.1h-1v3.4h1V11.1z"/>
		<path class="st1" d="M15.7,10.1c0.2,0.1,0.5,0.3,0.7,0.4c0.1,0.1,0.2,0,0.2-0.1c0,0,0,0,0,0c0.2-0.7-0.1-1.4-0.6-1.9
			c-0.4-0.5-1.1-0.8-1.7-1.1c-0.3-0.1-0.7-0.3-1-0.4c-0.3-0.1-0.7-0.2-1-0.4c-0.1-0.1-0.2,0-0.2,0.1c0,0,0,0.1,0,0.1
			c0,0.6,0.4,1.1,0.8,1.5c0.4,0.4,0.9,0.7,1.4,1c0,0,0.1,0,0.1,0.1C14.9,9.7,15.3,9.9,15.7,10.1z"/>
		<rect x="9.4" y="5.6" transform="matrix(0.695 -0.719 0.719 0.695 -6.1788 11.0181)" class="st0" width="1" height="14.5"/>
		<g>
			<path class="st0" d="M14.1,6.8h-1v0c-0.6,0-1.2-0.6-1.2-1.2s0.5-1.1,1.2-1.1V3.6c-1.2,0-2.1,0.9-2.1,2s0.9,2,2.1,2v0h1
				c0.7,0,1.2,0.4,1.2,1.2v0.8h0.9v-1C16.3,7.6,15.3,6.8,14.1,6.8z"/>
			<path class="st0" d="M16,5.3c0.4-0.4,0.6-0.9,0.6-1.4c0-1.1-0.9-2-2.1-2v0.9c0.6,0,1.2,0.5,1.2,1.1S15.2,5,14.6,5v0.9
				c1.4,0,2.5,1.1,2.5,2.5v1.3H18V8.3C18,7,17.2,5.8,16,5.3z"/>
		</g>
	</g>
</g>
</svg>
