<svg xmlns="http://www.w3.org/2000/svg" xmlns:xlink="http://www.w3.org/1999/xlink" x="0px" y="0px"
	 viewBox="0 0 512.001 512.001" style="enable-background:new 0 0 512.001 512.001;" xml:space="preserve">
		<path d="M470.359,502.681l-8.284-33.133c-0.835-3.339-3.834-5.681-7.276-5.681h-9.066v-25.636c0-4.143-3.358-7.5-7.5-7.5H329.768
			v-18.173h108.466c4.142,0,7.5-3.357,7.5-7.5v-33.136c0-4.142-3.358-7.5-7.5-7.5h-9.068v-9.023
			c0-87.317-64.966-159.735-149.098-171.486V164.1H305.7c4.142,0,7.5-3.357,7.5-7.5s-3.358-7.5-7.5-7.5h-99.4
			c-4.142,0-7.5,3.357-7.5,7.5s3.358,7.5,7.5,7.5h25.635v19.813C147.8,195.662,82.833,268.081,82.833,355.399v9.023h-9.066
			c-4.142,0-7.5,3.358-7.5,7.5v33.136c0,4.143,3.358,7.5,7.5,7.5h108.466v18.173H73.766c-4.142,0-7.5,3.357-7.5,7.5v25.636h-9.066
			c-2.841,0-5.438,1.605-6.708,4.146l-16.566,33.133c-1.163,2.325-1.039,5.087,0.328,7.298s3.781,3.557,6.38,3.557h422.449
			c2.31,0,4.49-1.065,5.912-2.885C470.417,507.296,470.92,504.923,470.359,502.681z M246.935,164.1h18.133v18.369
			c-3.004-0.156-6.027-0.237-9.069-0.237c-3.04,0-6.062,0.081-9.064,0.236V164.1z M81.266,397.559v-18.136h8.271
			c0.261,0.028,0.526,0.043,0.795,0.043c0.269,0,0.534-0.015,0.795-0.043h36.332c4.142,0,7.5-3.357,7.5-7.5
			c0-4.142-3.358-7.5-7.5-7.5H97.833V355.4c0-87.214,70.953-158.167,158.166-158.167S414.166,268.186,414.166,355.4v9.023H157.428
			c-4.142,0-7.5,3.358-7.5,7.5c0,4.143,3.358,7.5,7.5,7.5H420.87c0.261,0.028,0.526,0.043,0.795,0.043
			c0.269,0,0.534-0.015,0.795-0.043h8.273v18.136H81.266z M314.768,412.559v18.173H197.234v-18.173H314.768z M81.266,445.731
			h108.428c0.013,0,0.026,0.002,0.039,0.002s0.026-0.002,0.039-0.002h132.457c0.013,0,0.026,0.002,0.039,0.002
			s0.026-0.002,0.039-0.002h108.428v18.136H81.266V445.731z M52.769,497l9.066-18.133h387.108L453.477,497H52.769z"/>

		<path d="M256,0c-4.142,0-7.5,3.357-7.5,7.5v33.132c0,4.142,3.358,7.5,7.5,7.5c4.142,0,7.5-3.357,7.5-7.5V7.5
			C263.5,3.357,260.143,0,256,0z"/>

		<path d="M154.811,65.735l-16.566-28.693c-2.071-3.588-6.659-4.815-10.245-2.745c-3.587,2.071-4.816,6.658-2.745,10.245
			l16.566,28.693c1.389,2.406,3.91,3.751,6.502,3.751c1.273,0,2.562-0.324,3.743-1.006
			C155.654,73.909,156.883,69.322,154.811,65.735z"/>

		<path d="M73.237,141.82l-28.693-16.566c-3.588-2.071-8.174-0.843-10.245,2.745c-2.071,3.587-0.842,8.174,2.745,10.245
			l28.693,16.566c1.181,0.682,2.471,1.006,3.743,1.006c2.592,0,5.113-1.345,6.502-3.751
			C78.052,148.478,76.823,143.891,73.237,141.82z"/>

		<path d="M40.633,248.499H7.501c-4.142,0-7.5,3.357-7.5,7.5s3.358,7.5,7.5,7.5h33.132c4.142,0,7.5-3.357,7.5-7.5
			S44.776,248.499,40.633,248.499z"/>

		<path d="M504.5,248.499h-33.132c-4.142,0-7.5,3.357-7.5,7.5s3.358,7.5,7.5,7.5H504.5c4.142,0,7.5-3.357,7.5-7.5
			C512,251.856,508.641,248.499,504.5,248.499z"/>

		<path d="M477.701,127.999c-2.071-3.588-6.658-4.815-10.245-2.745l-28.693,16.566c-3.587,2.071-4.816,6.658-2.745,10.245
			c1.389,2.407,3.91,3.751,6.502,3.751c1.272,0,2.562-0.324,3.743-1.006l28.693-16.566
			C478.544,136.173,479.773,131.586,477.701,127.999z"/>

		<path d="M384,34.297c-3.587-2.07-8.174-0.843-10.245,2.745l-16.566,28.693c-2.071,3.587-0.842,8.174,2.745,10.245
			c1.181,0.682,2.471,1.006,3.743,1.006c2.592,0,5.113-1.345,6.502-3.751l16.566-28.693C388.816,40.955,387.587,36.368,384,34.297z"
			/>
</svg>
