<svg height="412pt" viewBox="-38 0 412 412" width="412pt" xmlns="http://www.w3.org/2000/svg"><path d="m210.851562 0h-86.253906c-39.023437.0429688-70.644531 31.667969-70.691406 70.691406v81.328125h-27.90625c-14.351562.015625-25.984375 11.648438-26 26v207.980469c.015625 14.351562 11.648438 25.984375 26 26h283.449219c14.355469-.015625 25.984375-11.648438 26-26v-207.980469c-.015625-14.351562-11.644531-25.984375-26-26h-27.90625v-81.328125c-.046875-39.023437-31.667969-70.6484372-70.691407-70.691406zm58.691407 70.691406v81.328125h-9.566407v-81.328125c-.03125-27.121094-22.007812-49.097656-49.125-49.128906h-20.953124v-9.5625h20.953124c32.398438.035156 58.652344 26.292969 58.691407 58.691406zm-111.988281-49.128906v-9.5625h20.34375v9.5625zm53.296874 12c20.496094.023438 37.105469 16.632812 37.128907 37.128906v81.328125h-160.507813v-81.328125c.023438-20.496094 16.632813-37.105468 37.125-37.128906zm-144.945312 37.128906c.039062-32.398437 26.292969-58.65625 58.691406-58.691406h20.957032v9.5625h-20.957032c-27.117187.03125-49.09375 22.007812-49.125 49.128906v81.328125h-9.566406zm257.542969 107.328125v207.980469c-.007813 7.730469-6.269531 13.992188-14 14h-283.449219c-7.730469-.007812-13.992188-6.269531-14-14v-207.980469c.007812-7.726562 6.273438-13.988281 14-14h283.449219c7.730469.011719 13.992187 6.273438 14 14zm0 0"/><path d="m110.371094 295.84375c6.449218 0 11.675781-5.226562 11.679687-11.675781 0-6.449219-5.226562-11.675781-11.675781-11.675781s-11.675781 5.226562-11.675781 11.675781c.007812 6.445312 5.230469 11.664062 11.671875 11.675781zm0-12c.132812-.003906.253906.078125.304687.199219.050781.121093.023438.261719-.070312.355469s-.234375.121093-.355469.070312c-.125-.050781-.203125-.167969-.203125-.300781 0-.179688.148437-.324219.324219-.324219zm0 0"/><path d="m167.867188 295.84375c6.449218 0 11.675781-5.230469 11.675781-11.675781 0-6.449219-5.226563-11.675781-11.675781-11.675781-6.449219 0-11.675782 5.226562-11.675782 11.675781.007813 6.445312 5.230469 11.667969 11.675782 11.675781zm0-12c.132812 0 .25.078125.300781.199219.050781.121093.023437.261719-.070313.355469s-.234375.121093-.355468.070312c-.121094-.050781-.203126-.167969-.203126-.300781.003907-.179688.148438-.324219.328126-.324219zm0 0"/><path d="m225.359375 295.84375c6.449219 0 11.675781-5.230469 11.675781-11.675781 0-6.449219-5.226562-11.675781-11.675781-11.675781-6.445313 0-11.671875 5.226562-11.671875 11.675781.003906 6.445312 5.230469 11.667969 11.671875 11.675781zm0-12c.132813 0 .253906.078125.304687.199219.046876.121093.019532.261719-.074218.355469s-.234375.121093-.355469.070312-.199219-.167969-.199219-.300781c0-.179688.144532-.324219.324219-.324219zm0 0"/><path d="m52.878906 295.84375c6.449219 0 11.675782-5.230469 11.675782-11.675781 0-6.449219-5.226563-11.675781-11.675782-11.675781-6.449218 0-11.675781 5.226562-11.675781 11.675781.007813 6.445312 5.230469 11.667969 11.675781 11.675781zm0-12c.132813-.003906.25.078125.300782.199219.050781.121093.023437.261719-.070313.355469s-.234375.121093-.355469.070312-.199218-.167969-.199218-.300781c0-.179688.144531-.324219.324218-.324219zm0 0"/><path d="m252.570312 252.601562 13.5 9v26.273438h-6.933593c-3.316407 0-6 2.683594-6 6 0 3.3125 2.683593 6 6 6h6.9375v6.824219l-12.070313 4.023437c-2.0625.65625-3.609375 2.371094-4.050781 4.488282-.445313 2.117187.285156 4.308593 1.910156 5.738281 1.625 1.425781 3.890625 1.867187 5.933594 1.15625l14.277344-4.757813 14.273437 4.757813c3.144532 1.050781 6.542969-.648438 7.59375-3.789063 1.046875-3.144531-.648437-6.542968-3.792968-7.59375l-12.070313-4.023437v-6.832031h6.9375c3.3125 0 6-2.683594 6-6 0-3.3125-2.6875-6-6-6h-6.9375v-26.265626l13.5-9c2.757813-1.839843 3.503906-5.566406 1.664063-8.324218-1.839844-2.753906-5.5625-3.5-8.320313-1.664063l-12.84375 8.566407-12.851563-8.566407c-2.757812-1.839843-6.484374-1.09375-8.320312 1.664063-1.839844 2.757812-1.09375 6.480468 1.664062 8.320312zm0 0"/></svg>