<svg height="50px" viewBox="-49 -20 629 629.34053" width="50px" xmlns="http://www.w3.org/2000/svg">
    <path d="m216.199219 200.761719c0-26.453125-21.476563-47.898438-47.96875-47.898438-26.488281 0-47.964844 21.445313-47.964844 47.898438s21.476563 47.898437 47.964844 47.898437c26.492187 0 47.96875-21.445312 47.96875-47.898437zm0 0"/>
    <path d="m446.882812 200.707031c-.023437-26.453125-21.523437-47.871093-48.015624-47.84375-26.488282.03125-47.9375 21.496094-47.910157 47.949219.03125 26.453125 21.527344 47.871094 48.015625 47.84375 26.492188-.03125 47.941406-21.496094 47.910156-47.949219zm0 0"/>
    <path d="m264.019531 117.410156c27.453125 0 51.238281-19.027344 57.269531-45.8125s-7.3125-54.167968-32.117187-65.933594c-24.808594-11.761718-54.453125-4.761718-71.378906 16.859376-17.898438 22.867187-16.386719 55.386718 3.558593 76.5 11.105469 11.710937 26.53125 18.359374 42.667969 18.386718zm-13.195312-82c0-4.828125 3.914062-8.742187 8.742187-8.742187 4.832032 0 8.742188 3.914062 8.742188 8.742187v22.914063l9.882812 6.332031c4.0625 2.605469 5.246094 8.011719 2.640625 12.074219-2.601562 4.070312-8.007812 5.25-12.078125 2.644531l-13.90625-8.910156c-2.507812-1.605469-4.023437-4.378906-4.023437-7.359375zm0 0"/>
    <path d="m412.648438 444.941406h-22.066407v-13.058594c.03125-11.035156-8.882812-20.011718-19.917969-20.066406h-30.933593c-11.035157.054688-19.949219 9.03125-19.917969 20.066406v13.0625h-22.070312c-20.679688.023438-37.441407 16.789063-37.46875 37.46875v64.15625c.015624 14.515626 8.398437 27.71875 21.527343 33.902344 0 0 17.320313 2.699219 17.019531 3.574219h111.769532c-.292969-.875 17.027344-3.128906 17.027344-3.128906 13.652343-5.96875 22.488281-19.441407 22.503906-34.34375v-64.160157c-.027344-20.6875-16.785156-37.449218-37.472656-37.472656zm-75.351563-13.058594c-.039063-1.382812 1.054687-2.535156 2.433594-2.578124h30.933593c1.378907.042968 2.472657 1.195312 2.433594 2.578124v13.0625h-35.800781zm104.078125 111.039063h-172.359375v-17.484375h172.359375zm0 0"/>
    <path d="m281.800781 580.472656v.792969c.003907 4.277344 3.105469 7.921875 7.328125 8.613281 4.222656.6875 8.328125-1.78125 9.691406-5.832031h-1.078124c-5.511719.003906-10.957032-1.214844-15.941407-3.574219zm0 0"/>
    <path d="m410.589844 584.046875c1.371094 4.050781 5.476562 6.515625 9.695312 5.828125 4.21875-.691406 7.324219-4.332031 7.332032-8.609375v-.347656c-4.722657 2.070312-9.816407 3.132812-14.96875 3.128906zm0 0"/>
    <path d="m521.078125 352.109375h-34.972656v-11.023437c-.0625-33.671876-27.371094-60.9375-61.042969-60.953126h-51.851562c-33.675782.015626-60.980469 27.28125-61.039063 60.953126v11.023437h-56.75v-11.023437c-.058594-33.675782-27.367187-60.9375-61.039063-60.953126h-51.863281c-33.667969.015626-60.976562 27.28125-61.039062 60.953126v11.023437h-74.515625c-4.824219 0-8.742188 3.917969-8.742188 8.746094s3.917969 8.742187 8.742188 8.742187h74.515625v46.246094c0 4.828125 3.914062 8.742188 8.742187 8.742188h19.617188l8.695312 157.160156c.257813 4.636718 4.089844 8.261718 8.734375 8.261718h82.800781c4.652344 0 8.488282-3.640624 8.734376-8.285156l8.277343-157.136718h19.601563c4.828125 0 8.742187-3.914063 8.742187-8.742188v-46.246094h265.65625c4.828125 0 8.742188-3.914062 8.742188-8.742187s-3.914063-8.746094-8.742188-8.746094zm-82.199219-18.144531h-11.242187c-4.828125 0-8.742188-3.910156-8.742188-8.742188 0-4.828125 3.914063-8.742187 8.742188-8.742187h11.242187c4.828125 0 8.742188 3.914062 8.742188 8.742187 0 4.832032-3.914063 8.742188-8.742188 8.742188zm0 0"/>
</svg>