<svg xmlns="http://www.w3.org/2000/svg" xmlns:xlink="http://www.w3.org/1999/xlink" x="0px" y="0px"
	 viewBox="0 0 512 512" style="enable-background:new 0 0 512 512;" xml:space="preserve" height="50px" width="50px">
		<path d="M493.714,100.571v338.286c-0.012,10.094-8.192,18.274-18.286,18.286H36.571c-10.094-0.012-18.274-8.192-18.286-18.286
			V100.571H0v374.857H204.34c0.098,0,0.179,0.052,0.277,0.056c0.683,0.057,1.357,0.193,2.009,0.406
			c0.499,0.089,0.991,0.218,1.469,0.388c0.508,0.276,0.988,0.599,1.434,0.966c0.994,0.497,1.791,1.315,2.262,2.321
			c0.411,0.542,0.759,1.13,1.036,1.752c0.036,0.093,0.114,0.154,0.147,0.249C219.416,499.805,236.657,512,256,512
			c19.343,0,36.584-12.195,43.027-30.433c0.034-0.095,0.112-0.156,0.147-0.249c0.283-0.637,0.64-1.239,1.064-1.792
			c0.494-1.029,1.322-1.86,2.348-2.358c0.789-0.744,1.805-1.201,2.885-1.297c0.619-0.198,1.259-0.327,1.906-0.385
			c0.101-0.003,0.183-0.057,0.283-0.057H512V100.571H493.714z"/>
		<path d="M246.857,411.429c-0.03-25.235-20.479-45.685-45.714-45.714H36.571v27.429h164.571c5.049,0,9.143,4.093,9.143,9.143
			c0,5.049-4.093,9.143-9.143,9.143H36.571v27.429h210.286V411.429z"/>
		<path d="M256,182.857c50.495,0,91.429-40.934,91.429-91.429C347.346,40.968,306.46,0.083,256,0
			c-50.495,0-91.429,40.934-91.429,91.429C164.572,141.923,205.505,182.857,256,182.857z M246.857,27.429
			c0-5.049,4.093-9.143,9.143-9.143s9.143,4.093,9.143,9.143v9.143c0,5.049-4.093,9.143-9.143,9.143s-9.143-4.093-9.143-9.143
			V27.429z M246.857,73.143c0-5.049,4.093-9.143,9.143-9.143s9.143,4.093,9.143,9.143v73.143c0,5.049-4.093,9.143-9.143,9.143
			s-9.143-4.093-9.143-9.143V73.143z"/>
		<path d="M246.857,366.72V200.686c-56.803-4.789-100.493-52.252-100.571-109.257c-0.013-15.798,3.452-31.406,10.149-45.714H36.571
			v301.714h164.571C218.362,347.419,234.851,354.377,246.857,366.72z M64,192h91.429c5.049,0,9.143,4.093,9.143,9.143
			c0,5.049-4.093,9.143-9.143,9.143H64c-5.049,0-9.143-4.093-9.143-9.143C54.857,196.093,58.951,192,64,192z M64,237.714h128
			c5.049,0,9.143,4.093,9.143,9.143c0,5.049-4.093,9.143-9.143,9.143H64c-5.049,0-9.143-4.093-9.143-9.143
			C54.857,241.808,58.951,237.714,64,237.714z M192,301.714H64c-5.049,0-9.143-4.093-9.143-9.143c0-5.049,4.093-9.143,9.143-9.143
			h128c5.049,0,9.143,4.093,9.143,9.143C201.143,297.621,197.05,301.714,192,301.714z"/>
		<path d="M265.143,200.686V366.72c12.006-12.343,28.496-19.301,45.714-19.291h164.571V45.714H355.566
			c6.697,14.309,10.162,29.916,10.149,45.714C365.636,148.433,321.946,195.897,265.143,200.686z M448,301.714H320
			c-5.049,0-9.143-4.093-9.143-9.143c0-5.049,4.093-9.143,9.143-9.143h128c5.049,0,9.143,4.093,9.143,9.143
			C457.143,297.621,453.05,301.714,448,301.714z M448,256H320c-5.049,0-9.143-4.093-9.143-9.143c0-5.049,4.093-9.143,9.143-9.143
			h128c5.049,0,9.143,4.093,9.143,9.143C457.143,251.907,453.05,256,448,256z M457.143,201.143c0,5.049-4.093,9.143-9.143,9.143
			h-91.429c-5.049,0-9.143-4.093-9.143-9.143c0-5.049,4.093-9.143,9.143-9.143H448C453.05,192,457.143,196.093,457.143,201.143z"/>
		<path d="M310.857,393.143h164.571v-27.429H310.857c-25.235,0.03-45.685,20.479-45.714,45.714v27.429h210.286v-27.429H310.857
			c-5.049,0-9.143-4.093-9.143-9.143C301.714,397.236,305.808,393.143,310.857,393.143z"/>
</svg>
