<?xml version="1.0" encoding="utf-8"?>
<!-- Generator: Adobe Illustrator 23.0.0, SVG Export Plug-In . SVG Version: 6.00 Build 0)  -->
<svg version="1.1" id="Layer_1" xmlns="http://www.w3.org/2000/svg" xmlns:xlink="http://www.w3.org/1999/xlink" x="0px" y="0px"
	 viewBox="0 0 20 20" style="enable-background:new 0 0 20 20;" xml:space="preserve">
<style type="text/css">
	.st0{fill:#01BAB4;}
</style>
<g>
	<g>
		<path class="st0" d="M16.8,8H6.9c0,0,0,0-0.1,0C6.5,8.5,6.2,9,6,9.6c-0.5,0-0.7-0.3-0.9-0.8C4.7,7.4,3.5,7.3,3.5,7.3h0
			c0,0-0.1,0-0.1,0L2.8,7.9c0,0-0.1,0.1,0,0.1c0,0,0.1,0.1,0.1,0.1c0.3,0,0.6,0.2,0.6,0.5c0,4.4,2.8,5.4,3.2,5.5
			c1,1.4,2.6,2.3,4.4,2.3c2.3,0,4.2-1.4,5-3.4h0.6c1.2,0,2.1-1,2.1-2.1v-0.9C18.8,8.9,17.9,8,16.8,8z M16.7,11.8h-0.3
			c0-0.3,0-0.5,0-0.7c0-0.7-0.1-1.3-0.4-1.9h0.6c0.5,0,0.8,0.4,0.8,0.9V11h0C17.5,11.4,17.2,11.8,16.7,11.8z"/>
	</g>
</g>
<g>
	<g>
		<path class="st0" d="M15.2,7.4C15.2,7.4,15.2,7.4,15.2,7.4C15.2,7.4,15.2,7.4,15.2,7.4C15.1,7.4,15.1,7.4,15.2,7.4
			c-1-1.1-2.4-1.7-3.8-1.8V5.5c0.1-0.1,0.3-0.3,0.3-0.5c0-0.3-0.2-0.6-0.5-0.6c-0.3,0-0.6,0.2-0.6,0.6c0,0.2,0.1,0.4,0.2,0.5v0.2
			C9.4,5.7,8.1,6.3,7.1,7.4c0,0,0,0,0,0c0,0,0,0,0,0c0,0,0,0,0,0c0,0,0,0,0,0c0,0,0,0,0,0c0,0,0,0,0,0L15.2,7.4
			C15.2,7.5,15.2,7.5,15.2,7.4C15.2,7.5,15.2,7.5,15.2,7.4C15.2,7.5,15.2,7.4,15.2,7.4z"/>
	</g>
</g>
</svg>
