<?xml version="1.0" encoding="utf-8"?>
<!-- Generator: Adobe Illustrator 23.0.0, SVG Export Plug-In . SVG Version: 6.00 Build 0)  -->
<svg version="1.1" id="Слой_1" xmlns="http://www.w3.org/2000/svg" xmlns:xlink="http://www.w3.org/1999/xlink" x="0px" y="0px"
	 viewBox="0 0 20 20" style="enable-background:new 0 0 20 20;" xml:space="preserve">
<style type="text/css">
	.st0{fill:#01BAB4;}
</style>
<path class="st0" d="M8,17.1h0.6V18H8V17.1z"/>
<path class="st0" d="M7.7,3.4H3.7l0.2,1.1h1.8v0.6H4l0.2,1.1h1.2v0.6H4.3L4.5,8h2v0.6H4.6l0.2,1.1h2.6v0.6H4.9l0.2,1.1H6V12H5.2
	l0.2,1.1h1.8v0.6H5.5l0.2,1.1h0.9v0.6H5.7l0.2,1.1h4.7l1.9-11.4h-0.8V4.6h0.9l0.2-1.1H7.7z M6,6.9V6.3h1.7v0.6H6z M8.3,15.4H7.1
	v-0.6h1.1V15.4z M8.3,13.7H7.7v-0.6h0.6V13.7z M8.3,12H6.5v-0.6h1.7V12z M8.3,8.6H7.1V8h1.1V8.6z M8.3,5.1h-2V4.6h2V5.1z M10.3,15.4
	H9.4v-0.6h0.9V15.4z M10.3,8h0.9v0.6h-0.9V8z M10.3,12H9.4v-0.6h0.9V12z M9.1,6.3H10v0.6H9.1V6.3z"/>
<path class="st0" d="M8,2h0.6v0.9H8V2z"/>
<path class="st0" d="M16.3,18h-1.4c0,0-0.1,0-0.1-0.1c0,0,0-0.1,0-0.1l0.4-0.2c0.1,0,0.2-0.1,0.2-0.3v-2.9h0.9V18z M16.3,14h-1.7
	V5.4c0-1,0.7-1.8,1.7-2V14z"/>
</svg>
