<svg xmlns="http://www.w3.org/2000/svg" xmlns:xlink="http://www.w3.org/1999/xlink" x="0px" y="0px"
	 viewBox="0 0 375 375" enable-background="new 0 0 375 375" xml:space="preserve" height="50px" width="50px">
<path d="M57.6,363.5h243.8V375H57.6V363.5z M176,355.5h6.4h32.9h4.6h39.3l-22-32.9L217.6,352l-19.6-29.5l-18.8,28.2l-18.8-28.2
	L140.7,352l-19.6-29.5l-22,32.9h39.3h4.6H176z M309.5,186.1c-4.3,1.5-9.9,6.7-13.6,10.4c-0.2-9.2-0.5-15.6-0.5-17.4h8.1v-11.4H69.1
	v11.4h9.1c-0.1,1.9-0.4,8.5-0.5,18.1c-3.6-3.5-8.3-7.6-12.1-8.9c-7-2.5-30.4,0-30.4,0v9.5c0,0,23-0.8,27.9,2.1
	c5,2.9,10.3,27.2,14.4,27.2c0.2,0,0.4,0,0.6,0c1.1,25.9,4.8,54,14.7,63.1H80.4v15.1H291V290h-10.2c10.2-9.3,13.8-38.7,14.8-65.2
	c0.7,0,1.4,0,1.9,0c4.1,0,9.5-24.3,14.4-27.2c4.9-2.9,27.9-2.1,27.9-2.1v-9.5C339.8,186.1,316.4,183.7,309.5,186.1z M106.7,270.8
	c-2.2-4.4-4.4-9.7-6.1-15.6c-1-2.9-1.4-6.2-2.1-9.4c-0.8-3.3-0.9-6.5-1.1-9.6c-0.3-3-0.3-6.6-0.2-9.8c0.1-3.2,0.2-6.4,0.4-9.4
	c0.3-3,0.2-5.9,0.8-8.7c0.5-2.7,1-5.4,1.5-7.8c2-9.7,5.2-15.4,5.2-15.4s0,1.6,0.3,4.5c0.3,2.9,0.3,6.7,0.9,11.4
	c0.4,4.7,0.7,10.1,1.5,15.9c0.4,2.9,0.6,5.9,0.9,8.9c0.1,3.1,0.8,5.7,1.2,9.1c0.8,6.5,1.7,11.9,2.6,17.7c0.8,5.7,1.5,11.1,2.1,15.7
	c1.2,9.3,1.4,16.1,1.4,16.1S111.2,279.6,106.7,270.8z M135.4,94.9c1.4,2.6,2.3,3.3,3.5,5l3.1,3.7c0.6,1.2,1.5,2.2,1.9,3.6
	c1,2.6,2.1,5.3,2.5,8.3c1,5.9,0.9,12.1,0.7,17.5c-0.7,10.8-1.8,18.7-1.8,18.7s5.8-5.6,10.4-16.7c1.1-2.7,2.3-5.8,3-9.3
	c0.7-3.4,1.5-7.2,1.3-11.2c0-4-0.5-8.4-2.1-12.7c-0.6-2.2-2-4.2-3-6.3c-0.6-1-1.4-2-2.1-2.9l-1.1-1.5l-0.6-0.7l-0.1-0.2
	c0.1,0.1,0.2,0.2,0.4,0.4l-0.1-0.1l-0.2-0.3c-1-1.3-2.9-3.2-3.1-4c-0.5-1-1.1-1.8-1.6-3.3c-1-2.6-1.9-5.5-2.3-8.5
	c-0.9-6-0.8-12.2-0.5-17.6c0.7-10.8,1.6-18.7,1.6-18.7S139.6,44,135,55c-2.3,5.5-4.3,12.4-4.4,20.4c0.1,4,0.2,8.4,1.8,12.7
	C132.9,90.2,134.1,92.6,135.4,94.9z M150.9,90.3C151,90.3,150.7,90.1,150.9,90.3L150.9,90.3z M169.4,56.6c1.4,2.6,2.3,3.3,3.5,5
	l3.1,3.7c0.6,1.2,1.5,2.2,1.9,3.6c1,2.6,2.1,5.3,2.5,8.3c1,5.9,0.9,12.1,0.7,17.5c-0.7,10.8-1.8,18.7-1.8,18.7s5.8-5.6,10.4-16.7
	c1.1-2.7,2.3-5.8,3-9.3c0.7-3.4,1.5-7.2,1.3-11.2c0-4-0.5-8.4-2.1-12.7c-0.6-2.2-2-4.2-3-6.3c-0.6-1-1.4-2-2.1-2.9l-1.1-1.4
	l-0.6-0.7l-0.2-0.2c0.1,0.1,0.2,0.2,0.4,0.4l0-0.1l-0.2-0.3c-1-1.3-2.9-3.2-3.1-4c-0.5-1-1.1-1.8-1.6-3.2c-1-2.6-1.9-5.5-2.3-8.5
	c-0.9-6-0.8-12.2-0.5-17.6C178.3,7.9,179.3,0,179.3,0s-5.7,5.7-10.3,16.7c-2.3,5.5-4.3,12.4-4.4,20.4c0.1,4,0.2,8.4,1.8,12.7
	C166.9,51.9,168.2,54.3,169.4,56.6z M184.9,52C185,52,184.8,51.8,184.9,52L184.9,52z M211.4,91.4c1.4,2.6,2.3,3.3,3.5,5l3.1,3.7
	c0.6,1.2,1.5,2.2,1.9,3.6c1,2.6,2.1,5.3,2.5,8.3c1,5.9,0.9,12.1,0.7,17.5c-0.7,10.8-1.8,18.7-1.8,18.7s5.8-5.6,10.4-16.7
	c1.1-2.7,2.3-5.8,3-9.3c0.7-3.4,1.5-7.2,1.3-11.2c0-4-0.5-8.4-2.1-12.7c-0.6-2.2-2-4.2-3-6.3c-0.6-1-1.4-2-2.1-2.9l-1.1-1.4
	l-0.6-0.7l-0.1-0.2c0.1,0.1,0.2,0.2,0.4,0.4l-0.1-0.1l-0.2-0.3c-1-1.3-2.9-3.2-3.1-4c-0.5-1-1.1-1.8-1.6-3.2
	c-1.1-2.6-1.9-5.5-2.3-8.5c-0.9-6-0.8-12.2-0.5-17.6c0.7-10.8,1.6-18.7,1.6-18.7s-5.7,5.7-10.3,16.7c-2.3,5.5-4.3,12.4-4.4,20.4
	c0.1,4,0.2,8.4,1.8,12.7C208.9,86.6,210.2,89,211.4,91.4z M227,86.7C227,86.7,226.8,86.5,227,86.7L227,86.7z"/>
</svg>
