<svg height="50px" viewBox="-15 0 511 511.99956" width="50px" xmlns="http://www.w3.org/2000/svg">
    <path d="m150.5 15v123.914062c14.625-5.199218 28.410156-3.097656 39.976562 4.644532l61.347657 45.96875c11.191406 7.398437 18.675781 21.402344 18.675781 36.472656 0 15.074219-7.484375 29.078125-20.039062 37.441406l-58.636719 44.035156c-14.042969 9.46875-27.527344 10.507813-41.324219 5.605469 0 4.699219 0 97.074219 0 93.917969 0 8.292969 6.707031 15 15 15h135v-317c0-15.042969 7.675781-29.25 20.171875-37.527344l89.960937-67.472656h-245.132812c-8.292969 0-15 6.710938-15 15zm0 0"/>
    <path d="m480.5 15c0-5.402344-2.902344-10.382812-7.605469-13.050781-4.703125-2.664063-10.472656-2.59375-15.117187.191406l-120 90c-4.511719 2.707031-7.277344 7.585937-7.277344 12.859375v392c0 5.40625 2.898438 10.386719 7.601562 13.050781 4.691407 2.660157 10.464844 2.597657 15.117188-.1875l120-90c4.511719-2.710937 7.28125-7.589843 7.28125-12.863281zm-104.972656 286c-8.285156 0-15-6.714844-15-15s6.714844-15 15-15 15 6.714844 15 15-6.714844 15-15 15zm0 0"/>
    <path d="m15.5 256h135v15c0 5.539062 3.046875 10.621094 7.925781 13.230469 4.808594 2.578125 10.742188 2.351562 15.394531-.75l60-45c4.175782-2.78125 6.679688-7.46875 6.679688-12.476563 0-5.011718-2.503906-9.699218-6.679688-12.480468l-60-45.011719c-4.585937-3.058594-10.53125-3.339844-15.394531-.746094-4.878906 2.609375-7.925781 7.691406-7.925781 13.230469v15.007812h-135c-8.292969 0-15 6.707032-15 15v30c0 8.289063 6.707031 14.996094 15 14.996094zm0 0"/>
</svg>