<svg xmlns="http://www.w3.org/2000/svg" xmlns:xlink="http://www.w3.org/1999/xlink" x="0px" y="0px"
	 viewBox="0 0 587.3 587.7" enable-background="new 0 0 587.3 587.7" xml:space="preserve" height="40px" width="40px">
<path d="M492.2,577.1v-41.3l2.9,0.6l0.5-2.1l-16.6-3.9H479v-25.9l3.5,1.7l0.4-2.1l-8.1-3.9v-25.1c-0.3-0.6-1.2-1.2-2.6-1.7
	c-1.9-2-4.6-5.5-4.9-9.6c-0.4-6.7,1.1-57.1-45.3-99.9c-40.7-37.6-46.4-29.1-82.4-59.1c0-0.1,0.1-0.1,0.1-0.2c0.6-3-1.9-5.7-4-8.6
	c-1.5-2.1-7.7-9.1-11-12.7l0.6-4.3c0.9-0.6,1.5-1.5,1.5-2.5c0-1.1-0.6-2-1.7-2.7l-0.5-10c1.7-0.5,2.9-1.6,2.9-3
	c0-1.4-1.4-2.7-3.2-3.1l-0.2-3.9c0.9-0.2,1.4-0.5,1.4-1.1c0-0.4-0.6-0.9-1.5-1.1l-0.1-3c1.5-0.3,2.6-1.5,2.6-2.8
	c0-1.4-1.3-2.6-2.9-2.9l-0.9-16.1l-0.9,16.1c-1.6,0.3-2.9,1.5-2.9,2.8c0,1.3,1.1,2.4,2.6,2.8l-0.1,3c-0.9,0.2-1.5,0.5-1.5,1
	c0,0.4,0.5,0.9,1.4,1l-0.2,3.9c-1.8,0.4-3.2,1.6-3.2,3.1c0,1.3,1.2,2.5,2.9,3l-0.5,10c-1.1,0.6-1.7,1.6-1.7,2.7c0,1,0.5,1.8,1.5,2.5
	l0.6,4.4c-3.3,3.6-9.5,10.6-11,12.7c-2.1,2.9-4.6,5.6-4,8.6c0,0.1,0,0.2,0.1,0.2c-36.1,29.9-41.8,21.5-82.4,59.1
	c-1.3,1.2-2.5,2.4-3.6,3.5v-1.9h-0.1v-2.8c0-1-0.5-1.7-1.4-2.1c0.6-0.3,1.1-1.1,1.1-1.8c0-1.2-1-2-2-2c-1.2,0-2.1,1-2.1,2
	c0,0.7,0.4,1.4,1.1,1.8c-0.7,0.4-1.4,1.2-1.4,2.1v1l-19.9-7.7v-85.1l2.9-16.9l11.2-13.7l0.4-0.4l-0.5-0.3l-3.6-2.4v-10.2l-0.1-0.1
	c0,0-4.4-2-12.1-4.1c-0.5-0.1-1.2-0.3-1.7-0.4v-58.6l9.7-20.7l0.1-0.3l-0.2-0.3c-0.1,0-0.6-0.6-1.8-1.5v-9.6L199,131
	c0,0-3.7-2-10.3-4.1c-1.4-0.4-3.1-0.9-4.9-1.4c-0.2-11-0.6-28.6-0.6-31.7c0-0.7,0-1.5,0-2.2c0.1-3.5,0.1-7-1.4-11.9
	c-1.4-4.6-4.3-7.4-8.7-8.4V55.7v-0.2l-0.1-0.2l-6.1-6.4L166,37.6c1.3-0.5,2.1-1.6,2.1-2.8c0-1.4-1.1-2.6-2.6-3l-0.3-4.1
	c2-0.4,3.5-1.6,3.5-3.1c0-1.6-1.7-3-4.1-3.2l-0.7-9.6l0,0c3-0.1,5.6-2.6,5.6-5.7c0-0.2,0-0.3,0-0.4c-0.2,2.4-2.2,4.3-4.7,4.3
	c-2.6,0-4.7-2.1-4.7-4.7c0-2.5,1.8-4.5,4.3-4.7c-0.1,0-0.3,0-0.4,0c-3.1,0-5.7,2.6-5.7,5.7s2.6,5.7,5.7,5.7l-0.7,9.6
	c-2.2,0.3-4,1.6-4,3.2c0,1.5,1.5,2.7,3.4,3.1l-0.3,4.1c-1.5,0.5-2.6,1.6-2.6,3c0,1.2,0.9,2.2,2.1,2.8l-0.9,11l-7.7,6.6l-0.2,0.1v0.2
	v15.5c-3.7,0.9-5.8,2.6-7.4,6c-1.8,4-1.8,10.2-1.8,15.1v0.5c0,3.3-0.7,20.2-1.3,31.6c-2.9,0.5-5.1,1.3-7,1.9
	c-5.1,1.8-7.5,3.7-7.5,3.7v9.4c-2.5,1.7-2.9,3.1-2.9,3.2v0.2l0.1,0.2l9.5,20.3v57.4c-1.5,0.3-2.8,0.7-4,1.1c-6,1.8-8.6,3.6-8.7,3.6
	l-0.1,0.1v10.8l-1.1,0.2H121h-0.1l-3.6,2.2l-0.5,0.3l0.4,0.4l11.2,13.7l2.9,16.9v86.2l-21.2,1.1v-0.4c0-1-0.5-1.7-1.4-2.1
	c0.6-0.3,1.1-1.1,1.1-1.8c0-1.2-1-2-2.1-2c-1.2,0-2,1-2,2c0,0.7,0.4,1.4,1.1,1.8c-0.7,0.4-1.4,1.2-1.4,2.1v20l-1.9,0.1h-0.9l0.4,0.7
	l15.2,29v171.2c-13.2,4.4-18.1,7.9-18.6,8.4c0,0,77.4-13,81.9-13.4c0,0,24.8-2.2,29.2-2.6h0.5c5-0.3,48.5-2.6,54.7-2.7h0.5
	c6.2-0.2,51.7-0.5,56.7-0.5h0.5c6.1,0,50.6,1.3,56.9,1.6h0.5c6.5,0.3,55.2,4.1,55.2,4.1c39,3.3,79.6,13.5,79.6,13.5
	C514.9,586.5,509,582.1,492.2,577.1z"/>
</svg>
