<svg width="512" height="512" viewBox="0 0 512 512" xmlns="http://www.w3.org/2000/svg">
<path d="M256 0C114.843 0 0 114.843 0 256C0 397.157 114.843 512 256 512C301.016 512 345.281 500.156 384.031 477.735L352 422.328C322.969 439.125 289.765 448 256 448C150.125 448 63.9997 361.875 63.9997 256C63.9997 150.125 150.125 63.9997 256 63.9997C361.875 63.9997 448 150.125 448 256V283.875C448 304.813 434.548 320 416 320C398.359 320 383.999 305.64 383.999 287.999V160H339.764C317.252 140.333 288.169 127.999 256 127.999C185.422 127.999 127.999 185.422 127.999 256C127.999 326.578 185.422 384.001 256 384.001C289.609 384.001 319.996 370.709 342.86 349.446C360.483 370.39 386.549 384.001 416 384.001C469.828 384.001 512 340.017 512 283.875V256C512 114.843 397.157 0 256 0V0ZM256 320C220.703 320 192 291.296 192 256C192 220.703 220.704 192 256 192C291.297 192 320 220.704 320 256C320 291.297 291.297 320 256 320V320Z"/>
</svg>
