<svg id="Layer_1" enable-background="new 0 0 512.256 512.256" height="512" viewBox="0 0 512.256 512.256" width="512" xmlns="http://www.w3.org/2000/svg"><path d="m512.256 315.484v-118.713h-52.036c-4.334-14.931-10.3-29.312-17.824-42.969l36.813-36.813-83.942-83.942-36.813 36.813c-13.657-7.524-28.038-13.489-42.97-17.823v-52.037h-118.713v52.037c-14.931 4.333-29.312 10.299-42.969 17.823l-36.813-36.813-83.942 83.942 36.813 36.813c-7.524 13.657-13.489 28.038-17.823 42.969h-52.037v118.713h52.037c4.334 14.931 10.299 29.313 17.823 42.969l-36.813 36.813 83.942 83.942 36.813-36.813c13.657 7.524 28.038 13.489 42.969 17.823v52.037h118.713v-52.037c14.932-4.334 29.313-10.299 42.97-17.823l36.813 36.813 83.942-83.942-36.813-36.813c7.524-13.657 13.49-28.038 17.824-42.969zm-256.128 86.614c-80.488 0-145.97-65.482-145.97-145.97s65.482-145.97 145.97-145.97 145.97 65.482 145.97 145.97-65.482 145.97-145.97 145.97z"/><path d="m256.128 140.158c-63.946 0-115.97 52.024-115.97 115.97s52.024 115.97 115.97 115.97 115.97-52.024 115.97-115.97-52.024-115.97-115.97-115.97zm79.143 98.071c-8.442 8.442-19.532 12.664-30.622 12.664-6.194 0-12.387-1.32-18.119-3.953l-39.591 39.592c7.349 15.997 4.448 35.584-8.71 48.741l-11.098 11.098-21.213-21.214 11.098-11.097c2.513-2.513 3.897-5.854 3.897-9.408s-1.384-6.896-3.897-9.409c-2.514-2.513-5.855-3.897-9.41-3.897-3.554 0-6.896 1.384-9.409 3.897l-11.097 11.098-21.214-21.213 11.097-11.098c13.159-13.157 32.746-16.059 48.742-8.71l39.591-39.591c-7.349-15.997-4.447-35.584 8.71-48.741l11.098-11.098 21.213 21.214-11.098 11.097c-5.188 5.188-5.188 13.629 0 18.817 5.189 5.188 13.631 5.188 18.818 0l11.098-11.097 21.213 21.213z"/></svg>