<svg xmlns="http://www.w3.org/2000/svg" xmlns:xlink="http://www.w3.org/1999/xlink" x="0px" y="0px"
	 viewBox="0 0 485.2 485.2" style="enable-background:new 0 0 485.2 485.2;" xml:space="preserve" height="50px" width="50px">
	<path d="M244,0C143.5,0,62,81.5,62,182s151.6,303.3,182,303.3c30.3,0,182-202.8,182-303.3S344.4,0,244,0z M244,303.3
		c-66.9,0-121.3-54.4-121.3-121.3S177.1,60.7,244,60.7S365.3,115.1,365.3,182S310.9,303.3,244,303.3z"/>
	<path d="M174.9,178.4h40.3c2.3,0,5.1,0,5.1-9.9c0-4.6-9-9.9-15.1-9.9h-29.5c-5.3,0-10.3,3.8-10.8,9
		C164.3,173.4,169,178.4,174.9,178.4z"/>
	<path d="M333,182.4H162.8V123c0-2.2-1.7-4-4-4h-4c-2.2,0-4,1.7-4,4v118.7c0,2.2,1.7,4,4,4h4c2.2,0,4-1.7,4-4v-27.7H325v27.7
		c0,2.2,1.7,4,4,4h4c2.2,0,4-1.7,4-4v-55.4C337,184.1,335.2,182.4,333,182.4z"/>
	<path d="M330.8,211.6c1.9,0.3,4.4,0.5,6.2-0.6v-59.3c0-2.2-1.7-4-4-4h-4c-2.2,0-4,1.7-4,4V210C327,210.6,328.8,211.3,330.8,211.6z"/>
</svg>
