<?xml version="1.0" encoding="utf-8"?>
<!-- Generator: Adobe Illustrator 23.0.0, SVG Export Plug-In . SVG Version: 6.00 Build 0)  -->
<svg version="1.1" id="Capa_1" xmlns="http://www.w3.org/2000/svg" xmlns:xlink="http://www.w3.org/1999/xlink" x="0px" y="0px"
	 viewBox="0 0 20 20" style="enable-background:new 0 0 20 20;" xml:space="preserve">
<style type="text/css">
	.st0{fill:#01BAB4;}
</style>
<g id="XMLID_117_">
	<path id="XMLID_118_" class="st0" d="M15.6,13.2c1.2,0,2.1-0.9,2.1-2.1s-0.9-2.1-2.1-2.1c-1.2,0-2.1,0.9-2.1,2.1
		C13.5,12.3,14.4,13.2,15.6,13.2z"/>
	<path id="XMLID_119_" class="st0" d="M7,4.3c0.1,0,0.3,0,0.4,0c0,0.5,0.1,1,0.5,1.4c0.7,0.9,2,1,2.9,0.3c0.9-0.7,1-2,0.3-2.9
		c-0.7-0.9-2-1-2.9-0.3C8.2,2.5,8,2.3,7.8,2.2C7.4,2,6.9,2.4,6.7,3C6.5,3.5,6.6,4.1,7,4.3z"/>
	<path id="XMLID_120_" class="st0" d="M16.9,15.6h-2.8l-0.4-0.7c0.1-0.3,0.2-0.7,0.1-1.1c-0.2-0.8-0.9-1.2-1.7-1.2
		c0.2-0.1,0.3-0.3,0.4-0.5c0.2-0.6,0-1.2-0.6-1.5L9.8,9.7L8.5,8.4c0,0,0-0.1,0-0.1c0.2-0.7,0-1.4-0.6-1.8C7.1,6,6.1,6.1,5.5,6.9
		c0,0-1.3,2.1-1.9,2.8C3.3,10.1,3,10.3,2,11.1v1.4c0.1,0,0.1,0,0.2,0c0.3,0,0.7,0,1.2,0c0.5,0,1.1,0,1.7,0c0.3,0,0.6,0,1,0
		c0.1,0,0.2,0,0.3,0c0-0.1,0.1-0.1,0.1-0.2c0.3-0.4,0.7-1,1-1.5l0.7,0.7c0.1,0.1,0.2,0.2,0.4,0.2l2.3,1c0.1,0,0.2,0.1,0.3,0.1
		c-0.8,0.3-2.9,1.1-4.1,1.1c-0.8,0-2.8,0-5.2,0v2.3v1.6c1.4,0,3.9,0.1,5.3,0c1.7-0.1,3.5-0.9,4.6-1.5l0.5,0.9c0.2,0.4,0.6,0.6,1,0.6
		h3.4c0.6,0,1.1-0.5,1.1-1.1C18,16.1,17.5,15.6,16.9,15.6z"/>
</g>
</svg>
