<svg xmlns="http://www.w3.org/2000/svg" xmlns:xlink="http://www.w3.org/1999/xlink" x="0px" y="0px"
	 viewBox="0 0 512 512" style="enable-background:new 0 0 512 512;" xml:space="preserve" height="40px" width="40px">
<polygon points="256,0 0,71.1 0,158.5 256,108.3 256,108.3 512,158.5 512,71.1 "/>
<path d="M256,161.8L256,161.8L0,208.3v30.5l7.7-1.3v44L0,282.7v200.9L256,512l256-28.4V208.3L256,161.8z M30.7,275
	c-0.9,2.6-2.2,4.4-3.7,4.4c-1.6,0-2.9-1.8-3.7-4.4c-3.1-2.7-5.2-8.5-5.2-15.3c0-6.4,1.9-11.8,4.7-14.6v-0.6c0-5.6,1.9-10.1,4.3-10.1
	c2.3,0,4.2,4.5,4.2,10.1v0.6c2.8,2.9,4.7,8.2,4.7,14.6C35.9,266.5,33.7,272.3,30.7,275z M93.1,269.2L46.2,276v-45l46.9-7.9V269.2z
	 M116.8,262.5c-0.9,2.8-2.3,4.7-4,4.7c-1.7,0-3.1-1.9-4-4.7c-3.3-2.9-5.6-9.1-5.6-16.4c0-6.9,2.1-12.6,5-15.7v-0.6
	c0-6,2-10.9,4.6-10.9s4.6,4.9,4.6,10.9v0.6c3,3.1,5,8.8,5,15.7C122.4,253.4,120.1,259.6,116.8,262.5z M192.7,254.8l-60.1,8.7v-47
	l60.1-10.1V254.8z M216.4,247.3c-0.9,2.8-2.3,4.7-4,4.7s-3.1-1.9-4-4.7c-3.3-2.9-5.6-9.1-5.6-16.4c0-6.9,2.1-12.6,5-15.7v-0.6
	c0-6,2-10.9,4.6-10.9s4.6,4.9,4.6,10.9v0.6c3,3.1,5,8.8,5,15.7C221.9,238.2,219.6,244.4,216.4,247.3z M256,245.6l-23.9,3.5v-49.4
	l23.9-4V245.6z M279.9,249.1l-23.9-3.5v-50l23.9,4V249.1z M303.7,247.3c-0.9,2.8-2.3,4.7-4,4.7c-1.7,0-3.1-1.9-4-4.7
	c-3.3-2.9-5.6-9.1-5.6-16.4c0-6.9,2.1-12.6,5-15.7v-0.6c0-6,2-10.9,4.6-10.9c2.5,0,4.6,4.9,4.6,10.9v0.6c3,3.1,5,8.8,5,15.7
	C309.2,238.2,306.9,244.4,303.7,247.3z M379.5,263.5l-60.1-8.7v-48.5l60.1,10.1V263.5z M403.2,262.5c-0.9,2.8-2.3,4.7-4,4.7
	c-1.7,0-3.1-1.9-4-4.7c-3.3-2.9-5.6-9.1-5.6-16.4c0-6.9,2.1-12.6,5-15.7v-0.6c0-6,2-10.9,4.6-10.9c2.5,0,4.6,4.9,4.6,10.9v0.6
	c3,3.1,5,8.8,5,15.7C408.8,253.4,406.5,259.6,403.2,262.5z M465.8,276l-46.9-6.8v-46.1l46.9,7.9V276z M488.8,275
	c-0.8,2.6-2.2,4.4-3.7,4.4c-1.6,0-2.9-1.8-3.7-4.4c-3.1-2.7-5.2-8.5-5.2-15.3c0-6.4,1.9-11.8,4.7-14.6v-0.6c0-5.6,1.9-10.1,4.2-10.1
	c2.3,0,4.3,4.5,4.3,10.1v0.6c2.8,2.9,4.7,8.2,4.7,14.6C494,266.5,491.9,272.3,488.8,275z M512,282.7l-7.7-1.1v-44l7.7,1.3V282.7z"/>
</svg>
