<svg height="448pt" viewBox="0 -40 448 448" width="448pt" xmlns="http://www.w3.org/2000/svg">
	<path
			d="m369.015625 291.566406c-45.941406 5.894532-90.894531 17.894532-133.664063 35.671875l-3.351562 1.402344v34.65625l15.648438-6.503906c46.90625-19.515625 96.570312-31.589844 147.199218-35.792969l13.152344-1.070312v-319.929688l-12.207031 1.023438c-48.957031 4.046874-96.976563 15.75-142.304688 34.6875l-21.488281 8.921874v42.664063l33.734375-14.007813c32.40625-13.546874 66.324219-23.136718 101.027344-28.570312 4.363281-.683594 8.457031 2.300781 9.140625 6.664062.6875 4.367188-2.296875 8.460938-6.664063 9.144532-33.433593 5.230468-66.117187 14.472656-97.34375 27.527344l-39.894531 16.554687v38.6875l33.734375-14.007813c32.40625-13.546874 66.324219-23.136718 101.027344-28.570312 4.363281-.683594 8.457031 2.300781 9.140625 6.664062.6875 4.367188-2.296875 8.460938-6.664063 9.144532-33.433593 5.230468-66.117187 14.472656-97.34375 27.527344l-39.894531 16.554687v38.6875l33.734375-14.007813c32.40625-13.546874 66.324219-23.136718 101.027344-28.570312 4.363281-.683594 8.457031 2.300781 9.140625 6.664062.6875 4.367188-2.296875 8.460938-6.664063 9.144532-33.433593 5.230468-66.117187 14.472656-97.34375 27.527344l-39.894531 16.554687v38.6875l33.734375-14.007813c32.40625-13.546874 66.324219-23.136718 101.027344-28.570312 4.363281-.683594 8.457031 2.300781 9.140625 6.664062.6875 4.367188-2.296875 8.460938-6.664063 9.144532-33.433593 5.230468-66.117187 14.472656-97.34375 27.527344l-39.894531 16.554687v38.75c43.25-17.710937 88.628906-29.695313 134.984375-35.65625 2.875-.449219 5.769531.695313 7.558594 2.996094 1.785156 2.300781 2.179687 5.390625 1.03125 8.066406-1.148438 2.675781-3.660157 4.515625-6.558594 4.800781zm0 0"/>
	<path
			d="m52.207031 1.023438-12.207031-1.023438v319.953125l14.199219 1.207031c50.597656 4.230469 100.21875 16.378906 147.046875 36l14.753906 6.136719v-34.695313l-2.398438-1.007812c-43.035156-18.015625-88.3125-30.125-134.59375-36-4.386718-.558594-7.488281-4.566406-6.933593-8.949219.558593-4.386719 4.566406-7.488281 8.949219-6.933593 46.359374 5.910156 91.738281 17.886718 134.976562 35.625v-38.726563l-40-16.609375c-31.195312-13.027344-63.847656-22.253906-97.246094-27.480469-2.890625-.367187-5.351562-2.277343-6.425781-4.988281-1.074219-2.707031-.589844-5.785156 1.261719-8.03125 1.851562-2.25 4.777344-3.3125 7.640625-2.78125 34.667969 5.414062 68.554687 14.992188 100.929687 28.519531l33.839844 14.058594v-38.6875l-40-16.609375c-31.195312-13.027344-63.847656-22.253906-97.246094-27.480469-2.890625-.367187-5.351562-2.277343-6.425781-4.988281-1.074219-2.707031-.589844-5.785156 1.261719-8.03125 1.851562-2.25 4.777344-3.3125 7.640625-2.78125 34.667969 5.414062 68.554687 14.992188 100.929687 28.519531l33.839844 14.058594v-38.6875l-40-16.609375c-31.195312-13.027344-63.847656-22.253906-97.246094-27.480469-2.890625-.367187-5.351562-2.277343-6.425781-4.988281-1.074219-2.707031-.589844-5.785156 1.261719-8.03125 1.851562-2.25 4.777344-3.3125 7.640625-2.78125 34.667969 5.414062 68.554687 14.992188 100.929687 28.519531l33.839844 14.058594v-38.6875l-40-16.609375c-31.195312-13.027344-63.847656-22.253906-97.246094-27.480469-2.890625-.367187-5.351562-2.277343-6.425781-4.988281-1.074219-2.707031-.589844-5.785156 1.261719-8.03125 1.851562-2.25 4.777344-3.3125 7.640625-2.78125 34.667969 5.414062 68.554687 14.992188 100.929687 28.519531l33.839844 14.058594v-42.664063l-21.464844-8.914062c-45.332031-18.941406-93.359375-30.648438-142.328125-34.695312zm0 0"/>
	<path
			d="m448 47.296875h-24v280c.015625 4.171875-3.183594 7.65625-7.34375 8l-20.488281 1.679687c-5.914063.488282-11.8125 1.09375-17.6875 1.816407-1.90625.230469-3.800781.535156-5.695313.800781-3.960937.527344-7.914062 1.0625-11.855468 1.6875-2.296876.367188-4.578126.796875-6.867188 1.199219-3.527344.617187-7.0625 1.230469-10.582031 1.925781-2.402344.480469-4.800781 1.019531-7.25 1.539062-3.351563.710938-6.703125 1.4375-10.03125 2.230469-2.496094.59375-4.984375 1.222657-7.464844 1.855469-3.238281.800781-6.460937 1.664062-9.679687 2.5625-2.503907.6875-5.007813 1.414062-7.503907 2.148438-3.199219.945312-6.351562 1.90625-9.511719 2.914062-2.472656.800781-4.949218 1.601562-7.414062 2.398438-3.164062 1.066406-6.3125 2.167968-9.449219 3.304687-2.398437.871094-4.800781 1.746094-7.253906 2.664063-1.097656.417968-2.1875.863281-3.28125 1.289062h183.359375zm0 0"/>
	<path
			d="m0 47.296875v320h183.488281c-.984375-.386719-1.96875-.800781-2.960937-1.167969-2.289063-.871094-4.597656-1.703125-6.902344-2.542968-3.25-1.179688-6.496094-2.328126-9.769531-3.425782-2.367188-.800781-4.742188-1.578125-7.121094-2.335937-3.246094-1.066407-6.503906-2.070313-9.765625-3.007813-2.402344-.703125-4.800781-1.410156-7.199219-2.082031-3.289062-.910156-6.585937-1.773437-9.890625-2.621094-2.398437-.617187-4.800781-1.234375-7.253906-1.808593-3.351562-.800782-6.722656-1.535157-10.089844-2.257813-2.398437-.519531-4.800781-1.046875-7.199218-1.527344-3.488282-.6875-6.992188-1.304687-10.496094-1.917969-2.296875-.402343-4.59375-.800781-6.894532-1.210937-3.867187-.613281-7.746093-1.132813-11.625-1.65625-1.960937-.261719-3.90625-.574219-5.863281-.796875-5.867187-.710938-11.734375-1.316406-17.601562-1.816406l-21.535157-1.824219c-4.152343-.355469-7.335937-3.835937-7.320312-8v-280zm0 0"/>
</svg>
