<svg xmlns="http://www.w3.org/2000/svg" xmlns:xlink="http://www.w3.org/1999/xlink" x="0px" y="0px"
	 viewBox="0 0 153.2 153.2" style="enable-background:new 0 0 153.2 153.2;" xml:space="preserve">
		<path style="fill:#01bab4;" d="M77.1,35.5l-37,8v52.7l0.5,0.1v7.8l36.5,11.4l36.7-11.4v-7.8l0.5-0.1V43.5L77.1,35.5z M43.1,45.3
			L43.1,45.3l34-7.4l34.1,7.4v0.1l-34.1,9L43.1,45.3L43.1,45.3L43.1,45.3z M41.1,55.5l36.1,10.3l36.3-10v4.7l-17.8,4.9l-18.5,5.2
			L41.1,60.6V55.5z M113,99.3c-0.9,0.3-35.3,11-35.7,11.1c-0.4-0.1-32.2-10.2-35.4-11.2V97l35.5,11.1L113,97V99.3L113,99.3z
			 M76.9,114.5l-35-11.1v-2.7l35.4,11.2l35.7-11v2.3L76.9,114.5z"/>
	<g transform="translate(773.824 1040.8)">
		<circle style="fill:none;" cx="-696.7" cy="-964.7" r="75.9"/>
		<circle style="fill:none;stroke:#01bab4;stroke-width:2;" cx="-696.7" cy="-964.7" r="73.9"/>
	</g>
</svg>
