<svg width="384" height="512" viewBox="0 0 384 512" fill="none" xmlns="http://www.w3.org/2000/svg">
<path d="M192 0C86.125 0 0 86.135 0 192C0 333.646 177.146 502 184.688 509.104C186.75 511.031 189.375 512 192 512C194.625 512 197.25 511.031 199.313 509.104C206.854 502 384 333.646 384 192C384 86.135 297.875 0 192 0ZM192 298.667C133.187 298.667 85.333 250.813 85.333 192C85.333 133.187 133.188 85.333 192 85.333C250.812 85.333 298.667 133.188 298.667 192C298.667 250.812 250.813 298.667 192 298.667Z" fill="black"/>
</svg>
