<?xml version="1.0" encoding="utf-8"?>
<!-- Generator: Adobe Illustrator 23.0.0, SVG Export Plug-In . SVG Version: 6.00 Build 0)  -->
<svg version="1.1" id="Capa_1" xmlns="http://www.w3.org/2000/svg" xmlns:xlink="http://www.w3.org/1999/xlink" x="0px" y="0px"
	 viewBox="0 0 20 20" style="enable-background:new 0 0 20 20;" xml:space="preserve">
<style type="text/css">
	.st0{fill:#01BAB4;}
</style>
<g>
	<g>
		<circle class="st0" cx="14.4" cy="6.6" r="2.6"/>
		<path class="st0" d="M8.8,7.1L5.6,9.4c0.1,0,0.3,0,0.5,0c0.8,0,1.2,0.3,1.5,0.6c0.2,0.2,0.3,0.2,0.5,0.2c0.2,0,0.3-0.1,0.5-0.2
			C8.8,9.7,9.3,9.4,10,9.4c0.8,0,1.2,0.3,1.5,0.6c0.2,0.2,0.3,0.2,0.5,0.2c0.2,0,0.3-0.1,0.5-0.2c0.1-0.1,0.2-0.2,0.3-0.3l-2.3-3.9
			L7.5,3.5l-3.6,1L3.5,6.6l3.7-0.7L8.8,7.1z"/>
		<path class="st0" d="M16.5,11.8c-0.2,0.2-0.3,0.2-0.5,0.2c-0.2,0-0.3-0.1-0.5-0.2c-0.3-0.2-0.7-0.6-1.5-0.6s-1.2,0.3-1.5,0.6
			c-0.2,0.2-0.3,0.2-0.5,0.2c-0.2,0-0.3-0.1-0.5-0.2c-0.3-0.2-0.7-0.6-1.5-0.6c-0.8,0-1.2,0.3-1.5,0.6C8.3,12,8.2,12.1,8,12.1
			c-0.2,0-0.3-0.1-0.5-0.2c-0.3-0.2-0.7-0.6-1.5-0.6s-1.2,0.3-1.5,0.6C4.3,12,4.2,12.1,4,12.1c-0.2,0-0.3-0.1-0.5-0.2
			c-0.3-0.2-0.7-0.6-1.5-0.6v1.6c0.2,0,0.3,0.1,0.5,0.2c0.3,0.2,0.7,0.6,1.5,0.6c0.8,0,1.2-0.3,1.5-0.6c0.2-0.2,0.3-0.2,0.5-0.2
			c0.2,0,0.3,0.1,0.5,0.2c0.3,0.2,0.7,0.6,1.5,0.6s1.2-0.3,1.5-0.6c0.2-0.2,0.3-0.2,0.5-0.2c0.2,0,0.3,0.1,0.5,0.2
			c0.3,0.2,0.7,0.6,1.5,0.6c0.8,0,1.2-0.3,1.5-0.6c0.2-0.2,0.3-0.2,0.5-0.2c0.2,0,0.3,0.1,0.5,0.2c0.3,0.2,0.7,0.6,1.5,0.6
			c0.8,0,1.2-0.3,1.5-0.6c0.2-0.2,0.3-0.2,0.5-0.2v-1.6C17.2,11.3,16.8,11.6,16.5,11.8z"/>
		<path class="st0" d="M16.5,14.6c-0.2,0.2-0.3,0.2-0.5,0.2c-0.2,0-0.3-0.1-0.5-0.2c-0.3-0.2-0.7-0.6-1.5-0.6s-1.2,0.3-1.5,0.6
			c-0.2,0.2-0.3,0.2-0.5,0.2c-0.2,0-0.3-0.1-0.5-0.2c-0.3-0.2-0.7-0.6-1.5-0.6c-0.8,0-1.2,0.3-1.5,0.6c-0.2,0.2-0.3,0.2-0.5,0.2
			c-0.2,0-0.3-0.1-0.5-0.2c-0.3-0.2-0.7-0.6-1.5-0.6s-1.2,0.3-1.5,0.6c-0.2,0.2-0.3,0.2-0.5,0.2c-0.2,0-0.3-0.1-0.5-0.2
			c-0.3-0.2-0.7-0.6-1.5-0.6v1.6c0.2,0,0.3,0.1,0.5,0.2c0.3,0.2,0.7,0.6,1.5,0.6c0.8,0,1.2-0.3,1.5-0.6c0.2-0.2,0.3-0.2,0.5-0.2
			c0.2,0,0.3,0.1,0.5,0.2c0.3,0.2,0.7,0.6,1.5,0.6s1.2-0.3,1.5-0.6c0.2-0.2,0.3-0.2,0.5-0.2c0.2,0,0.3,0.1,0.5,0.2
			c0.3,0.2,0.7,0.6,1.5,0.6c0.8,0,1.2-0.3,1.5-0.6c0.2-0.2,0.3-0.2,0.5-0.2c0.2,0,0.3,0.1,0.5,0.2c0.3,0.2,0.7,0.6,1.5,0.6
			c0.8,0,1.2-0.3,1.5-0.6c0.2-0.2,0.3-0.2,0.5-0.2v-1.6C17.2,14.1,16.8,14.4,16.5,14.6z"/>
	</g>
</g>
</svg>
