<svg  xmlns="http://www.w3.org/2000/svg" xmlns:xlink="http://www.w3.org/1999/xlink" x="0px" y="0px" viewBox="0 0 800 800" style="enable-background:new 0 0 800 800;" xml:space="preserve">
	<style type="text/css">
		.st0{fill:#29c4bf;}
		.st1{opacity:0.97;fill:#29c4bf;}
		.st2{opacity:0.95;fill:#29c4bf;}
		.st3{opacity:0.9;fill:#29c4bf;}
		.st4{opacity:0.8;fill:#29c4bf;}
		.st5{opacity:0.7;fill:#29c4bf;}
		.st6{opacity:0.5;fill:#29c4bf;}
		.st7{opacity:0.4;fill:#29c4bf;}
		.st8{opacity:0.3;fill:#29c4bf;}
		.st9{opacity:0.2;fill:#29c4bf;}
		.st10{opacity:0.1;fill:#29c4bf;}
		.st11{fill:none;}
	</style>
	<path class="st0" d="M350,202.1c4.4,12.1-1.9,25.5-14,29.9l0,0c-12.1,4.4-25.5-1.9-29.9-14L246.5,53.1c-4.4-12.1,1.9-25.5,14-29.9
		l0,0c12.1-4.4,25.5,1.9,29.9,14L350,202.1z"/>
	<path class="st1" d="M257.5,253.6c9.9,8.3,11.1,23,2.8,32.9l0,0c-8.3,9.9-23,11.1-32.9,2.8l-134-112.9c-9.8-8.3-11.1-23-2.8-32.9
		l0,0c8.3-9.9,23-11.1,32.9-2.8L257.5,253.6z"/>
	<path class="st2" d="M203.3,344.5c12.7,2.3,21.1,14.4,18.9,27.1l0,0c-2.3,12.7-14.4,21.1-27.1,18.9L22.6,359.7
		c-12.7-2.3-21.1-14.4-18.9-27.1l0,0c2.3-12.7,14.4-21.1,27.1-18.9L203.3,344.5z"/>
	<path class="st3" d="M201.8,450.3c12.1-4.4,25.5,1.9,29.9,14l0,0c4.4,12.1-1.9,25.5-14,29.9L52.8,553.8c-12.1,4.4-25.5-1.9-29.9-14
		l0,0c-4.4-12.1,1.9-25.5,14-29.9L201.8,450.3z"/>
	<path class="st3" d="M253.3,542.8c8.3-9.8,23-11.1,32.9-2.8l0,0c9.9,8.3,11.1,23,2.8,32.9l-112.9,134c-8.3,9.9-23,11.1-32.9,2.8
		l0,0c-9.9-8.3-11.1-23-2.8-32.9L253.3,542.8z"/>
	<path class="st4" d="M344.2,597c2.3-12.7,14.4-21.2,27.1-18.9l0,0c12.7,2.3,21.1,14.4,18.9,27.1l-30.8,172.5
		c-2.3,12.7-14.4,21.1-27.1,18.9l0,0c-12.7-2.3-21.2-14.4-18.9-27.1L344.2,597z"/>
	<path class="st5" d="M450,598.6c-4.4-12.1,1.9-25.5,14-29.9l0,0c12.1-4.4,25.5,1.9,29.9,14l59.6,164.8c4.4,12.1-1.9,25.5-14,29.9
		l0,0c-12.1,4.4-25.5-1.9-29.9-14L450,598.6z"/>
	<path class="st6" d="M542.4,547c-9.9-8.3-11.1-23-2.8-32.9l0,0c8.3-9.9,23-11.1,32.9-2.8l134,112.9c9.9,8.3,11.1,23,2.8,32.9l0,0
		c-8.3,9.9-23,11.1-32.9,2.8L542.4,547z"/>
	<path class="st7" d="M596.7,456.1c-12.7-2.3-21.1-14.4-18.9-27.1l0,0c2.3-12.7,14.4-21.1,27.1-18.9L777.4,441
		c12.7,2.3,21.1,14.4,18.8,27.1l0,0c-2.3,12.7-14.4,21.1-27,18.9L596.7,456.1z"/>
	<path class="st8" d="M598.3,350.3c-12.1,4.4-25.5-1.9-29.9-14l0,0c-4.4-12.1,1.9-25.5,14-29.9l164.8-59.6
		c12.1-4.4,25.5,1.9,29.9,14l0,0c4.4,12.1-1.9,25.5-14,29.9L598.3,350.3z"/>
	<path class="st9" d="M546.7,257.9c-8.3,9.9-23,11.1-32.9,2.8l0,0c-9.9-8.3-11.1-23-2.8-32.9l113-134c8.3-9.9,23-11.1,32.9-2.8l0,0
		c9.9,8.3,11.1,23,2.8,32.9L546.7,257.9z"/>
	<path class="st10" d="M455.8,203.6c-2.3,12.7-14.4,21.1-27.1,18.9l0,0c-12.7-2.3-21.1-14.4-18.9-27.1l30.8-172.6
		C442.9,10.2,455,1.8,467.7,4l0,0c12.7,2.3,21.1,14.4,18.9,27.1L455.8,203.6z"/>
	<path class="st11" d="M238.9,151.2c-48.4-137.1-60-258-25.9-270c34.1-12,100.9,89.4,149.3,226.5c48.4,137.1,59.9,258,25.9,270
		C354.1,389.7,287.2,288.3,238.9,151.2z"/>
</svg>
