<?xml version="1.0" encoding="utf-8"?>
<!-- Generator: Adobe Illustrator 23.0.0, SVG Export Plug-In . SVG Version: 6.00 Build 0)  -->
<svg version="1.1" id="Layer_1" xmlns="http://www.w3.org/2000/svg" xmlns:xlink="http://www.w3.org/1999/xlink" x="0px" y="0px"
	 viewBox="0 0 20 20" style="enable-background:new 0 0 20 20;" xml:space="preserve">
<style type="text/css">
	.st0{fill:#01BAB4;}
</style>
<g>
	<g>
		<g>
			<path class="st0" d="M17,5.3h-1v-2C16,2.6,15.4,2,14.7,2h-1c-0.2,0-0.3,0.1-0.3,0.3v0.5c-0.2-0.1-0.4-0.2-0.7-0.2H4
				C3.3,2.7,2.7,3.3,2.7,4v12c0,0.7,0.6,1.3,1.3,1.3h8.7c0.2,0,0.5-0.1,0.7-0.2v0.5c0,0.2,0.1,0.3,0.3,0.3h1c0.7,0,1.3-0.6,1.3-1.3
				V12h1c0.2,0,0.3-0.1,0.3-0.3v-6C17.3,5.5,17.2,5.3,17,5.3z M12,15.3H4.7V4.7H12V15.3z M16.7,11.3H16V6h0.7V11.3z"/>
			<path class="st0" d="M5.7,14.7h1c0.2,0,0.3-0.1,0.3-0.3V14c0-0.4,0.1-0.8,0.2-1l0,0c0.1-0.2,0.1-0.3,0.1-0.4c0-0.1,0-0.2-0.1-0.5
				C7.1,11.8,7,11.3,7,10.5c0-0.9,0.4-1.6,0.7-2.1l0.1-0.2c0-0.1,0.1-0.2,0-0.2C7.7,7.8,7.7,7.5,7.7,7.4c0-0.1,0-0.2,0-0.3
				c0-0.1,0-0.2-0.1-0.3S7.5,6.7,7.4,6.7H6.6c-0.1,0-0.2,0.1-0.3,0.2L6.1,7.2c0,0,0,0.1,0,0.2c0,0.3,0,0.6,0.2,0.8
				c0,0.2-0.2,0.4-0.3,0.7c-0.3,0.4-0.6,1-0.6,1.7c0,0.7,0.1,1.1,0.2,1.4c0.1,0.2,0.1,0.4,0.1,0.7c0,0.3-0.1,0.5-0.2,0.7
				c-0.1,0.2-0.2,0.4-0.2,0.7v0.3C5.3,14.5,5.5,14.7,5.7,14.7z"/>
			<path class="st0" d="M7.7,10.5c0,0.7,0.1,1.1,0.2,1.4C7.9,12.1,8,12.3,8,12.6c0,0.3-0.1,0.5-0.2,0.7c-0.1,0.2-0.2,0.4-0.2,0.7
				v0.3c0,0.2,0.1,0.3,0.3,0.3h2.7c0.2,0,0.3-0.1,0.3-0.3V14c0-0.3-0.1-0.5-0.2-0.7c-0.1-0.2-0.2-0.4-0.2-0.7c0-0.3,0.1-0.4,0.1-0.7
				c0.1-0.3,0.2-0.7,0.2-1.4c0-0.7-0.3-1.3-0.5-1.7c-0.1-0.3-0.2-0.5-0.3-0.7c0.1-0.2,0.1-0.5,0.1-0.8c0-0.1,0-0.1,0-0.1l-0.2-0.3
				C10.1,6.7,10,6.7,9.9,6.7H8.8c-0.1,0-0.2,0.1-0.3,0.2L8.3,7.2c0,0,0,0.1,0,0.2c0,0.3,0,0.6,0.1,0.8c0,0.2-0.2,0.4-0.3,0.7
				C7.9,9.2,7.7,9.8,7.7,10.5z"/>
		</g>
	</g>
</g>
</svg>
