<svg height="52px" viewBox="0 -7 512 512" width="52px" xmlns="http://www.w3.org/2000/svg">
        <path d="m401.464844 153.480469c-60.953125 0-110.539063 49.585937-110.539063 110.539062 0 15.433594 3.128907 30.382813 9.304688 44.429688.066406.148437.132812.296875.207031.445312l28.167969 56.417969c2.46875 4.941406 8.472656 6.945312 13.414062 4.480469 4.941407-2.46875 6.949219-8.472657 4.480469-13.414063l-28.058594-56.195312c-4.988281-11.429688-7.515625-23.597656-7.515625-36.167969 0-49.921875 40.613281-90.535156 90.535157-90.535156 49.925781 0 90.539062 40.613281 90.539062 90.535156 0 12.570313-2.53125 24.738281-7.519531 36.167969l-83.019531 166.28125-19.222657-38.5c-2.46875-4.941406-8.476562-6.945313-13.414062-4.480469-4.941407 2.46875-6.945313 8.472656-4.480469 13.414063l20.949219 41.953124h-304.601563c-25.300781 0-45.886718-20.585937-45.886718-45.886718 0-25.304688 20.582031-45.886719 45.886718-45.886719h94.933594c36.332031 0 65.886719-29.558594 65.886719-65.890625 0-36.328125-29.554688-65.886719-65.886719-65.886719h-70.570312l65.027343-130.242187c.074219-.148438.144531-.292969.207031-.441406 4.96875-11.296876 7.484376-23.316407 7.484376-35.730469 0-49.011719-39.875-88.886719-88.886719-88.886719s-88.886719 39.875-88.886719 88.886719c0 12.410156 2.515625 24.433593 7.480469 35.730469.066406.148437.136719.296874.210937.441406l18.253906 36.5625c2.464844 4.941406 8.472657 6.949218 13.414063 4.480468 4.941406-2.464843 6.945313-8.472656 4.480469-13.414062l-18.144532-36.335938c-3.78125-8.679687-5.695312-17.921874-5.695312-27.464843 0-37.984375 30.902344-68.886719 68.886719-68.886719s68.886719 30.902344 68.886719 68.886719c0 9.546875-1.917969 18.785156-5.695313 27.464843l-63.191406 126.5625-9.308594-18.640624c-2.464844-4.941407-8.46875-6.945313-13.414063-4.480469-4.9375 2.46875-6.945312 8.472656-4.476562 13.414062l18.253906 36.5625c.011719.03125.035156.054688.046875.085938.195313.378906.410157.746093.648438 1.097656.027343.039063.0625.078125.089843.121094.210938.296875.441407.582031.683594.851562.070313.085938.144532.167969.222656.246094.273438.292969.5625.570313.871094.828125.003906.003906.007813.007812.015625.011719.316407.265625.65625.5 1.003907.722656.082031.050781.164062.101563.246093.148437.308594.1875.628907.355469.960938.507813.046875.023437.097656.050781.148437.070313.382813.167968.777344.3125 1.1875.433593.070313.019531.140625.035157.210938.054688.335937.089843.675781.160156 1.023437.214843.105469.019532.210938.035157.316407.050782.417968.050781.835937.089844 1.269531.089844h86.738281c25.304688 0 45.886719 20.582031 45.886719 45.886718 0 25.300782-20.582031 45.886719-45.886719 45.886719h-94.933594c-36.332031 0-65.886718 29.558594-65.886718 65.886719 0 36.332031 29.554687 65.890625 65.886718 65.890625h320.769532.003906c.429687 0 .847656-.039063 1.265625-.089844.105469-.015625.214843-.03125.320312-.050781.34375-.054688.683594-.125 1.015625-.214844.070313-.019531.148438-.035156.21875-.058594.40625-.117187.800782-.261718 1.179688-.425781.058594-.027344.113281-.054687.167968-.082031.324219-.148438.636719-.316406.9375-.496094.089844-.050781.175782-.101562.265626-.160156.34375-.21875.675781-.453125.988281-.710938.019531-.015625.035156-.03125.054687-.046875.292969-.246093.566406-.511719.832032-.789062.082031-.085938.160156-.175781.238281-.265625.230469-.261719.449219-.53125.648437-.8125.039063-.054688.082032-.105469.121094-.160156.234375-.339844.441406-.703126.632812-1.074219.019532-.035157.042969-.0625.058594-.097657l92.078125-184.425781c.074219-.148437.144531-.296875.207031-.445312 6.175782-14.046875 9.304688-28.992188 9.304688-44.429688 0-60.953125-49.585938-110.539062-110.535156-110.539062zm0 0"/>
        <path d="m142.335938 88.886719c0-29.472657-23.976563-53.449219-53.449219-53.449219-29.472657 0-53.449219 23.976562-53.449219 53.449219 0 29.472656 23.976562 53.449219 53.449219 53.449219 29.472656 0 53.449219-23.976563 53.449219-53.449219zm-86.898438 0c0-18.445313 15.003906-33.449219 33.449219-33.449219 18.441406 0 33.449219 15.003906 33.449219 33.449219 0 18.441406-15.007813 33.449219-33.449219 33.449219-18.445313 0-33.449219-15.007813-33.449219-33.449219zm0 0"/>
        <path d="m466.835938 264.015625c0-36.046875-29.324219-65.371094-65.371094-65.371094-36.050782 0-65.375 29.328125-65.375 65.371094 0 36.046875 29.324218 65.375 65.375 65.375 36.046875 0 65.371094-29.328125 65.371094-65.375zm-110.746094 0c0-25.019531 20.351562-45.371094 45.375-45.371094 25.019531 0 45.371094 20.351563 45.371094 45.371094s-20.351563 45.375-45.371094 45.375c-25.023438 0-45.375-20.355469-45.375-45.375zm0 0"/>
        <path d="m355.421875 406.640625c5.507813 0 10-4.492187 10-10s-4.492187-10-10-10-10 4.492187-10 10 4.492187 10 10 10zm0 0"/>
        <path d="m52.761719 202.945312c5.507812 0 10-4.492187 10-10 0-5.507812-4.492188-10-10-10-5.507813 0-10 4.492188-10 10 0 5.507813 4.492187 10 10 10zm0 0"/>
</svg>