<?xml version="1.0" encoding="utf-8"?>
<!-- Generator: Adobe Illustrator 23.0.0, SVG Export Plug-In . SVG Version: 6.00 Build 0)  -->
<svg version="1.1" id="Capa_1" xmlns="http://www.w3.org/2000/svg" xmlns:xlink="http://www.w3.org/1999/xlink" x="0px" y="0px"
	 viewBox="0 0 20 20" style="enable-background:new 0 0 20 20;" xml:space="preserve">
<style type="text/css">
	.st0{fill:#01BAB4;}
</style>
<g>
	<path class="st0" d="M8.2,6.3l0.2,1.4C9,7.8,9.4,8.3,9.4,8.9c0,0.7-0.6,1.3-1.3,1.3c-0.7,0-1.3-0.6-1.3-1.3c0-0.6,0.4-1.1,0.9-1.3
		l0.2-1.4C6.4,6.4,5.4,7.5,5.4,8.9c0,1.5,1.2,2.7,2.7,2.7c1.5,0,2.7-1.2,2.7-2.7C10.7,7.5,9.6,6.4,8.2,6.3z"/>
	<path class="st0" d="M16.5,2H3.5C2.7,2,2.1,2.6,2.1,3.4v11.7c0,0.8,0.6,1.4,1.4,1.4h0.3v1.1c0,0.2,0.1,0.3,0.3,0.3h2.3
		c0.2,0,0.3-0.1,0.3-0.3v-1.1h6.7v1.1c0,0.2,0.1,0.3,0.3,0.3h2.3c0.2,0,0.3-0.1,0.3-0.3v-1.1h0.3c0.8,0,1.4-0.6,1.4-1.4V3.4
		C17.9,2.6,17.3,2,16.5,2z M8,12.8c-2.2,0-3.9-1.8-3.9-3.9C4.1,6.8,5.9,5,8,5C10.2,5,12,6.8,12,8.9C12,11.1,10.2,12.8,8,12.8z
		 M15.4,8.9v1.8c0,0.4-0.3,0.8-0.8,0.8s-0.8-0.3-0.8-0.8V8.9c-0.3-0.2-0.6-0.6-0.6-1.1c0-0.7,0.6-1.3,1.3-1.3c0.7,0,1.3,0.6,1.3,1.3
		C16,8.2,15.8,8.6,15.4,8.9z"/>
</g>
</svg>
