<svg xmlns="http://www.w3.org/2000/svg" xmlns:xlink="http://www.w3.org/1999/xlink" x="0px" y="0px"  width="72px" height="72px"
	 viewBox="0 0 440 440" style="enable-background:new 0 0 440 440;" xml:space="preserve">
	<path fill="none" stroke="#01bab4" stroke-width="14" stroke-miterlimit="10" d="M220,12c-84.8,0-156.6,3.7-168.2,8.6c-0.2,0.1-0.4,0.2-0.7,0.3c-0.1,0-0.2,0.1-0.3,0.1
		C41.6,24.9,35,41.2,35,60.1v40H25H0v15v65h30v-60h5v175h70v30H35v35c0,7.1,1.9,13.7,5,17.3V420c0,5.5,4.5,10,10,10h30
		c5.5,0,10-4.5,10-10v-30h260v30c0,5.5,4.5,10,10,10h30c5.5,0,10-4.5,10-10v-42.7c3.1-3.6,5-10.2,5-17.3v-35h-70v-30h70V120h5v60h30
		v-65v-15h-25h-10V60c0-19.5-7-36.1-16.6-39.4C377.5,15.7,305.4,12,220,12L220,12z"/>
	<path fill="none" stroke="#01bab4" stroke-width="10" stroke-miterlimit="10" d="M65,37.1h310c5.5,0,10,4.2,10,18v20H55v-20C55,41.2,59.5,37.1,65,37.1z"/>
	<path fill="none" stroke="#01bab4" stroke-width="8" stroke-miterlimit="10" d="M74,90.1h302c5.5,0,10,4.5,10,10v150c0,5.5-4.5,10-10,10h-30.6l-8.8-4.4l14.1,0.1c3.9,0.1,6.9-4.4,3.8-8.6
		c-2.9-1.4-3.3-1.4-3.8-1.4l-152.5-1c-4-0.1-6.9,4.5-3.8,8.7c2.9,1.3,3.2,1.3,3.7,1.3l115.6,0.8l22.8,11.4c-0.6,0.1-1.1,0.2-1.7,0.2
		H105c-1.3,0-2.6-0.3-3.8-0.7l28.4-17.6l123.9-8c4.2-0.2,7-5.7,2.3-9.8c0,0,0,0,0,0c-1,0-1.9-0.3-2.9-0.2L94.4,240.9
		c-2.8,0.1-4.9,2.5-4.8,5.2s2.5,4.9,5.2,4.8c0.1,0,0.1,0,0.2,0l13.5-0.9l-16.1,10H64c-5.5,0-10-4.5-10-10V100c0-5.5,4.3-10,9.8-10
		H74z"/>
</svg>
