<svg xmlns="http://www.w3.org/2000/svg" xmlns:xlink="http://www.w3.org/1999/xlink" x="0px" y="0px"
	 viewBox="0 0 332.1 332.1" style="enable-background:new 0 0 332.1 332.1;" xml:space="preserve">
		<path d="M2.7,174.7c-2.2,3.4-5.2,19.4,0.8,31.2c3.5,6.9,9.6,11.2,17.7,12.5c-0.1-0.9-0.2-1.9-0.3-2.8c0-0.7-0.1-1.3-0.1-2
			c0-0.3,0-0.5,0-0.8c0.4-18.6,15.7-33.7,34.4-33.7c19,0,34.5,15.5,34.5,34.5c0,0.6-0.1,1.2-0.1,1.9c0,0.9-0.1,1.8-0.2,2.6
			c-0.1,0.9-0.2,1.8-0.4,2.6c42.4,1.1,97.2,2.3,140.2,3.2c-0.3-0.9-0.5-1.8-0.7-2.7c-0.2-0.9-0.4-1.8-0.5-2.7
			c-0.2-1.7-0.4-3.3-0.4-5c0-19,15.5-34.5,34.5-34.5s34.5,15.5,34.5,34.5c0,2.2-0.2,4.4-0.6,6.5c-0.2,0.9-0.4,1.8-0.6,2.6
			c-0.2,0.9-0.5,1.8-0.8,2.6c3.1,0.1,4.8,0.1,5,0.1c-0.1,0,3.3,0.5,7.9,0.5c14.3,0,22.8-4.3,24.6-12.6l0.1-0.6v-30.9l-0.6-0.7
			c0,0-1.2-1.8-1.8-6.2c-0.7-5.5-4.9-10.2-7.5-12.1c-1.2-4-7.5-14.5-40.3-21c-23.2-4.6-30.7-7.3-33.1-8.5l-1.4-1.3
			c-1.9-1.8-47.8-43.9-106.3-42.8c-40.1,0.9-66.9,6.4-81.3,9.3c-5.6,1.2-9.6,2-11.6,2c-1-0.1-1.4-0.1-1.8-0.1
			c-2.8,0-4.4,1.3-5.3,2.3c-1.8,2.2-1.9,5.5-1.5,8.2c-1,1-3.5,3-5.6,4.7c-8.3,6.7-14.8,12.3-16.4,16.7c-0.2,0.6-0.4,0.8-0.4,0.8
			c-0.5,0-0.9-0.1-1.2-0.1c-0.5-0.1-1.1-0.1-1.6-0.1c-5.3,0-6.8,5.1-7.5,9c-1,5.5-1.5,11.8-2,17.5C4.5,165.7,3.9,172.9,2.7,174.7z"
			/>
		<path d="M289.9,222.6c0.3-0.9,0.5-1.7,0.7-2.6c0.5-2.1,0.7-4.2,0.7-6.4c0-16.1-13.1-29.2-29.2-29.2c-16.1,0-29.2,13.1-29.2,29.2
			c0,1.8,0.2,3.5,0.5,5.2c0.2,0.9,0.4,1.8,0.6,2.7c0.3,0.9,0.6,1.8,0.9,2.7c4.2,10.9,14.8,18.7,27.2,18.7c12,0,22.3-7.2,26.7-17.5
			C289.3,224.4,289.6,223.5,289.9,222.6z"/>
		<path d="M84.1,218c0.1-0.9,0.2-1.8,0.3-2.6c0-0.6,0.1-1.1,0.1-1.7c0-16.1-13.1-29.2-29.2-29.2c-16.1,0-29.1,13-29.2,29.1
			c0,0,0,0,0,0.1c0,0.9,0.1,1.7,0.1,2.6c0.1,0.9,0.2,1.8,0.4,2.7c2.5,13.6,14.4,23.9,28.7,23.9c13.7,0,25.1-9.4,28.3-22.1
			C83.8,219.8,84,218.9,84.1,218z"/>
</svg>
