<?xml version="1.0" encoding="utf-8"?>
<!-- Generator: Adobe Illustrator 23.0.0, SVG Export Plug-In . SVG Version: 6.00 Build 0)  -->
<svg version="1.1" id="Capa_1" xmlns="http://www.w3.org/2000/svg" xmlns:xlink="http://www.w3.org/1999/xlink" x="0px" y="0px"
	 viewBox="0 0 20 20" style="enable-background:new 0 0 20 20;" xml:space="preserve">
<style type="text/css">
	.st0{fill:#01BAB4;}
	.st1{display:none;fill:#01BAB4;}
</style>
<g>
	<path class="st0" d="M15.1,6.3c-0.3-0.7-0.7-1.4-1.2-1.9c-0.5-0.5-1.2-0.9-2-1.1c0,0,0,0,0,0C11,2.5,9.9,2,8.7,2S6.3,2.5,5.4,3.4
		S4,5.4,4,6.6c0,0.3,0,0.6,0.1,0.9C3.9,8.2,3.8,9,3.8,9.8c0,1.3,0.5,2.7,1.3,4.1c0,0,0,0,0,0C5.4,16.2,7.4,18,9.8,18
		c2.1,0,4-1.4,4.6-3.3c0.2-0.1,0.3-0.3,0.5-0.4c0.9-0.9,1.4-2,1.4-3.3c0-0.8-0.2-1.7-0.7-2.4C15.6,8.2,15.5,7.3,15.1,6.3z M12,13.8
		c-0.6,0-1-0.5-1-1c0-0.6,0.5-1,1-1c0.6,0,1,0.5,1,1C13,13.3,12.5,13.8,12,13.8z M12.5,9.3H15c0.3,0.5,0.4,1.1,0.4,1.7
		c0,0.8-0.3,1.6-0.8,2.3c0,0,0,0,0-0.1C14.6,11.6,13.8,10.1,12.5,9.3z M14.7,8.4h-0.3c-1.3,0-2.6,0-3.8,0c-0.9,0-1.9,0.1-2.7,0.5
		c-1.4,0.6-2.2,2-2.6,3.4c0,0,0-0.1-0.1-0.1c-0.3-0.8-0.5-1.6-0.5-2.4c0-0.3,0-0.5,0-0.8c0-0.2,0.1-0.5,0.1-0.7C4.8,8,4.9,7.8,5,7.6
		c0.1-0.2,0.2-0.5,0.3-0.7C5.9,6,6.6,5.3,7.6,4.7C8.5,4.2,9.5,4,10.4,4C10.7,4,11,4,11.2,4c0.1,0,0.2,0,0.2,0.1
		c0.2,0.1,0.5,0.1,0.7,0.2c0.2,0.1,0.5,0.2,0.7,0.4c0.7,0.4,1.2,1.1,1.5,1.9c0.1,0.3,0.2,0.6,0.2,0.9c0,0.2,0.1,0.5,0.1,0.7
		C14.7,8.3,14.7,8.3,14.7,8.4z M8.7,2.8c0.5,0,1,0.1,1.5,0.3c-1,0-2,0.3-3,0.9C6.3,4.5,5.5,5.2,4.9,6C5,5.2,5.4,4.5,6,3.9
		C6.7,3.2,7.6,2.8,8.7,2.8z M7.7,13.8c-0.6,0-1-0.5-1-1c0-0.3,0.1-0.6,0.4-0.8c0.1-0.1,0.2-0.2,0.4-0.2c0.1,0,0.2,0,0.3,0
		c0.1,0,0.1,0,0.2,0c0.5,0.1,0.8,0.5,0.8,1c0,0.2-0.1,0.4-0.1,0.5c-0.1,0.1-0.2,0.2-0.3,0.3c-0.1,0.1-0.3,0.1-0.4,0.2
		C7.8,13.8,7.8,13.8,7.7,13.8z M10.6,16.6c-0.1,0.2-0.4,0.4-0.8,0.4s-0.7-0.2-0.8-0.4c0-0.1,0.1-0.2,0.2-0.2h1.2
		C10.5,16.4,10.6,16.5,10.6,16.6z M10.4,16H9.3c-0.1,0-0.2-0.1-0.2-0.2c0.1-0.2,0.2-0.3,0.5-0.4c0,0,0.1,0,0.1,0l0.1,0
		c0,0,0.1,0,0.1,0l0.1,0c0,0,0.1,0,0.1,0c0.3,0,0.4,0.2,0.5,0.4C10.6,15.9,10.5,16,10.4,16z"/>
	<path class="st1" d="M8.4,13.1c0-0.1,0-0.1,0-0.2c0-0.1-0.1-0.2-0.3-0.2c0,0,0,0-0.1,0c-0.1,0-0.2,0.1-0.4,0.1c0,0,0,0-0.1,0
		c-0.1,0-0.3,0-0.4-0.1c0,0,0,0-0.1,0c-0.1,0-0.3,0-0.3,0.2c0,0.1,0,0.3,0.2,0.3c0.2,0.1,0.3,0.1,0.5,0.1c0.1,0,0.1,0,0.2,0
		c0.1,0,0.2,0,0.3,0c0.1,0,0.2,0,0.2-0.1C8.4,13.2,8.4,13.2,8.4,13.1z"/>
	<path class="st1" d="M12.4,12.7c-0.1,0-0.3,0.1-0.4,0.1c-0.2,0-0.3,0-0.5-0.1c-0.1,0-0.3,0-0.3,0.2c0,0.1,0,0.3,0.2,0.3
		c0.2,0.1,0.4,0.1,0.6,0.1c0.2,0,0.4,0,0.6-0.1c0.1,0,0.2-0.2,0.2-0.3C12.7,12.8,12.6,12.7,12.4,12.7z"/>
</g>
</svg>
