<svg width="481" height="481" viewBox="0 0 481 481" fill="none" xmlns="http://www.w3.org/2000/svg">
<path d="M365.348 317.9C349.648 302.4 330.048 302.4 314.448 317.9C302.548 329.7 290.648 341.5 278.948 353.5C275.748 356.8 273.048 357.5 269.148 355.3C261.448 351.1 253.248 347.7 245.848 343.1C211.348 321.4 182.448 293.5 156.848 262.1C144.148 246.5 132.848 229.8 124.948 211C123.348 207.2 123.648 204.7 126.748 201.6C138.648 190.1 150.248 178.3 161.948 166.5C178.248 150.1 178.248 130.9 161.848 114.4C152.548 105 143.248 95.8002 133.948 86.4002C124.348 76.8002 114.848 67.1002 105.148 57.6002C89.4483 42.3002 69.8483 42.3002 54.2483 57.7002C42.2483 69.5002 30.7483 81.6002 18.5483 93.2002C7.24826 103.9 1.54826 117 0.348262 132.3C-1.55174 157.2 4.54826 180.7 13.1483 203.6C30.7483 251 57.5483 293.1 90.0483 331.7C133.948 383.9 186.348 425.2 247.648 455C275.248 468.4 303.848 478.7 334.948 480.4C356.348 481.6 374.948 476.2 389.848 459.5C400.048 448.1 411.548 437.7 422.348 426.8C438.348 410.6 438.448 391 422.548 375C403.548 355.9 384.448 336.9 365.348 317.9Z" fill="black"/>
<path d="M346.249 238.2L383.149 231.9C377.349 198 361.349 167.3 337.049 142.9C311.349 117.2 278.849 101 243.049 96L237.849 133.1C265.549 137 290.749 149.5 310.649 169.4C329.449 188.2 341.749 212 346.249 238.2Z" fill="black"/>
<path d="M403.948 77.8C361.348 35.2 307.448 8.3 247.948 0L242.748 37.1C294.148 44.3 340.748 67.6 377.548 104.3C412.448 139.2 435.348 183.3 443.648 231.8L480.548 225.5C470.848 169.3 444.348 118.3 403.948 77.8Z" fill="black"/>
</svg>
