<svg xmlns="http://www.w3.org/2000/svg" xmlns:xlink="http://www.w3.org/1999/xlink" x="0px" y="0px"
	 width="30.074px" height="30.075px" viewBox="0 0 30.074 30.075" style="enable-background:new 0 0 30.074 30.075;"
	 xml:space="preserve">
			<path d="M1.606,13.595l1.91-0.948L3.952,1.641L2.291,1.575C1.412,1.54,0.672,2.223,0.638,3.102l-0.352,8.869
				c-0.017,0.422,0.135,0.833,0.421,1.143C0.946,13.372,1.264,13.536,1.606,13.595z"/>
			<path d="M10.387,9.051L8.628,7.197c-0.069-0.073-0.091-0.18-0.056-0.275C8.607,6.827,8.692,6.76,8.793,6.75l2.54-0.268
				c0.087-0.009,0.164-0.061,0.205-0.137L12.761,4.1c0.049-0.089,0.144-0.143,0.244-0.139c0.101,0.004,0.19,0.065,0.232,0.157
				l1.039,2.335c0.036,0.08,0.107,0.137,0.194,0.153l0.891,0.166l4.827-2.394l0.083-2.091L5.895,1.719l-0.394,9.946l4.95-2.456
				C10.444,9.151,10.427,9.095,10.387,9.051z"/>
			<path d="M23.838,2.975c0.479,0,0.938,0.099,1.357,0.273c-0.262-0.468-0.748-0.796-1.323-0.819l-1.66-0.066l-0.041,1.03
				l0.098-0.048C22.753,3.104,23.297,2.975,23.838,2.975z"/>
			<path d="M0.884,16.123c-0.378,0.188-0.666,0.52-0.801,0.917c-0.135,0.399-0.104,0.837,0.082,1.215l4.646,9.361
				C5.087,28.176,5.652,28.5,6.237,28.5c0.238,0,0.479-0.054,0.706-0.167l1.984-0.982L2.868,15.14L0.884,16.123z"/>
			<path d="M29.909,15.165l-4.646-9.362c-0.275-0.56-0.842-0.884-1.427-0.884c-0.236,0-0.479,0.053-0.706,0.167L21.147,6.07
				l6.06,12.211l1.983-0.983c0.378-0.188,0.667-0.519,0.801-0.917C30.126,15.981,30.097,15.543,29.909,15.165z"/>
			<path d="M4.608,14.276l6.06,12.21l14.799-7.342l-6.06-12.212L4.608,14.276z M19.854,19.577c-0.047,0.09-0.142,0.146-0.24,0.145
				l-2.979-0.069c-0.087-0.002-0.169,0.039-0.221,0.109l-1.746,2.412c-0.06,0.081-0.16,0.122-0.26,0.104
				c-0.1-0.017-0.182-0.088-0.211-0.187l-0.853-2.854c-0.024-0.083-0.089-0.149-0.172-0.176l-2.834-0.915
				c-0.096-0.031-0.167-0.114-0.182-0.214c-0.015-0.102,0.029-0.2,0.112-0.258l2.448-1.692c0.072-0.049,0.115-0.131,0.115-0.219
				l-0.007-2.978c0-0.101,0.057-0.194,0.148-0.239c0.09-0.045,0.198-0.035,0.278,0.026l2.368,1.807
				c0.069,0.053,0.16,0.069,0.243,0.041l2.832-0.926c0.096-0.031,0.2-0.005,0.271,0.067c0.07,0.072,0.095,0.179,0.062,0.274
				l-1.032,2.94l1.837,2.517C19.892,19.378,19.899,19.488,19.854,19.577z"/>
</svg>
