<?xml version="1.0" encoding="utf-8"?>
<!-- Generator: Adobe Illustrator 23.0.0, SVG Export Plug-In . SVG Version: 6.00 Build 0)  -->
<svg version="1.1" id="Capa_1" xmlns="http://www.w3.org/2000/svg" xmlns:xlink="http://www.w3.org/1999/xlink" x="0px" y="0px"
	 viewBox="0 0 20 20" style="enable-background:new 0 0 20 20;" xml:space="preserve">
<style type="text/css">
	.st0{fill:#01BAB4;}
</style>
<g>
	<path class="st0" d="M15,1.6H4.9c-0.6,0-1.1,0.5-1.1,1.1v13.8c0,0.6,0.5,1.1,1.1,1.1H15c0.6,0,1.1-0.5,1.1-1.1V2.7
		C16.1,2.1,15.6,1.6,15,1.6z M12.4,15.7H5v-3h7.4V15.7z M12.4,11.4H5V2.8h7.4V11.4z M14.8,12.7h-1.2V12c0-0.3,0.3-0.6,0.6-0.6
		c0.3,0,0.6,0.3,0.6,0.6V12.7z M14.8,9.6h-1.2V9h1.2V9.6z M14.8,8.4h-1.2V7.7h1.2V8.4z M14.8,7.1h-1.2V6.5h1.2V7.1z M14.8,5.9h-1.2
		V5.3h1.2V5.9z"/>
	<rect x="6.8" y="4.1" class="st0" width="1.2" height="2.4"/>
	<rect x="9.6" y="4.1" class="st0" width="1.2" height="2.4"/>
	<rect x="6.8" y="7.8" class="st0" width="1.2" height="2.4"/>
	<rect x="9.6" y="7.8" class="st0" width="1.2" height="2.4"/>
	<rect x="8" y="13.1" transform="matrix(0.5 0.866 -0.866 0.5 16.6713 -0.3257)" class="st0" width="1.2" height="2.4"/>
</g>
</svg>
