<svg enable-background="new 0 0 512 512" height="512" viewBox="0 0 512 512" width="512"
		 xmlns="http://www.w3.org/2000/svg">
	<g>
		<path d="m34.295 121.102h30.669v-75.4l-42.208 50.816c-8.095 9.746-1.156 24.584 11.539 24.584z"/>
		<path
				d="m487.711 451.016h-311.462c-4.021 0-7.873 1.614-10.692 4.48l-55.593 56.504h325.15c2.668 0 5.226-1.066 7.104-2.962l49.045-49.503c3.128-3.156.892-8.519-3.552-8.519z"/>
		<path
				d="m300.469 311.705c-5.858 5.856-15.351 5.857-21.211 0l-30-29.992c-5.858-5.857-5.859-15.354-.003-21.213 5.859-5.859 15.356-5.859 21.214-.003l19.395 19.39 31.091-31.083c-35.347-44.517-107.091-19.391-107.091 37.247 0 33.101 26.938 60.031 60.051 60.031 35.649 0 64.032-31.213 59.582-67.395z"/>
		<path
				d="m163.68 421.016h291.184v-406.016c0-8.284-6.716-15-15-15h-329.9c-8.284 0-15 6.716-15 15v469.47l58.023-58.974c2.82-2.866 6.672-4.48 10.693-4.48zm211.84-184.342-17.423 17.418c22.345 58.638-21.175 121.989-84.183 121.989-49.654 0-90.051-40.388-90.051-90.031s40.396-90.03 90.051-90.03c27.312 0 51.82 12.222 68.349 31.481l12.046-12.043c5.858-5.857 15.355-5.855 21.214.003 5.856 5.859 5.855 15.356-.003 21.213zm-191.556-160.572h179.899c8.284 0 15 6.716 15 15s-6.716 15-15 15h-179.899c-8.284 0-15-6.716-15-15s6.716-15 15-15zm0 59.984h179.899c8.284 0 15 6.716 15 15s-6.716 15-15 15h-179.899c-8.284 0-15-6.716-15-15s6.716-15 15-15z"/>
	</g>
</svg>
