<svg  height="40px" width="40px" xmlns="http://www.w3.org/2000/svg" xmlns:xlink="http://www.w3.org/1999/xlink" x="0px" y="0px"
	 viewBox="0 0 1200 1200" style="enable-background:new 0 0 1200 1200;" xml:space="preserve">
	<path class="st0" d="M460.3,715.5c0,30.4,4.4,60.2,13.2,88.7h106.1V643.9H468.8C463.2,667.2,460.3,691.3,460.3,715.5z"/>
	<path class="st0" d="M579.7,942.9V839.5H487C508.5,886.1,541.2,922.5,579.7,942.9z"/>
	<path class="st0" d="M479.8,608.6h99.8V488.3C536.6,511.1,500.6,554.4,479.8,608.6z"/>
	<path class="st0" d="M620.3,488.3v120.3h99.8C699.4,554.4,663.4,511.1,620.3,488.3z"/>
	<path class="st0" d="M425,715.5c0-24.2,2.5-48.2,7.5-71.6h-70.8c-7.2,23.2-10.8,47.3-10.8,71.6c0,30.4,5.6,60.2,16.8,88.7h68.9
		C428.9,775.6,425,745.8,425,715.5z"/>
	<path class="st0" d="M479.1,897.7c-12.2-17.7-22.5-37.2-30.8-58.2h-63.4c32.2,55,83.6,95,144.2,112.2
		C510.3,936.9,493.5,918.7,479.1,897.7z"/>
	<path class="st0" d="M864.3,242.7h-495l335.6-142.4c7.4-3.1,15.2-4.7,23.1-4.7c32.6,0,59.1,26.6,59.1,59.2v22.5H843l-2-99.4
		c0-36-29.2-65.3-65.2-65.3c-8.7,0-17.3,1.8-25.5,5.3L256,219.8c-32.6,13.3-53.9,45-53.9,80.2v753.9c0,73.8,59.8,133.6,133.6,133.6
		h528.5c73.8,0,133.6-59.8,133.6-133.6V376.2C997.8,302.5,938,242.7,864.3,242.7z M821.1,893.3c-40.3,49.3-96.5,83.7-158.4,97
		c-14.3,3.1-28.9,5-43.6,5.8v0.4h-12.4v0c-1,0-2.1,0-3.1,0c-1.2,0-2.3,0-3.5,0c-1.2,0-2.3,0-3.5,0c-1,0-2.1,0-3.1,0v0H581v-0.4
		c-14.7-0.8-29.3-2.7-43.6-5.8c-61.9-13.3-118.1-47.7-158.4-97c-40.9-50-63.4-113.1-63.4-177.7c0-64.6,22.5-127.8,63.4-177.7
		c40.3-49.3,96.5-83.7,158.4-97c14.3-3.1,28.9-5,43.6-5.8v-0.2h5.9c3.2-0.1,6.4-0.2,9.6-0.2c1.2,0,2.3,0,3.5,0c1.2,0,2.3,0,3.5,0
		c3.2,0,6.4,0.1,9.6,0.2h5.9v0.2c14.7,0.8,29.3,2.7,43.6,5.8c61.9,13.3,118.1,47.7,158.4,97c40.9,50,63.4,113.1,63.4,177.7
		C884.4,780.2,861.9,843.3,821.1,893.3z"/>
	<path class="st0" d="M671,479.3c18.6,14.9,35.5,33.1,49.9,54c15.5,22.5,27.9,47.8,37,75.2h66.4C793.6,545.4,737.8,498.4,671,479.3z
		"/>
	<path class="st0" d="M775,715.5c0,30.3-3.9,60-11.6,88.7h68.9c11.1-28.4,16.8-58.2,16.8-88.7c0-24.3-3.6-48.4-10.8-71.6h-70.8
		C772.5,667.3,775,691.4,775,715.5z"/>
	<path class="st0" d="M479.1,533.4c14.4-20.9,31.3-39.2,49.9-54c-66.7,19.1-122.6,66.1-153.3,129.2h66.4
		C451.1,581.2,463.6,555.9,479.1,533.4z"/>
	<path class="st0" d="M739.7,715.5c0-24.3-2.9-48.3-8.5-71.6H620.3v160.3h106.1C735.2,775.8,739.7,746,739.7,715.5z"/>
	<path class="st0" d="M720.9,897.7c-14.4,20.9-31.3,39.2-49.9,54c60.6-17.3,111.9-57.2,144.2-112.2h-63.4
		C743.5,860.5,733.1,880,720.9,897.7z"/>
	<path class="st0" d="M620.3,839.5v103.3c38.5-20.4,71.2-56.8,92.7-103.3H620.3z"/>
</svg>
