<svg version="1" xmlns="http://www.w3.org/2000/svg" width="400" height="400" viewBox="0 0 300 300"><path d="M17.3 100.8c-6.4 3.3-11.2 10.4-11.3 16.7 0 8.4.5 9.1 36.8 45.5 37 37.1 37.4 37.4 46.4 36.8 6.5-.3 11-4 35.7-28.9 13.6-13.7 25.1-24.9 25.5-24.9.4 0 11.5 10.7 24.5 23.8 13.1 13.1 25.3 25 27.3 26.5 4.2 3.3 10.8 4.3 16.7 2.7 3.9-1 8.4-5.1 38.7-35.4 35.1-35.1 37.4-37.9 37.4-45.3 0-9.6-9.1-19.3-18.2-19.3-8.7 0-9.9.9-37 27.8-14.3 14.2-26.1 25.9-26.4 26.2-.3.2-12-11.1-26.2-25.3-26.4-26.3-29.4-28.7-36.7-28.7-7.3 0-10.3 2.4-36.7 28.7-14.2 14.2-26 25.5-26.2 25.3-.3-.3-12-11.9-26-25.8-16.2-16.1-26.8-25.8-29.1-26.8-4.3-1.8-11.2-1.6-15.2.4z"/></svg>