<svg version="1" xmlns="http://www.w3.org/2000/svg" width="341.333" height="341.333" viewBox="0 0 256 256"><path d="M151.7.6c-.1.1-3.4.4-7.4.8-13 1.1-25.6 4.7-35.7 10.2C81.8 26.1 67.4 49.4 62.4 86c-1.3 9.5-1.1 148.6.2 153.8.9 3.3 2.5 5.8 5.6 8.8 8.7 8.2 20.7 8.5 29.7.7 7.5-6.4 7.2-3.1 7.5-85.9.2-40.6.6-75.5 1-77.4 2.7-13.5 7.1-23.1 13.4-29.4 9.7-9.7 23-13.5 44.6-12.9 13.2.5 17.9-.6 22.9-5.2 13.4-12.5 6.2-34.6-12.1-37.1-3.5-.5-23.1-1.2-23.5-.8z"/><path d="M133.7 99.3c-8.8 2.8-15 11.2-15 20.2.1 21.6 28 29.5 40 11.4 6.2-9.3 2.9-23.3-6.7-29.1-5.3-3.2-12.8-4.3-18.3-2.5z"/></svg>